<svg width="56" height="60" viewBox="0 0 56 60" fill="none" xmlns="http://www.w3.org/2000/svg">
<path d="M25.058 3.69858C26.8785 2.6475 29.1215 2.6475 30.942 3.69858L49.3067 14.3014C51.1272 15.3525 52.2487 17.295 52.2487 19.3972V40.6028C52.2487 42.705 51.1272 44.6475 49.3067 45.6986L30.942 56.3014C29.1215 57.3525 26.8785 57.3525 25.058 56.3014L6.69332 45.6986C4.87279 44.6475 3.75129 42.705 3.75129 40.6028V19.3972C3.75129 17.295 4.87278 15.3525 6.69332 14.3014L25.058 3.69858Z" stroke="white" stroke-width="4.05797"/>
<path d="M18.2754 20.4638L13 23.5072V36.087L18.2754 38.9275V20.4638Z" fill="white"/>
<path d="M27.6087 32.029V12.1449L43.2319 20.4638V24.7246L32.0725 19.4493V27.971H43.2319V38.9275L27.6087 47.8551V42.1739L38.7681 36.087V32.029H27.6087Z" fill="white"/>
</svg>
