<svg width="620" height="134" viewBox="0 0 620 134" fill="none" xmlns="http://www.w3.org/2000/svg">
<g filter="url(#filter0_d_568_2349)">
<path d="M14.4 105C8.16 105 4.8 101.64 4.8 95.4V37.8C4.8 31.56 8.16 28.2 14.4 28.2H66.24C84.96 28.2 95.04 38.28 95.04 57V76.2C95.04 94.92 84.96 105 66.24 105H14.4ZM45.12 91.56C45.12 94.056 46.464 95.4 48.96 95.4H50.88C53.376 95.4 54.72 94.056 54.72 91.56V41.64C54.72 39.144 53.376 37.8 50.88 37.8H48.96C46.464 37.8 45.12 39.144 45.12 41.64V91.56ZM114.244 105C108.004 105 104.644 101.64 104.644 95.4V37.8C104.644 31.56 108.004 28.2 114.244 28.2H180.004C182.5 28.2 183.844 29.544 183.844 32.04V33.96C183.844 36.456 182.5 37.8 180.004 37.8H144.964V47.4H171.364C173.86 47.4 175.204 48.744 175.204 51.24V53.16C175.204 55.656 173.86 57 171.364 57H144.964V67.56H178.084C184.324 67.56 187.684 70.92 187.684 77.16V95.4C187.684 101.64 184.324 105 178.084 105H114.244ZM226.069 105C207.349 105 197.269 94.92 197.269 76.2V37.8C197.269 31.56 200.629 28.2 206.869 28.2H227.989C234.229 28.2 237.589 31.56 237.589 37.8V91.56C237.589 94.056 238.933 95.4 241.429 95.4H243.349C245.845 95.4 247.189 94.056 247.189 91.56V37.8C247.189 31.56 250.549 28.2 256.789 28.2H277.909C284.149 28.2 287.509 31.56 287.509 37.8V75.624C287.509 92.616 275.125 105 258.133 105H226.069ZM306.713 105C300.473 105 297.113 101.64 297.113 95.4V87.72C297.113 81.48 300.473 78.12 306.713 78.12H327.833C334.073 78.12 337.433 81.48 337.433 87.72V91.56C337.433 94.056 338.777 95.4 341.273 95.4H343.193C345.689 95.4 347.033 94.056 347.033 91.56V75.24C347.033 72.744 345.689 71.4 343.193 71.4H316.312C303.833 71.4 297.113 64.68 297.113 52.2V47.4C297.113 34.92 303.833 28.2 316.312 28.2H377.753C383.993 28.2 387.353 31.56 387.353 37.8V45.48C387.353 51.72 383.993 55.08 377.753 55.08H356.633C350.393 55.08 347.033 51.72 347.033 45.48V41.64C347.033 39.144 345.689 37.8 343.193 37.8H341.273C338.777 37.8 337.433 39.144 337.433 41.64V57.96C337.433 60.456 338.777 61.8 341.273 61.8H368.153C380.633 61.8 387.353 68.52 387.353 81V85.8C387.353 98.28 380.633 105 368.153 105H306.713ZM437.276 91.56C437.276 94.056 438.62 95.4 441.116 95.4H443.036C445.532 95.4 446.876 94.056 446.876 91.56V41.64C446.876 39.144 445.532 37.8 443.036 37.8H441.116C438.62 37.8 437.276 39.144 437.276 41.64V91.56ZM396.956 76.2V57C396.956 38.28 407.036 28.2 425.756 28.2H458.396C477.116 28.2 487.196 38.28 487.196 57V76.2C487.196 94.92 477.116 105 458.396 105H425.756C407.036 105 396.956 94.92 396.956 76.2ZM525.6 105C506.88 105 496.8 94.92 496.8 76.2V57C496.8 38.28 506.88 28.2 525.6 28.2H558.24C576.96 28.2 587.04 36.552 587.04 52.2C587.04 58.44 583.68 61.8 577.44 61.8H556.32C550.08 61.8 546.72 58.44 546.72 52.2V41.64C546.72 39.144 545.376 37.8 542.88 37.8H540.96C538.464 37.8 537.12 39.144 537.12 41.64V91.56C537.12 94.056 538.464 95.4 540.96 95.4H542.88C545.376 95.4 546.72 94.056 546.72 91.56V80.04C546.72 73.8 550.08 70.44 556.32 70.44H577.44C583.68 70.44 587.04 73.8 587.04 80.04V85.8C587.04 98.28 580.32 105 567.84 105H525.6Z" fill="#FF7657"/>
</g>
<path d="M598 28C598 26.7 598.7 26 600 26H601C604.9 26 607 28.1 607 32V35.6C607 36.12 607.28 36.4 607.8 36.4H611.2C611.72 36.4 612 36.12 612 35.6V35.2C612 34.68 611.72 34.4 611.2 34.4H610.4C609.1 34.4 608.4 33.7 608.4 32.4V28C608.4 26.7 609.1 26 610.4 26H612C613.3 26 614 26.7 614 28V40.8C614 43.4 612.6 44.8 610 44.8H609C606.4 44.8 605 43.4 605 40.8V35.2C605 34.68 604.72 34.4 604.2 34.4H600.8C600.28 34.4 600 34.68 600 35.2V35.6C600 36.12 600.28 36.4 600.8 36.4H601.6C602.9 36.4 603.6 37.1 603.6 38.4V42.8C603.6 44.1 602.9 44.8 601.6 44.8H600C598.7 44.8 598 44.1 598 42.8V28ZM598 48.8008C598 47.5008 598.7 46.8008 600 46.8008H612C613.3 46.8008 614 47.5008 614 48.8008V53.2008C614 54.5008 613.3 55.2008 612 55.2008H607.96V56.4008C607.96 56.9208 608.24 57.2008 608.76 57.2008H612C613.3 57.2008 614 57.9008 614 59.2008V63.6008C614 64.9008 613.3 65.6008 612 65.6008H611.96C608.06 65.6008 605.96 63.9008 605.96 59.6008V59.2008H605.36C604.84 59.2008 604.56 59.4808 604.56 60.0008V63.6008C604.56 64.9008 603.86 65.6008 602.56 65.6008H600C598.7 65.6008 598 65.0408 598 63.6008V61.2008C598 58.6008 599.4 57.2008 602 57.2008H605.96V55.2008H600C598.7 55.2008 598 54.6408 598 53.2008V48.8008Z" fill="#FF7657"/>
<path d="M598 69.6016C598 68.3016 598.7 67.6016 600 67.6016H601C604.9 67.6016 607 69.7016 607 73.6016V77.2016C607 77.7216 607.28 78.0016 607.8 78.0016H611.2C611.72 78.0016 612 77.7216 612 77.2016V76.8016C612 76.2816 611.72 76.0016 611.2 76.0016H610.4C609.1 76.0016 608.4 75.3016 608.4 74.0016V69.6016C608.4 68.3016 609.1 67.6016 610.4 67.6016H612C613.3 67.6016 614 68.3016 614 69.6016V82.4016C614 85.0016 612.6 86.4016 610 86.4016H609C606.4 86.4016 605 85.0016 605 82.4016V76.8016C605 76.2816 604.72 76.0016 604.2 76.0016H600.8C600.28 76.0016 600 76.2816 600 76.8016V77.2016C600 77.7216 600.28 78.0016 600.8 78.0016H601.6C602.9 78.0016 603.6 78.7016 603.6 80.0016V84.4016C603.6 85.7016 602.9 86.4016 601.6 86.4016H600C598.7 86.4016 598 85.7016 598 84.4016V69.6016ZM598 92.4023C598 89.8023 599.4 88.4023 602 88.4023H604C605.3 88.4023 606 89.1023 606 90.4023V94.8023C606 96.1023 605.3 96.8023 604 96.8023H600.8C600.28 96.8023 600 97.0823 600 97.6023V98.0023C600 98.5223 600.28 98.8023 600.8 98.8023H607.2C607.72 98.8023 608 98.5223 608 98.0023V90.4023C608 89.1023 608.7 88.4023 610 88.4023H612C613.3 88.4023 614 89.1023 614 90.4023V106.002C614 106.522 613.72 106.802 613.2 106.802H612.8C612.28 106.802 612 106.522 612 106.002V97.6023C612 97.0823 611.72 96.8023 611.2 96.8023H610.8C610.28 96.8023 610 97.0823 610 97.6023V102.202C610 105.442 608.24 107.202 605 107.202H603C599.76 107.202 598 105.442 598 102.202V92.4023Z" fill="#FF9737"/>
<defs>
<filter id="filter0_d_568_2349" x="4.7998" y="28.2" width="588.24" height="82.8" filterUnits="userSpaceOnUse" color-interpolation-filters="sRGB">
<feFlood flood-opacity="0" result="BackgroundImageFix"/>
<feColorMatrix in="SourceAlpha" type="matrix" values="0 0 0 0 0 0 0 0 0 0 0 0 0 0 0 0 0 0 127 0" result="hardAlpha"/>
<feOffset dx="6" dy="6"/>
<feComposite in2="hardAlpha" operator="out"/>
<feColorMatrix type="matrix" values="0 0 0 0 0.138997 0 0 0 0 0.37863 0 0 0 0 0.470796 0 0 0 1 0"/>
<feBlend mode="normal" in2="BackgroundImageFix" result="effect1_dropShadow_568_2349"/>
<feBlend mode="normal" in="SourceGraphic" in2="effect1_dropShadow_568_2349" result="shape"/>
</filter>
</defs>
</svg>
