<svg width="56" height="56" viewBox="0 0 56 56" fill="none" xmlns="http://www.w3.org/2000/svg">
<path d="M44.6609 11.2674C41.513 9.72138 38.1829 8.62257 34.7585 8C34.3312 8.80867 33.8344 9.89949 33.4888 10.7636C29.8514 10.1816 26.151 10.1816 22.5136 10.7636C22.1321 9.81934 21.7035 8.89687 21.2296 8C17.8022 8.62359 14.4695 9.72499 11.3199 11.275C5.05348 21.2158 3.35427 30.9098 4.20388 40.4651C7.86187 43.3643 11.9718 45.5746 16.3503 46.9975C17.3341 45.5764 18.2043 44.0723 18.952 42.5007C17.5299 41.9318 16.1589 41.2312 14.8551 40.4072C15.1983 40.1402 15.5343 39.8605 15.8583 39.5733C23.7568 43.4504 32.3368 43.4504 40.1417 39.5733C40.4705 39.8605 40.8065 40.1402 41.1449 40.4072C39.8465 41.2285 38.4713 41.9339 37.0409 42.5032C37.7873 44.0756 38.6575 45.5797 39.6425 47C44.0245 45.578 48.1372 43.3658 51.7962 40.4626C52.7922 29.3882 50.0945 19.7824 44.6609 11.2674ZM20.0272 34.5878C17.656 34.5878 15.7119 32.2651 15.7119 29.436C15.7119 26.6069 17.6152 24.2792 20.0272 24.2792C22.4392 24.2792 24.3832 26.6019 24.3424 29.436C24.3448 32.2651 22.4392 34.5878 20.0272 34.5878ZM35.9729 34.5878C33.6016 34.5878 31.6576 32.2651 31.6576 29.436C31.6576 26.6069 33.5608 24.2792 35.9729 24.2792C38.3849 24.2792 40.3289 26.6019 40.2881 29.436C40.2881 32.2651 38.3849 34.5878 35.9729 34.5878Z" fill="white"/>
</svg>
