<svg width="235" height="32" viewBox="0 0 235 32" fill="none" xmlns="http://www.w3.org/2000/svg">
<path d="M4 32C1.4 32 2.98023e-08 30.6 2.98023e-08 28V4C2.98023e-08 1.4 1.4 -4.76837e-07 4 -4.76837e-07H25.8C31 -4.76837e-07 33.8 2.8 33.8 8V15.6C33.8 20.8 31 23.6 25.8 23.6H16.8V28C16.8 30.6 15.4 32 12.8 32H4ZM16.8 17.96C16.8 18.88 17.52 19.6 18.44 19.6H26.28C27.2 19.6 27.92 18.88 27.92 17.96V17.64C27.92 16.72 27.2 16 26.28 16H18.44C17.52 16 16.8 16.72 16.8 17.64V17.96ZM54.6125 26.4C54.6125 27.44 55.1725 28 56.2125 28H57.0125C58.0525 28 58.6125 27.44 58.6125 26.4V5.6C58.6125 4.56 58.0525 4 57.0125 4H56.2125C55.1725 4 54.6125 4.56 54.6125 5.6V26.4ZM37.8125 20V12C37.8125 4.2 42.0125 -4.76837e-07 49.8125 -4.76837e-07H63.4125C71.2125 -4.76837e-07 75.4125 4.2 75.4125 12V20C75.4125 27.8 71.2125 32 63.4125 32H49.8125C42.0125 32 37.8125 27.8 37.8125 20ZM83.4141 32C80.8141 32 79.4141 30.6 79.4141 28V4C79.4141 1.4 80.8141 -4.76837e-07 83.4141 -4.76837e-07H108.214C114.054 -4.76837e-07 116.214 2.44 116.214 8.96C116.214 15.52 114.334 18.08 109.294 18.08H104.214V19.28C104.214 20.32 104.774 20.88 105.814 20.88H112.214C114.814 20.88 116.214 22.28 116.214 24.88V28C116.214 30.6 114.814 32 112.214 32H108.214C103.014 32 100.214 29.2 100.214 24V18.08H96.2141V28C96.2141 30.6 94.8141 32 92.2141 32H83.4141ZM96.2141 12.48C96.2141 13.52 96.7741 14.08 97.8141 14.08H98.6141C99.6541 14.08 100.214 13.52 100.214 12.48V5.6C100.214 4.56 99.6541 4 98.6141 4H97.8141C96.7741 4 96.2141 4.56 96.2141 5.6V12.48ZM133.995 32C131.395 32 129.995 30.6 129.995 28V15.6H124.195C121.595 15.6 120.195 14.2 120.195 11.6V4C120.195 1.4 121.595 -4.76837e-07 124.195 -4.76837e-07H152.595C155.195 -4.76837e-07 156.595 1.4 156.595 4V11.6C156.595 14.2 155.195 15.6 152.595 15.6H146.795V28C146.795 30.6 145.395 32 142.795 32H133.995ZM164.586 32C161.986 32 160.586 30.6 160.586 28V12C160.586 4.2 164.786 -4.76837e-07 172.586 -4.76837e-07H186.186C193.986 -4.76837e-07 198.186 4.2 198.186 12V28C198.186 30.6 196.786 32 194.186 32H185.386C182.786 32 181.386 30.6 181.386 28V19.28H177.386V28C177.386 30.6 175.986 32 173.386 32H164.586ZM177.386 15.28H181.386V5.6C181.386 4.56 180.826 4 179.786 4H178.986C177.946 4 177.386 4.56 177.386 5.6V15.28ZM210.188 32C204.988 32 202.188 29.2 202.188 24V4C202.188 1.4 203.588 -4.76837e-07 206.188 -4.76837e-07H214.988C217.588 -4.76837e-07 218.988 1.4 218.988 4V16.4H230.788C233.388 16.4 234.788 17.8 234.788 20.4V28C234.788 30.6 233.388 32 230.788 32H210.188Z" fill="white"/>
</svg>
