<svg width="56" height="56" viewBox="0 0 56 56" fill="none" xmlns="http://www.w3.org/2000/svg">
<path fill-rule="evenodd" clip-rule="evenodd" d="M45.6133 19.2471L44.3684 17.087C43.3153 15.2591 40.9814 14.6285 39.151 15.6773V15.6773C38.2797 16.1906 37.2401 16.3362 36.2614 16.0821C35.2826 15.828 34.4451 15.1949 33.9336 14.3227C33.6046 13.7682 33.4277 13.1367 33.421 12.492V12.492C33.4507 11.4584 33.0608 10.4567 32.34 9.71525C31.6192 8.97378 30.629 8.55563 29.5949 8.55606H27.0869C26.0739 8.55605 25.1026 8.95974 24.3879 9.6778C23.6733 10.3959 23.2743 11.3691 23.2792 12.3821V12.3821C23.2491 14.4738 21.5449 16.1535 19.4531 16.1533C18.8084 16.1466 18.1769 15.9698 17.6224 15.6407V15.6407C15.7921 14.5919 13.4582 15.2225 12.405 17.0503L11.0686 19.2471C10.0168 21.0727 10.6387 23.4051 12.4599 24.4645V24.4645C13.6437 25.148 14.373 26.4111 14.373 27.778C14.373 29.145 13.6437 30.4081 12.4599 31.0915V31.0915C10.6411 32.1438 10.0184 34.4706 11.0686 36.2906V36.2906L12.3318 38.4691C12.8252 39.3595 13.6531 40.0165 14.6323 40.2948C15.6115 40.5731 16.6612 40.4497 17.5492 39.9519V39.9519C18.4221 39.4426 19.4623 39.303 20.4386 39.5643C21.4149 39.8256 22.2464 40.466 22.7483 41.3432C23.0773 41.8977 23.2542 42.5292 23.2609 43.1739V43.1739C23.2609 45.287 24.9738 47 27.0869 47H29.5949C31.7009 47 33.411 45.2982 33.421 43.1922V43.1922C33.4161 42.176 33.8177 41.2 34.5363 40.4814C35.2549 39.7628 36.2309 39.3612 37.2471 39.3661C37.8903 39.3833 38.5192 39.5594 39.0778 39.8787V39.8787C40.9033 40.9306 43.2358 40.3086 44.2952 38.4874V38.4874L45.6133 36.2906C46.1234 35.4149 46.2635 34.3719 46.0023 33.3927C45.7412 32.4134 45.1004 31.5786 44.222 31.0732V31.0732C43.3435 30.5678 42.7027 29.7331 42.4416 28.7538C42.1804 27.7745 42.3205 26.7315 42.8306 25.8558C43.1624 25.2766 43.6427 24.7963 44.222 24.4645V24.4645C46.0322 23.4057 46.6528 21.0869 45.6133 19.2654V19.2654V19.2471Z" stroke="white" stroke-width="4" stroke-linecap="round" stroke-linejoin="round"/>
<circle cx="28.3501" cy="27.778" r="5.27231" stroke="white" stroke-width="4" stroke-linecap="round" stroke-linejoin="round"/>
</svg>
