<svg width="691" height="923" viewBox="0 0 691 923" fill="none" xmlns="http://www.w3.org/2000/svg">
<path d="M278.562 6.26971C264.277 10.5981 236.574 20.9863 217.095 29.6431C197.616 38.2998 167.316 49.5536 150.001 54.3149C96.326 70.33 70.3542 90.6734 55.6368 130.062C47.8452 150.405 49.1438 187.63 59.5326 225.287C79.8772 299.735 137.881 470.274 155.195 507.065C165.151 528.274 175.107 550.349 177.272 555.976C180.302 563.334 183.332 565.066 188.959 562.902C240.47 540.827 272.069 533.036 319.684 531.304C378.986 529.14 401.928 533.901 465.992 562.469L509.711 581.514L524.861 559.439C536.116 542.991 543.907 523.08 553.863 484.99C561.222 456.423 571.178 425.691 575.506 416.602C586.328 395.393 620.091 343.452 640.436 316.183C662.079 287.183 688.051 231.779 690.648 208.839C694.111 178.973 671.602 129.196 642.167 102.793C588.925 53.8821 458.633 11.0309 332.67 0.642761C312.325 -1.08856 297.175 0.642761 278.562 6.26971ZM267.307 40.8969C255.187 66.8673 251.291 101.062 255.62 153.002C260.381 209.272 278.562 340.422 287.219 378.079C295.01 410.542 295.443 417.035 289.383 410.975C282.457 404.049 255.62 292.81 247.828 238.272C238.738 172.48 237.44 88.5092 245.664 65.1359C252.157 46.0909 266.441 24.0161 272.069 24.0161C273.8 24.0161 272.069 31.3745 267.307 40.8969ZM152.598 94.569C175.54 173.779 181.6 206.674 187.66 284.153C191.123 329.168 195.452 371.154 196.75 377.213C198.915 385.004 198.049 388.034 195.019 385.87C188.093 381.542 178.137 330.467 166.017 233.943C159.957 186.331 151.3 133.092 146.538 115.778C141.777 98.4646 137.881 80.7181 137.881 75.524C137.881 60.8075 145.672 70.7628 152.598 94.569ZM93.2959 167.286C105.416 191.092 112.775 219.66 128.791 307.526C140.045 368.557 150.001 414.005 157.793 438.244C159.957 444.736 159.524 445.169 155.628 439.542C146.538 426.99 124.895 353.84 109.745 286.75C91.5645 203.212 84.2058 178.54 72.9513 159.495C68.1898 151.271 64.2941 142.614 64.2941 140.017C64.2941 130.495 84.2058 149.107 93.2959 167.286Z" fill="#F2F2F2"/>
<path d="M247.999 630.559L248.06 630.534C260.838 625.026 271.951 621.745 281.064 621.148C290.167 620.556 298.171 622.621 303.299 628.909C305.436 631.404 307.066 633.941 307.795 636.406C308.524 638.861 308.63 642.684 305.329 645.108C302.646 647.078 299.335 646.744 297.113 646.202C294.607 645.589 291.837 644.314 288.962 642.522C285.742 640.557 283.757 639.955 280.512 640.365C276.619 640.861 270.979 642.825 260.707 647.199L260.641 647.225C247.493 652.611 237.641 655.729 229.895 655.664C225.84 655.633 222.215 654.737 218.975 652.778C215.78 650.849 213.305 648.095 211.199 644.881L211.173 644.835L211.143 644.789C209.239 641.747 208.07 638.699 207.837 635.864C207.609 633.131 208.252 629.709 211.138 627.587C214.11 625.405 217.618 625.917 220.165 627.127C222.747 628.352 225.156 630.574 227.298 633.47L227.334 633.516C228.822 635.576 229.541 636.442 230.103 636.892C230.103 636.892 230.113 636.902 230.123 636.907C230.32 637.069 230.396 637.13 230.892 637.105C231.768 637.064 233.323 636.715 236.274 635.586C239.15 634.487 242.886 632.847 247.999 630.559Z" fill="#F2F2F2"/>
<path d="M72.4878 657.923L72.5283 657.902C92.7285 648.021 105.406 642.153 113.668 639.784C117.799 638.599 121.556 638.058 124.897 638.832C128.598 639.688 130.993 641.946 132.678 644.553L132.709 644.598C134.845 647.98 135.265 651.787 133.985 655.629C132.795 659.188 130.248 662.55 126.942 665.79C120.33 672.29 109.112 679.813 93.2956 688.915C84.7548 693.825 77.019 698.807 71.4754 702.887C68.8529 704.816 66.8176 706.476 65.4405 707.772C65.5418 707.864 65.6481 707.96 65.7645 708.056C67.6479 709.706 70.5032 711.868 74.1636 714.389C81.4538 719.406 91.5742 725.587 102.692 731.576L102.732 731.596C122.366 742.384 135.903 751.152 142.728 758.214C145.973 761.576 148.894 765.737 148.494 770.374C148.044 775.584 143.832 778.5 139.857 780.109L139.756 780.155L139.655 780.19C137.766 780.864 135.62 780.783 133.949 780.616C132.086 780.423 129.924 780.008 127.58 779.446C122.877 778.317 116.979 776.475 110.397 774.156C97.204 769.519 80.8363 762.852 64.904 755.754C48.9716 748.657 33.3532 741.088 21.6735 734.629C15.8514 731.409 10.8797 728.397 7.30545 725.805C5.53351 724.519 3.94381 723.223 2.74395 721.952C2.14149 721.319 1.52393 720.57 1.03284 719.725C0.567074 718.925 0 717.669 0 716.12C0 713.614 0.92136 711.225 2.06553 709.159C3.24008 707.038 4.87532 704.861 6.79915 702.685C10.6519 698.316 16.069 693.496 22.5392 688.52C35.4997 678.552 53.209 667.562 72.4878 657.923ZM63.8407 709.529C63.8407 709.529 63.8712 709.489 63.9016 709.423C63.856 709.494 63.8407 709.529 63.8407 709.529Z" fill="#F2F2F2"/>
<path d="M579.034 681.923L578.988 681.908L578.943 681.887C561.649 675.19 549.503 669.581 542.314 664.392C538.75 661.82 535.798 658.934 534.355 655.527C532.73 651.7 533.287 647.903 535.363 644.608C537.996 640.411 542.841 638.958 547.189 638.528C551.751 638.072 557.234 638.588 563.076 639.687C574.832 641.904 589.205 646.734 603.072 652.718C616.948 658.707 630.603 665.981 640.88 673.236C646.003 676.85 650.454 680.581 653.684 684.267C656.772 687.795 659.425 692.053 659.425 696.644C659.425 698.791 658.544 700.735 657.668 702.218C656.741 703.798 655.455 705.448 653.947 707.144C650.914 710.541 646.53 714.596 640.936 719.253C629.722 728.603 613.121 740.824 591.443 755.779C582.968 761.646 575.981 766.243 570.27 769.624C564.63 772.955 559.927 775.289 556.095 776.393C552.445 777.446 547.929 777.83 544.557 774.661C541.545 771.831 541.079 767.539 541.079 764.167C541.079 761.443 542.187 758.811 543.539 756.513C544.947 754.128 546.921 751.597 549.331 748.959C554.151 743.679 561.112 737.528 569.88 730.735L569.911 730.709C587.256 717.486 597.827 708.9 603.846 702.993C606.874 700.016 608.458 697.991 609.208 696.624C609.329 696.406 609.42 696.219 609.486 696.062C609.248 695.89 608.954 695.688 608.61 695.46C607.015 694.407 604.677 693.085 601.705 691.587C595.791 688.605 587.747 685.112 579.034 681.923ZM609.678 695.394C609.678 695.394 609.673 695.419 609.678 695.46C609.683 695.414 609.678 695.394 609.678 695.394ZM610.372 696.796C610.372 696.796 610.352 696.771 610.301 696.72C610.342 696.771 610.372 696.796 610.372 696.796Z" fill="#F2F2F2"/>
<path d="M233.656 680.369L233.666 680.354C238.769 675.702 243.174 672.421 248.009 670.715C252.99 668.963 257.855 669.08 263.455 670.011L263.546 670.027L263.637 670.047C273.783 672.122 281.67 675.889 286.824 682.875C291.892 689.74 293.654 698.847 293.654 710.065C293.654 736.537 278.43 752.291 260.539 753.157C242.753 754.017 225.621 739.964 222.108 713.781C221.039 706.061 220.599 700.168 222.452 694.827C224.32 689.431 228.279 685.315 233.656 680.369ZM261.83 708.521L261.769 708.364L261.713 708.202C261.278 706.891 260.534 705.646 259.795 704.805C259.749 704.755 259.703 704.704 259.658 704.659C259.648 704.674 259.632 704.689 259.617 704.704C259.121 705.271 258.569 706.279 258.23 707.651C257.496 710.627 258.174 713.179 259.273 714.277C260.113 715.118 260.605 715.113 260.65 715.113C260.731 715.113 260.999 715.087 261.384 714.697C262.169 713.887 263.116 711.66 261.83 708.521ZM260.083 704.299C260.108 704.299 260.119 704.294 260.119 704.289C260.119 704.289 260.108 704.294 260.083 704.299Z" fill="#F2F2F2"/>
<path d="M406.646 678.825L406.656 678.82C413.83 673.166 419.854 669.333 426.8 668.766C433.676 668.21 440.46 670.938 448.884 675.256C466.522 684.207 471.226 703.763 467.479 720.125C463.738 736.461 451.005 751.917 431.433 751.917C421.095 751.917 412.468 748.409 406.175 741.134C400.054 734.051 396.596 723.937 395.239 711.529C394.181 703.272 393.741 697.136 395.538 691.957C397.427 686.52 401.492 682.906 406.646 678.825ZM424.477 714.389L424.608 714.435L424.74 714.49C427.008 715.442 429.372 714.89 430.851 713.7C431.569 713.118 431.899 712.531 432.01 712.116C432.091 711.817 432.106 711.463 431.858 710.957C431.058 709.792 430.446 709.246 430.091 709.013C429.833 708.846 429.767 708.871 429.752 708.876C429.63 708.891 429.119 708.987 428.147 709.691C427.18 710.395 425.965 711.544 424.502 713.306C424.244 713.609 424.021 713.888 423.824 714.146C424.026 714.222 424.244 714.303 424.477 714.389ZM422.016 713.295H422.021H422.016Z" fill="#F2F2F2"/>
<path d="M369.288 784.528L369.314 784.497L369.344 784.467C374.878 778.701 380.988 774.509 386.188 772.864C388.678 772.079 391.878 771.588 394.774 772.879C398.292 774.438 399.705 777.78 399.705 781.045C399.705 783.444 398.662 785.576 397.655 787.15C396.581 788.826 395.144 790.481 393.559 792.051C390.385 795.204 386.152 798.475 381.667 801.406C377.166 804.352 372.24 807.071 367.613 809.07C363.137 811.004 358.373 812.513 354.384 812.513C350.531 812.513 345.995 810.949 341.808 809.015C337.459 807.005 332.832 804.276 328.599 801.32C324.382 798.379 320.398 795.103 317.411 791.939C315.917 790.36 314.565 788.699 313.563 787.029C312.611 785.449 311.665 783.363 311.665 781.045C311.665 780.063 311.735 778.949 312.024 777.845C312.312 776.747 312.9 775.334 314.16 774.185C316.985 771.614 320.494 772.449 322.276 773.092C324.321 773.826 326.655 775.188 329.222 776.904C331.855 778.665 335.044 781.02 338.861 783.966L338.882 783.976C342.517 786.806 346.582 789.342 350.101 791.155C351.857 792.061 353.412 792.744 354.652 793.195C355.837 793.62 356.419 793.711 356.53 793.726C356.596 793.711 356.996 793.645 357.796 793.301C358.717 792.906 359.877 792.278 361.188 791.418C363.815 789.702 366.747 787.261 369.288 784.528Z" fill="#F2F2F2"/>
<path d="M251.345 828.424L251.355 828.419C269.333 819.869 284.02 815.363 296.757 815.485C309.824 815.606 320.335 820.583 329.787 829.796L329.832 829.842C335.072 835.081 338.864 839.592 340.793 844.341C342.848 849.413 342.575 854.187 341.107 859.381C332.06 896.706 290.657 920.722 242.278 920.722C219.101 920.722 200.662 917.098 186.426 908.78C172.033 900.371 162.484 887.488 156.541 870.118L156.531 870.083C154.197 863.087 152.415 852.82 151.635 844.381C151.245 840.159 151.088 836.155 151.286 833.092C151.387 831.614 151.584 830.014 152.05 828.637C152.273 827.964 152.683 826.976 153.463 826.08C154.323 825.083 155.817 824.03 157.867 824.03C158.652 824.03 159.29 824.227 159.335 824.243H159.34C159.528 824.298 159.69 824.354 159.796 824.395C160.009 824.47 160.231 824.562 160.429 824.643C160.834 824.815 161.36 825.053 161.968 825.326C163.193 825.888 164.889 826.688 166.929 827.67C171.02 829.629 176.564 832.348 182.639 835.385L182.674 835.4C194.835 841.592 202.085 844.042 210.818 843.257C219.992 842.432 231.307 838.007 251.345 828.424Z" fill="#F2F2F2"/>
<path d="M526.141 890.294L526.111 890.34C512.685 910.478 484.268 922.025 450.909 922.025C414.686 922.025 386.775 910.782 366.155 886.968C355.518 874.965 349.929 862.506 350.961 850.625C352.014 838.521 359.791 828.492 372.645 821.238C388.324 812.15 407.32 814.864 436.82 827.014L436.845 827.024C460.974 837.113 472.598 841.69 481.417 842.621C489.599 843.482 495.426 841.214 508.533 835.316C515.094 832.253 521.241 829.621 525.893 827.793C528.207 826.882 530.222 826.148 531.751 825.657C532.5 825.419 533.244 825.206 533.897 825.065C534.216 824.999 534.647 824.918 535.112 824.887C535.112 824.887 535.128 824.882 535.138 824.882C535.381 824.862 536.672 824.761 538.013 825.434L538.904 825.88L539.562 826.629C540.707 827.935 541.031 829.484 541.157 830.213C541.314 831.135 541.36 832.112 541.355 833.043C541.345 834.921 541.132 837.215 540.793 839.7C540.114 844.702 538.859 851.03 537.32 857.484C535.781 863.949 533.928 870.647 532.039 876.403C530.202 881.992 528.161 887.191 526.141 890.294Z" fill="#F2F2F2"/>
</svg>
