<svg width="1440" height="1024" viewBox="0 0 1440 1024" fill="none" xmlns="http://www.w3.org/2000/svg">
    <g opacity="0.5">
        <rect x="0.5" y="-179.5" width="1459" height="1459" stroke="black" stroke-opacity="0.1"/>
        <path d="M653.297 -135.716C700.761 -163.119 759.239 -163.119 806.703 -135.716L1285.5 140.716C1332.96 168.119 1362.2 218.762 1362.2 273.569V826.431C1362.2 881.238 1332.96 931.881 1285.5 959.284L806.703 1235.72C759.239 1263.12 700.761 1263.12 653.297 1235.72L174.504 959.284C127.04 931.881 97.8015 881.238 97.8015 826.431V273.569C97.8015 218.762 127.04 168.119 174.504 140.716L653.297 -135.716Z" stroke="black" stroke-opacity="0.1" stroke-width="105.797"/>
        <path d="M470.797 301.376L333.261 380.724V708.695L470.797 782.753V301.376Z" fill="black" fill-opacity="0.1"/>
        <path d="M714.13 602.898V84.4919L1121.45 301.376V412.463L830.507 274.927V497.101H1121.45V782.753L714.13 1015.51V867.391L1005.07 708.695V602.898H714.13Z" fill="black" fill-opacity="0.1"/>
    </g>
</svg>
