<svg width="556" height="481" viewBox="0 0 556 481" fill="none" xmlns="http://www.w3.org/2000/svg">
    <path d="M549.567 236.093C548.838 230.939 548.076 226.122 547.334 220.948C545.606 208.65 543.77 196.721 542.222 184.754C542.038 183.333 542.997 181.012 544.16 180.291C552.457 175.148 552.631 165.749 544.085 160.279C541.361 160.896 538.879 161.633 536.398 162.376C534.656 162.899 532.916 163.428 530.498 164.024C507.015 166.869 484.211 169.658 461.402 172.413C455.253 173.156 455.247 173.108 454.28 166.725C453.549 161.906 452.444 161.02 447.494 161.375C446.08 161.476 444.675 161.689 443.265 161.847C430.442 163.281 417.619 164.715 404.797 166.149C400.884 166.63 396.971 167.111 392.371 167.72C385.891 168.509 380.087 169.086 374.314 169.883C372.702 170.105 370.757 170.559 369.698 171.63C366.826 174.533 364.31 174.421 360.658 172.74C352.321 168.904 344.67 174.294 346.899 183.001C348.601 189.653 346.919 191.997 341.364 195.287C331.68 201.022 328.534 211.149 329.097 221.845C329.925 237.573 327.195 252.321 319.241 266.292C317.119 266.514 314.476 266.79 312.483 266.999C310.031 261.838 307.754 257.045 305.477 252.251C301.871 250.76 298.36 248.921 294.625 247.905C292.336 247.283 291.901 246.29 292.156 244.371C294.841 224.094 291.62 204.679 283.154 186.182C277.715 174.298 270.558 163.676 259.089 156.525C256.001 154.6 253.22 152.022 250.712 149.354C229.991 127.309 204.393 120.381 175.069 124.479C153.258 127.527 134.711 137.105 119.642 152.911C102.325 171.076 93.6792 192.664 96.3377 218.137C96.482 219.518 96.3564 220.928 96.3564 222.898C94.6342 222.758 93.1533 222.751 91.7137 222.504C77.1056 219.994 64.2275 224.888 58.0932 236.778C55.3483 242.098 54.67 248.655 53.8994 254.757C53.464 258.206 53.0286 259.881 49.0974 259.768C42.8261 259.587 37.0491 261.466 31.8108 265.609C21.1791 276.718 19.9795 284.523 26.8753 297.977C28.1561 300.476 26.7597 301.123 25.1459 302.248C20.8607 305.235 16.2198 307.909 12.5474 311.543C-3.93689 327.856 -1.4151 349.977 18.1617 362.487C21.2609 364.467 24.6747 365.955 28.2042 367.848C31.5405 369.959 34.5311 372.049 37.7148 373.783C40.8466 375.489 44.1567 376.875 47.4247 378.32C48.6925 378.881 50.2697 378.926 51.3469 379.703C57.9163 384.445 64.5313 383.767 70.8328 379.581C76.4864 375.825 81.6384 371.32 87.2418 367.482C90.8577 365.005 94.8134 362.977 98.774 361.075C100.158 360.41 102.04 360.484 103.643 360.669C104.852 360.808 105.961 361.704 107.144 362.19C117.729 366.545 116.39 364.79 113.012 375.179C110.895 381.69 107.34 387.855 103.708 393.728C95.3503 407.242 84.7444 419.724 81.6344 435.724C80.1836 443.188 76.7124 445.86 69.936 446.953C66.4245 447.519 62.8839 449.195 59.853 451.143C55.539 453.915 55.7009 459.508 59.7515 462.713C64.7647 466.681 70.8645 467.071 76.7744 467.114C102.659 467.302 128.547 467.316 154.431 467.093C162.36 467.024 170.333 466.38 178.19 465.301C185.277 464.327 190.913 460.589 194.369 453.317C195.931 449.353 197.534 445.978 198.45 442.425C201.929 428.922 200.761 416.05 192.953 404.075C185.117 392.06 173.212 387.014 159.877 384.42C150.881 382.669 150.676 382.713 153.235 373.8C153.69 372.218 155.745 370.467 157.413 369.967C165.798 367.451 174.283 365.254 182.775 363.114C184.6 362.654 186.899 362.215 188.473 362.912C200.376 368.183 212.653 371.97 225.623 373.428C227.923 373.686 229.13 374.602 228.297 377.426C225.524 386.82 222.837 396.247 220.459 405.747C218.191 414.807 215.572 423.895 214.639 433.125C214.138 438.083 213.137 440.268 208.348 441.547C202.48 443.114 197.484 446.175 197.795 453.527C198.783 457.468 201.668 459.642 205.319 460.249C213.426 461.599 221.58 463.09 229.764 463.479C250.638 464.472 271.557 464.558 292.423 465.661C306.437 466.401 320.278 466.096 333.929 462.825C346.267 459.869 356.362 453.679 361.093 441.233C362.361 437.896 362.214 434.02 362.547 429.763C361.452 425.884 360.817 422.515 359.552 419.402C354.124 406.051 342.566 399.589 330.137 394.804C322.03 391.682 313.318 390.131 304.482 387.901C290.825 387.927 277.564 387.927 263.654 387.927C263.932 383.262 264.323 378.489 264.458 373.71C264.531 371.097 265.693 369.742 267.965 368.516C273.568 365.495 278.922 362.015 284.498 358.939C285.805 358.218 287.842 357.732 289.117 358.23C294.508 360.337 299.739 362.857 305.389 365.167C320.373 368.327 335.023 368.979 349.73 365.623C358.407 363.644 366.503 360.55 373.536 354.83C384.681 345.765 385.562 333.233 375.497 323.096C369.841 317.398 362.845 313.984 355.294 311.686C352.139 310.726 351.044 309.441 351.719 305.88C352.472 301.909 353.36 297.186 351.922 293.736C348.687 285.973 351.097 280.187 355.949 274.527C356.225 274.206 356.339 273.678 356.669 273.483C358.461 272.423 360.196 271.131 362.139 270.492C365.72 269.312 369.47 268.652 373.079 267.544C375.827 266.701 378.391 264.933 381.167 264.566C390.149 263.381 395.895 257.885 397.171 249.014C397.355 247.737 398.781 246.094 400.022 245.599C411.595 240.979 413.869 236.984 411.545 225.36C416.741 223.477 422.162 222.199 426.881 219.631C432.793 216.414 433.052 210.74 430.366 204.364C436.072 203.836 441.122 203.283 446.186 202.918C457.241 202.124 457.488 202.63 456.077 191.643C455.718 188.846 456.653 187.666 459.385 187.574C460.758 187.528 462.122 187.249 463.758 187.041C464.01 188.55 464.317 189.771 464.404 191.007C465.013 199.66 465.567 208.317 466.156 216.971C467.574 237.829 468.979 258.688 470.441 279.543C470.82 284.963 471.812 285.655 477.193 284.427C481.213 283.51 485.189 282.404 489.2 281.448C503.161 278.122 517.128 274.824 531.093 271.515C534.6 270.617 538.108 269.72 541.968 268.798C544.332 268.147 546.304 267.282 548.362 266.941C552.577 266.242 553.996 264.268 553.148 259.878C551.65 252.118 550.709 244.252 549.567 236.093ZM359.823 356.178C359.55 356.26 359.274 356.332 359.005 356.425C334.702 364.825 311.152 364.789 288.708 350.501C287.323 349.62 284.553 349.873 282.908 350.635C277.669 353.062 272.818 356.357 267.524 358.634C253.489 364.672 238.88 367.597 223.491 365.965C212.674 364.818 202.769 361.481 193.623 355.51C191.679 354.241 188.073 353.424 186.276 354.373C177.236 359.147 167.616 361.092 157.601 361.679C141.447 362.625 125.497 361.71 110.105 356.114C106.62 354.847 97.1277 353.955 93.6276 354.565C93.4356 354.598 93.183 354.284 92.8312 354.045C93.5935 351.512 94.1954 348.873 95.1746 346.382C97.8704 339.525 96.7377 332.91 93.8947 326.506C92.5863 323.558 90.6526 320.874 88.8798 318.15C84.8071 311.892 86.5653 303.666 92.8711 299.562C95.0053 298.173 98.6406 297 96.2275 293.787C95.4913 292.807 91.5547 294.199 89.0958 294.581C88.7453 294.635 88.4655 295.129 88.1479 295.413C79.0284 303.586 78.0469 313.252 85.18 323.511C88.5767 328.396 91.195 333.757 90.2135 339.839C88.2212 352.187 82.5747 362.68 72.74 370.592C69.9149 372.865 66.6914 374.82 63.3582 376.23C60.3241 377.514 57.0627 376.763 54.755 374.178C52.5758 371.737 52.5659 368.879 53.6482 365.802C55.5154 360.495 59.2786 357.373 64.5106 355.917C67.5172 355.081 68.2434 353.312 68.4128 350.296C68.5956 347.041 69.9723 343.864 70.7151 340.627C71.051 339.163 71.1132 337.636 71.2995 336.138C69.5104 336.403 66.7935 336.043 66.1133 337.054C64.3565 339.665 63.1567 342.795 62.3845 345.88C61.6874 348.666 60.8897 350.75 58.0141 352.096C51.4412 355.173 48.1219 360.758 47.106 367.818C46.9328 369.021 46.7631 370.225 46.5903 371.438C41.1024 370.436 38.1589 365.815 39.6549 360.738C41.2431 355.348 45.11 352.042 49.9361 349.42C51.3954 348.627 53.2992 345.853 52.8876 344.875C50.4125 338.996 53.418 335.483 57.2793 331.884C58.2152 331.011 58.1889 329.107 58.605 327.677C56.9223 327.618 54.7763 326.88 53.6542 327.644C51.3748 329.197 48.1599 331.423 47.9552 333.617C47.1147 342.629 41.0621 348.171 35.8768 354.443C34.4318 356.191 33.6984 358.527 32.5356 360.794C27.5779 354.967 28.4901 347.687 34.6416 343.982C38.8639 341.439 41.3542 338.814 41.1046 333.321C40.8148 326.943 47.0571 320.591 53.3997 319.379C58.2423 318.453 58.9681 317.658 56.7863 313.173C50.1443 299.52 57.9111 279.355 69.4894 271.398C71.3554 270.115 73.2286 268.76 74.77 267.128C75.4367 266.422 75.799 264.574 75.3394 263.886C74.8206 263.109 73.0496 262.509 72.1288 262.8C70.2771 263.385 68.45 264.401 66.9313 265.632C52.7468 277.132 45.5572 291.478 49.2595 310.091C49.7697 312.656 49.1404 313.916 46.7249 315.485C43.2552 317.739 38.9058 320.686 37.8567 324.209C35.3877 332.499 31.2726 339.19 25.3754 345.397C21.9186 349.034 20.2947 349.974 16.7516 346.303C8.19958 337.442 8.85895 321.336 18.7514 313.99C23.895 310.171 30.1656 307.88 35.8807 304.812C37.6597 303.857 39.2863 302.618 40.9827 301.509C39.7341 299.922 38.5163 298.309 37.2165 296.764C36.8684 296.351 36.2415 296.186 35.7913 295.843C30.0052 291.435 27.7476 281.843 31.064 275.809C34.8646 268.894 43.9797 264.53 51.7312 265.915C61.7456 267.704 61.6094 267.724 60.0866 257.813C58.2809 246.059 63.5607 229.624 82.1051 228.246C88.8707 227.743 94.6178 229.857 99.8042 234.129C100.967 235.086 102.849 235.172 104.4 235.658C104.75 234.123 105.45 232.57 105.377 231.055C105.226 227.943 104.424 224.86 104.303 221.75C103.361 197.497 111.487 176.514 126.632 157.717C153.639 124.197 205.641 121.407 236.087 144.147C238.813 146.183 241.268 148.582 244.674 151.525C235.5 152.943 228.903 155.99 224.208 162.539C214.743 175.741 212.811 190.74 213.821 206.338C214.489 216.637 216.043 215.114 204.849 216.789C203.781 216.949 202.155 215.543 201.317 214.456C200.505 213.404 200.409 211.812 199.941 210.478C194.654 195.396 187.551 181.472 174.711 171.254C159.659 159.277 142.223 160.575 131.258 175.472C126.832 181.486 123.242 188.838 121.659 196.101C114.565 228.657 121.335 258.446 142.115 284.656C147.657 291.648 154.879 296.869 163.847 298.919C177.525 302.046 190.139 295.348 197.395 281.535C203.59 269.743 205.66 257.079 205.269 243.998C205.121 239.028 206.504 235.821 210.765 233.063C221.911 225.849 233.998 221.737 247.201 221.568C252.186 221.505 257.362 222.486 262.136 223.991C266.371 225.326 267.412 228.528 264.71 232.035C261.756 235.87 258.102 239.519 254.014 242.059C242.169 249.421 228.974 252.468 215.062 252.771C213.656 252.802 212.284 254.348 210.896 255.192C212.295 256.272 213.587 258.048 215.115 258.282C217.875 258.705 220.817 258.473 223.608 258.033C228.105 257.325 231.22 259.106 233.938 262.481C236.245 265.347 238.663 268.199 241.423 270.609C249.761 277.889 259.165 282.205 270.374 278.34C279.516 275.189 284.491 267.708 288.033 259.222C289.214 256.39 290.532 253.56 293.918 254.353C296.865 255.044 300.532 256.321 302.041 258.572C303.934 261.394 304.388 265.439 304.675 269.019C305.139 274.801 306.058 275.709 311.415 273.952C328.211 268.44 345.934 280.622 346.21 298.264C346.274 302.352 344.622 306.538 343.37 310.557C341.831 315.5 342.03 316.027 347.248 316.877C355.356 318.197 362.98 320.737 369.299 326.228C378.063 333.843 377.886 343.687 368.76 350.839C366.212 352.835 363.222 354.267 359.823 356.178ZM474.378 245.139C473.069 225.594 471.759 206.049 470.425 186.149C491.747 183.663 512.59 181.232 533.731 178.767C534.083 180.469 534.456 181.953 534.692 183.459C538.525 207.889 542.259 232.336 546.251 256.741C546.817 260.196 545.733 261.091 542.67 261.82C527.599 265.403 512.588 269.24 497.546 272.943C490.706 274.628 483.841 276.212 476.601 277.934C475.869 266.882 475.175 256.407 474.378 245.139ZM342.951 201.57C347.469 197.359 352.91 195.589 358.647 197.709C365.739 200.329 370.576 205.896 371.42 213.387C371.891 217.566 370.698 222.503 368.682 226.253C365.881 231.466 359.69 231.03 356.058 226.286C353.355 222.756 353.833 218.919 354.193 214.897C354.318 213.493 352.969 211.957 352.293 210.481C351.004 211.585 348.8 212.547 348.601 213.821C348.068 217.242 347.39 221.201 348.604 224.206C350.556 229.037 349.541 232.326 346.564 236.171C339.226 245.649 339.18 257.927 348.936 265.824C349.863 266.574 350.009 268.287 350.518 269.554C348.915 269.98 346.956 271.2 345.782 270.673C343.123 269.479 340.928 267.297 338.406 265.743C332.603 262.169 331.054 257.115 332.712 250.724C335.083 241.581 335.731 232.362 335.059 222.874C334.509 215.119 336.177 207.563 342.951 201.57ZM428.884 169.841C432.682 169.332 436.472 168.752 440.279 168.33C449.167 167.346 449.074 167.389 448.97 176.447C448.938 179.212 447.93 180.168 445.311 180.4C419.276 182.706 393.249 185.095 367.217 187.426C365.969 187.538 364.693 187.324 363.43 187.262C363.161 186.756 362.892 186.25 362.623 185.745C365.287 183.426 367.875 181.01 370.648 178.829C372.151 177.647 373.89 176.225 375.659 176.005C393.126 173.828 410.622 171.881 428.884 169.841ZM319.777 455.155C304.057 455.949 288.283 457.91 272.631 457.198C258.147 456.54 243.774 453.133 229.401 450.65C227.096 450.252 223.325 449.701 224.171 445.897C225.014 442.104 228.195 443.987 230.556 444.203C230.976 444.241 231.391 444.366 231.8 444.481C250.953 449.885 270.546 451.798 290.345 451.128C309.505 450.48 328.597 449.07 345.949 439.419C347.194 438.726 349.342 439.657 351.07 439.832C350.41 441.461 350.22 443.731 349.015 444.615C340.551 450.818 330.488 452.849 319.777 455.155ZM388.589 205.694C385.991 206.908 375.996 205.052 374.046 202.886C371.515 200.075 369.087 197.172 366.254 193.89C369.287 193.526 372.025 193.13 374.777 192.878C397.531 190.789 420.288 188.749 443.04 186.643C449.707 186.026 449.939 186.144 450.253 192.92C450.303 194.001 450.159 195.092 450.09 196.494C442.643 197.116 435.459 197.823 428.26 198.264C425.323 198.443 422.344 198.132 419.397 197.888C414.482 197.483 409.553 196.4 404.674 196.61C398.276 196.886 392.417 199.04 388.589 205.694ZM119.021 457.112C115.15 456.226 111.192 455.594 107.457 454.313C106.159 453.869 105.411 451.819 104.413 450.503C105.966 449.849 107.481 448.803 109.082 448.651C110.705 448.496 112.408 449.244 114.082 449.56C129.911 452.548 145.826 454.446 161.946 452.637C168.276 451.926 174.538 450.589 180.873 449.945C182.365 449.793 184.025 451.29 185.607 452.028C184.536 453.312 183.634 454.818 182.337 455.805C181.393 456.522 179.942 456.628 178.691 456.878C159.07 460.791 139.42 460.186 119.021 457.112ZM394.944 222.02C396.847 222.542 398.883 222.792 400.624 223.644C403.943 225.271 406.539 227.747 406.445 231.789C406.357 235.578 403.657 237.598 400.513 238.817C393.852 241.402 387.206 240.889 380.665 238.177C377.399 236.823 375 234.616 375.091 230.93C375.185 227.118 376.982 223.719 380.884 222.946C385.227 222.085 389.766 222.216 394.944 222.02ZM423.024 215.212C415.316 219.544 403.461 218.797 396.804 213.56C393.375 210.863 393.602 207.397 397.367 204.948C403.731 200.811 417.505 201.781 423.219 206.77C426.673 209.786 426.72 211.201 423.024 215.212ZM189.228 216.046C190.383 220.864 191.839 225.64 192.52 230.524C192.738 232.095 190.912 233.951 190.022 235.677C188.773 234.415 187.448 233.216 186.317 231.856C185.917 231.375 186.064 230.474 185.838 229.807C182.804 220.846 180.102 211.749 176.55 202.997C174.715 198.477 171.201 194.662 168.801 190.332C168.153 189.162 168.804 187.273 168.858 185.714C170.392 185.924 172.137 185.753 173.401 186.452C174.677 187.158 175.756 188.585 176.439 189.939C180.702 198.387 184.83 206.903 189.228 216.046ZM276.774 214.702C274.341 207.615 272.425 200.291 269.322 193.51C266.453 187.238 262.17 181.626 258.839 175.543C258.069 174.137 258.643 171.995 258.599 170.191C260.335 170.688 262.095 171.118 263.791 171.726C264.231 171.884 264.46 172.609 264.8 173.063C273.943 185.297 280.262 198.83 283.264 213.822C283.805 216.526 285.393 220.518 281.214 221.352C277.106 222.172 277.791 217.83 276.774 214.702ZM371.705 257.563C368.197 254.867 364.414 252.452 361.277 249.377C359.171 247.312 360.398 244.982 362.739 243.349C366.322 240.848 369.955 241.495 373.675 242.917C377.768 244.481 381.925 245.885 385.973 247.556C387.631 248.241 390.459 249.659 390.348 250.37C390.059 252.227 388.773 254.258 387.294 255.539C382.886 259.357 377.632 258.945 371.705 257.563ZM141.267 388.595C146.166 388.078 151.06 387.285 155.965 387.218C157.377 387.199 159.876 389.149 160.025 390.414C160.337 393.068 157.867 393.714 155.573 393.566C145.48 392.919 136.633 396.161 128.518 401.931C126.647 403.262 124.08 404.655 122.741 401.855C122.185 400.691 123.507 397.545 124.838 396.755C129.897 393.754 135.308 391.348 141.267 388.595ZM466.147 177.932C477.844 176.434 489.538 174.91 501.24 173.448C510.406 172.302 519.576 171.171 528.761 170.186C530.465 170.003 532.247 170.545 533.994 170.753C533.942 171.209 533.891 171.666 533.84 172.122C533.188 172.316 532.549 172.607 531.884 172.689C507.655 175.679 483.425 178.664 459.187 181.578C458.051 181.714 456.836 181.189 455.657 180.972C455.662 180.453 455.667 179.934 455.672 179.416C458.911 178.95 462.15 178.484 466.147 177.932ZM124.389 374.876C123.524 374.252 122.659 373.628 121.718 372.949C127.158 368.233 142.628 370.325 146.4 376.554C138.873 379.297 131.938 377.51 124.389 374.876ZM238.976 381.78C237.602 381.159 236.228 380.538 234.742 379.867C239.726 374.385 252.071 373.924 257.725 379.025C252.158 383.524 246.018 383.296 238.976 381.78ZM355.264 185.598C354.345 184.204 352.888 182.881 352.691 181.392C352.556 180.361 354.031 178.278 355.013 178.126C356.73 177.86 358.621 178.717 361.176 179.261C358.776 181.924 357.268 183.598 355.264 185.598ZM540.401 170.34C540.693 169.083 540.985 167.826 541.277 166.569C541.799 166.517 542.322 166.466 542.844 166.414C543.304 168.186 543.911 169.94 544.131 171.741C544.196 172.267 543.159 172.928 542.627 173.527C541.899 172.672 541.171 171.817 540.401 170.34Z" fill="#1F1F1E"/>
    <path d="M360.129 356.068C363.222 354.267 366.212 352.835 368.76 350.838C377.886 343.687 378.063 333.843 369.299 326.228C362.98 320.737 355.355 318.196 347.248 316.877C342.03 316.027 341.83 315.5 343.37 310.557C344.622 306.538 346.274 302.352 346.21 298.264C345.934 280.622 328.211 268.44 311.415 273.952C306.058 275.709 305.138 274.801 304.675 269.019C304.388 265.439 303.934 261.394 302.041 258.572C300.532 256.321 296.865 255.044 293.918 254.353C290.532 253.56 289.214 256.39 288.032 259.221C284.49 267.708 279.516 275.189 270.374 278.34C259.165 282.205 249.761 277.889 241.423 270.609C238.663 268.199 236.245 265.347 233.938 262.481C231.22 259.106 228.105 257.325 223.607 258.033C220.817 258.473 217.875 258.705 215.115 258.282C213.587 258.047 212.295 256.272 210.896 255.192C212.284 254.348 213.656 252.802 215.062 252.771C228.974 252.468 242.169 249.421 254.014 242.059C258.102 239.519 261.756 235.87 264.71 232.035C267.412 228.528 266.371 225.326 262.136 223.991C257.362 222.486 252.186 221.505 247.201 221.568C233.998 221.737 221.911 225.849 210.765 233.063C206.504 235.821 205.121 239.028 205.269 243.998C205.66 257.079 203.59 269.742 197.395 281.535C190.139 295.348 177.525 302.046 163.846 298.919C154.879 296.869 147.657 291.648 142.115 284.656C121.335 258.446 114.564 228.657 121.659 196.101C123.241 188.837 126.831 181.486 131.258 175.472C142.223 160.575 159.659 159.277 174.71 171.254C187.551 181.472 194.654 195.395 199.941 210.478C200.409 211.812 200.505 213.403 201.317 214.456C202.155 215.543 203.781 216.949 204.849 216.789C216.042 215.114 214.489 216.637 213.821 206.338C212.811 190.739 214.743 175.741 224.208 162.539C228.903 155.99 235.5 152.943 244.674 151.525C241.268 148.582 238.813 146.183 236.087 144.147C205.641 121.407 153.639 124.197 126.632 157.717C111.487 176.514 103.361 197.497 104.303 221.75C104.424 224.86 105.225 227.943 105.376 231.055C105.45 232.57 104.75 234.123 104.4 235.658C102.849 235.172 100.967 235.086 99.8041 234.129C94.6177 229.857 88.8706 227.743 82.105 228.246C63.5606 229.624 58.2808 246.059 60.0865 257.813C61.6093 267.724 61.7455 267.704 51.7311 265.915C43.9796 264.53 34.8645 268.894 31.0638 275.809C27.7474 281.843 30.0052 291.435 35.7911 295.843C36.2414 296.186 36.8683 296.351 37.2164 296.764C38.5162 298.309 39.734 299.922 40.9825 301.509C39.2862 302.618 37.6596 303.857 35.8806 304.812C30.1656 307.88 23.8948 310.171 18.7513 313.99C8.85883 321.336 8.19946 337.442 16.7515 346.303C20.2946 349.974 21.9185 349.034 25.3753 345.397C31.2726 339.19 35.3876 332.499 37.8566 324.209C38.9057 320.686 43.2551 317.739 46.7249 315.485C49.1403 313.916 49.7696 312.656 49.2594 310.091C45.5571 291.478 52.7467 277.132 66.9312 265.632C68.4499 264.401 70.2769 263.385 72.1287 262.8C73.0495 262.509 74.8205 263.109 75.3393 263.886C75.7989 264.574 75.4366 266.422 74.7698 267.128C73.2285 268.76 71.3553 270.115 69.4893 271.398C57.911 279.355 50.1442 299.52 56.7861 313.173C58.968 317.658 58.2422 318.453 53.3996 319.379C47.057 320.591 40.8147 326.943 41.1045 333.321C41.3541 338.814 38.8638 341.439 34.6415 343.982C28.49 347.687 27.5778 354.967 32.5356 360.794C33.6984 358.527 34.4317 356.191 35.8767 354.443C41.062 348.171 47.1146 342.629 47.9551 333.617C48.1597 331.423 51.3747 329.197 53.6541 327.644C54.7762 326.879 56.9222 327.618 58.6049 327.677C58.1888 329.107 58.2151 331.011 57.2792 331.884C53.4179 335.483 50.4124 338.996 52.8875 344.875C53.2991 345.853 51.3953 348.627 49.936 349.42C45.1099 352.042 41.243 355.348 39.6548 360.738C38.1588 365.815 41.1022 370.436 46.5902 371.438C46.763 370.225 46.9327 369.021 47.1059 367.818C48.1219 360.757 51.4411 355.173 58.014 352.096C60.8896 350.75 61.6873 348.666 62.3844 345.88C63.1566 342.795 64.3564 339.665 66.1132 337.054C66.7934 336.043 69.5103 336.403 71.2994 336.138C71.113 337.636 71.0508 339.163 70.715 340.627C69.9722 343.864 68.5955 347.041 68.4128 350.296C68.2433 353.312 67.5171 355.081 64.5105 355.917C59.2785 357.373 55.5153 360.495 53.6481 365.802C52.5658 368.879 52.5757 371.737 54.7549 374.178C57.0626 376.763 60.324 377.514 63.3581 376.23C66.6913 374.82 69.9148 372.865 72.7399 370.592C82.5746 362.68 88.2211 352.187 90.2134 339.839C91.1949 333.757 88.5766 328.396 85.1799 323.511C78.0468 313.252 79.0283 303.586 88.1478 295.413C88.4654 295.129 88.7452 294.635 89.0956 294.581C91.5546 294.199 95.4912 292.807 96.2274 293.787C98.6404 297 95.0052 298.173 92.871 299.562C86.5652 303.666 84.8069 311.892 88.8797 318.15C90.6525 320.874 92.5862 323.558 93.8946 326.506C96.7376 332.91 97.8703 339.525 95.1745 346.382C94.1953 348.873 93.5934 351.512 92.8311 354.045C93.1829 354.284 93.4355 354.598 93.6275 354.565C97.1275 353.955 106.62 354.847 110.105 356.114C125.497 361.71 141.447 362.625 157.601 361.679C167.616 361.092 177.236 359.147 186.276 354.373C188.073 353.424 191.679 354.241 193.623 355.51C202.768 361.481 212.674 364.818 223.491 365.965C238.88 367.597 253.489 364.672 267.524 358.634C272.818 356.357 277.669 353.062 282.908 350.635C284.553 349.873 287.323 349.62 288.708 350.501C311.152 364.789 334.701 364.824 359.005 356.424C359.274 356.332 359.55 356.26 360.129 356.068Z" fill="#F7F3F0"/>
    <path d="M474.43 245.535C475.175 256.407 475.869 266.882 476.601 277.933C483.841 276.212 490.706 274.627 497.546 272.943C512.588 269.239 527.599 265.403 542.67 261.82C545.733 261.091 546.817 260.196 546.251 256.74C542.259 232.336 538.525 207.889 534.692 183.458C534.456 181.953 534.083 180.469 533.731 178.767C512.59 181.232 491.747 183.662 470.425 186.149C471.759 206.049 473.069 225.594 474.43 245.535Z" fill="#F4F0ED"/>
    <path d="M342.703 201.752C336.178 207.563 334.51 215.118 335.059 222.874C335.731 232.362 335.084 241.581 332.712 250.724C331.054 257.115 332.604 262.168 338.406 265.743C340.929 267.297 343.123 269.479 345.782 270.673C346.957 271.2 348.916 269.98 350.518 269.553C350.01 268.287 349.863 266.574 348.937 265.824C339.18 257.927 339.226 245.649 346.564 236.171C349.541 232.326 350.556 229.036 348.605 224.206C347.39 221.201 348.068 217.242 348.601 213.821C348.8 212.547 351.004 211.585 352.294 210.481C352.969 211.957 354.319 213.493 354.193 214.896C353.833 218.919 353.355 222.756 356.058 226.286C359.691 231.03 365.881 231.466 368.683 226.253C370.698 222.502 371.891 217.566 371.421 213.387C370.577 205.896 365.739 200.329 358.648 197.708C352.911 195.588 347.469 197.359 342.703 201.752Z" fill="#F2EEEA"/>
    <path d="M428.497 169.855C410.623 171.881 393.127 173.828 375.659 176.005C373.89 176.225 372.151 177.647 370.648 178.829C367.875 181.01 365.288 183.427 362.623 185.745C362.892 186.251 363.161 186.756 363.43 187.262C364.693 187.324 365.969 187.538 367.217 187.426C393.249 185.095 419.277 182.706 445.311 180.4C447.93 180.168 448.938 179.212 448.97 176.447C449.074 167.389 449.167 167.346 440.279 168.33C436.472 168.752 432.682 169.332 428.497 169.855Z" fill="#F1EDE9"/>
    <path d="M320.131 455.053C330.488 452.849 340.552 450.818 349.015 444.615C350.221 443.731 350.411 441.461 351.071 439.832C349.343 439.657 347.195 438.726 345.949 439.419C328.597 449.07 309.505 450.48 290.345 451.128C270.546 451.798 250.953 449.885 231.801 444.481C231.392 444.366 230.976 444.241 230.556 444.203C228.196 443.987 225.014 442.104 224.171 445.897C223.326 449.701 227.097 450.252 229.401 450.65C243.774 453.133 258.147 456.54 272.632 457.198C288.284 457.91 304.057 455.949 320.131 455.053Z" fill="#EBE7E6"/>
    <path d="M388.773 205.422C392.417 199.039 398.276 196.886 404.674 196.61C409.553 196.4 414.482 197.482 419.397 197.888C422.344 198.132 425.323 198.443 428.26 198.263C435.459 197.823 442.643 197.116 450.09 196.494C450.159 195.092 450.303 194.001 450.253 192.92C449.939 186.144 449.707 186.026 443.04 186.643C420.288 188.749 397.531 190.789 374.778 192.878C372.026 193.13 369.287 193.526 366.254 193.89C369.087 197.172 371.515 200.075 374.046 202.886C375.996 205.052 385.991 206.908 388.773 205.422Z" fill="#F1ECE8"/>
    <path d="M119.39 457.161C139.42 460.186 159.07 460.791 178.691 456.878C179.942 456.628 181.393 456.522 182.337 455.805C183.634 454.819 184.536 453.312 185.607 452.028C184.025 451.29 182.365 449.793 180.873 449.945C174.538 450.589 168.276 451.926 161.946 452.637C145.826 454.446 129.911 452.548 114.082 449.561C112.408 449.245 110.705 448.496 109.082 448.651C107.481 448.803 105.966 449.849 104.413 450.503C105.411 451.819 106.159 453.869 107.457 454.314C111.192 455.594 115.15 456.226 119.39 457.161Z" fill="#EEEAE9"/>
    <path d="M394.582 221.967C389.766 222.216 385.227 222.085 380.884 222.945C376.982 223.719 375.185 227.117 375.091 230.929C375 234.615 377.399 236.823 380.665 238.177C387.206 240.889 393.852 241.402 400.513 238.817C403.657 237.597 406.357 235.578 406.445 231.789C406.539 227.747 403.943 225.27 400.624 223.644C398.883 222.791 396.847 222.542 394.582 221.967Z" fill="#F2EEEA"/>
    <path d="M423.256 214.999C426.721 211.201 426.673 209.785 423.219 206.769C417.506 201.781 403.731 200.811 397.368 204.948C393.602 207.397 393.375 210.862 396.804 213.56C403.461 218.797 415.316 219.544 423.256 214.999Z" fill="#F0ECE8"/>
    <path d="M189.116 215.722C184.83 206.903 180.702 198.387 176.439 189.939C175.756 188.585 174.677 187.158 173.401 186.452C172.137 185.754 170.392 185.924 168.858 185.714C168.804 187.273 168.153 189.162 168.801 190.332C171.201 194.662 174.715 198.477 176.55 202.997C180.102 211.749 182.804 220.846 185.838 229.807C186.064 230.474 185.917 231.375 186.317 231.856C187.448 233.216 188.773 234.415 190.022 235.677C190.912 233.951 192.738 232.095 192.52 230.524C191.839 225.64 190.383 220.864 189.116 215.722Z" fill="#EAE7E5"/>
    <path d="M276.83 215.045C277.792 217.83 277.106 222.172 281.214 221.352C285.393 220.518 283.805 216.526 283.264 213.822C280.263 198.83 273.943 185.297 264.8 173.063C264.461 172.609 264.231 171.884 263.792 171.726C262.096 171.118 260.335 170.688 258.599 170.191C258.643 171.995 258.069 174.137 258.839 175.543C262.17 181.626 266.453 187.238 269.323 193.51C272.425 200.291 274.341 207.615 276.83 215.045Z" fill="#EEEAE9"/>
    <path d="M372.034 257.67C377.633 258.945 382.887 259.357 387.294 255.539C388.773 254.258 390.059 252.227 390.348 250.37C390.459 249.66 387.631 248.241 385.973 247.556C381.926 245.885 377.768 244.482 373.675 242.917C369.955 241.496 366.322 240.848 362.739 243.349C360.398 244.983 359.172 247.312 361.278 249.377C364.414 252.452 368.198 254.867 372.034 257.67Z" fill="#F2EEEA"/>
    <path d="M140.928 388.658C135.309 391.348 129.897 393.755 124.839 396.755C123.507 397.545 122.185 400.691 122.742 401.855C124.08 404.655 126.647 403.262 128.518 401.931C136.633 396.161 145.481 392.919 155.573 393.567C157.868 393.714 160.337 393.069 160.025 390.414C159.876 389.149 157.377 387.199 155.965 387.218C151.061 387.285 146.166 388.078 140.928 388.658Z" fill="#EBE7E6"/>
    <path d="M465.768 177.975C462.15 178.484 458.911 178.95 455.672 179.415C455.667 179.934 455.662 180.453 455.657 180.972C456.836 181.189 458.051 181.714 459.187 181.577C483.425 178.664 507.655 175.679 531.884 172.689C532.549 172.606 533.188 172.316 533.839 172.122C533.891 171.666 533.942 171.209 533.994 170.753C532.247 170.545 530.465 170.003 528.761 170.185C519.576 171.171 510.406 172.302 501.24 173.447C489.538 174.91 477.844 176.434 465.768 177.975Z" fill="#E2DEDB"/>
    <path d="M124.71 374.974C131.938 377.51 138.873 379.297 146.4 376.554C142.628 370.325 127.158 368.233 121.718 372.949C122.659 373.628 123.524 374.252 124.71 374.974Z" fill="#ECE8E6"/>
    <path d="M239.324 381.85C246.018 383.295 252.158 383.524 257.725 379.025C252.071 373.924 239.727 374.385 234.742 379.867C236.228 380.538 237.602 381.159 239.324 381.85Z" fill="#EAE7E5"/>
    <path d="M355.511 185.434C357.268 183.598 358.776 181.924 361.176 179.261C358.621 178.717 356.73 177.86 355.013 178.126C354.031 178.278 352.556 180.361 352.691 181.392C352.888 182.881 354.345 184.204 355.511 185.434Z" fill="#E0DAD4"/>
    <path d="M540.422 170.651C541.171 171.817 541.899 172.672 542.627 173.527C543.159 172.927 544.196 172.267 544.131 171.741C543.911 169.94 543.304 168.186 542.845 166.414C542.322 166.466 541.799 166.517 541.277 166.569C540.985 167.826 540.693 169.083 540.422 170.651Z" fill="#D2CECC"/>
    <path d="M495.028 144.878C495.933 143.073 496.57 141.42 497.207 139.766C495.272 139.76 492.867 139.002 491.48 139.87C483.21 145.044 475.1 150.488 467.143 156.132C465.997 156.945 465.962 159.326 465.413 160.981C467.187 160.983 469.392 161.673 470.665 160.876C478.811 155.776 486.752 150.349 495.028 144.878Z" fill="#282520"/>
    <path d="M467.99 133.205C465.227 131.336 463.668 133.07 462.476 134.819C459.115 139.749 455.791 144.72 452.831 149.892C452.2 150.994 453.172 153.014 453.406 154.61C454.835 154.129 456.863 154.087 457.591 153.093C461.197 148.168 464.567 143.059 467.76 137.855C468.456 136.72 468.086 134.932 467.99 133.205Z" fill="#2D2922"/>
    <path d="M499.702 230.492C499.327 229.614 499.032 228.618 498.816 227.506C498.665 226.381 498.532 225.524 498.418 224.935C498.614 224.896 498.798 224.793 498.969 224.624C499.205 224.442 499.487 224.319 499.814 224.256C500.168 223.983 500.549 223.671 500.956 223.32C501.416 222.892 501.791 222.547 502.08 222.287C502.631 221.976 503.071 221.619 503.4 221.216C503.794 220.799 504.123 220.396 504.387 220.005L505.336 218.598C505.783 218.104 506.172 217.485 506.503 216.741C506.834 215.998 507.21 215.313 507.632 214.688C508.054 214.063 508.214 213.488 508.112 212.965C508.299 212.181 508.434 211.476 508.516 210.849C508.663 210.209 508.784 209.608 508.878 209.047C508.84 208.85 508.744 208.529 508.589 208.084C508.488 207.561 508.438 207.129 508.44 206.789C508.363 206.396 508.3 206.069 508.249 205.807C508.198 205.546 508.042 205.27 507.783 204.981C507.706 204.588 507.525 204.182 507.24 203.762C506.942 203.277 506.604 202.935 506.226 202.737C505.835 202.473 505.502 202.334 505.228 202.32C504.941 202.24 504.661 202.022 504.388 201.668C503.997 201.404 503.527 201.258 502.978 201.229C502.429 201.2 501.86 201.242 501.271 201.357C500.682 201.471 500.1 201.619 499.523 201.798C499 201.9 498.548 202.022 498.168 202.164C497.514 202.291 496.839 202.66 496.142 203.271C495.421 203.751 494.639 204.446 493.797 205.356C493.021 206.254 492.364 206.892 491.826 207.268C491.6 207.855 491.323 208.35 490.994 208.754C490.665 209.157 490.361 209.692 490.083 210.357C490.016 210.71 489.824 211.121 489.508 211.589C489.244 211.98 489 212.469 488.774 213.056C488.694 213.344 488.647 213.624 488.632 213.899C488.683 214.161 488.682 214.331 488.63 214.409C488.237 214.485 487.864 214.49 487.512 214.422C487.368 214.382 487.224 214.342 487.081 214.302C486.924 214.197 486.774 214.124 486.631 214.084C486.278 214.017 485.808 213.871 485.221 213.645C484.699 213.407 484.191 213.234 483.694 213.127C483.498 213.165 483.322 213.132 483.165 213.026L482.931 212.868C482.92 212.463 482.902 212.194 482.876 212.064C482.916 211.92 482.963 211.809 483.015 211.731C483.059 210.907 483.2 210.235 483.438 209.713C483.742 209.179 484.033 208.579 484.311 207.914C484.378 207.561 484.484 207.235 484.63 206.935C484.775 206.635 484.908 206.269 485.028 205.839C485.028 205.839 485.094 205.656 485.227 205.291C485.425 204.912 485.617 204.502 485.803 204.058C486.053 203.602 486.278 203.185 486.476 202.807C486.727 202.35 486.879 202.083 486.932 202.005C487.457 201.563 487.884 201.141 488.213 200.737C488.595 200.255 489.061 199.859 489.612 199.548C489.901 199.288 490.196 199.061 490.498 198.867C490.853 198.594 491.109 198.341 491.267 198.106C491.753 197.808 492.264 197.471 492.802 197.094C493.328 196.653 493.852 196.381 494.376 196.279C494.834 196.19 495.24 196.009 495.595 195.737C496.015 195.451 496.434 195.336 496.852 195.391C497.572 195.251 498.121 195.11 498.501 194.968C498.934 194.748 499.379 194.594 499.838 194.505C500.975 194.419 502.067 194.445 503.112 194.581C504.158 194.718 505.255 194.776 506.406 194.756C506.602 194.718 506.805 194.712 507.014 194.739C507.211 194.701 507.426 194.761 507.66 194.92C508.993 195.136 510.128 195.56 511.066 196.193C511.431 196.326 511.803 196.491 512.181 196.689C512.612 196.809 512.957 197.014 513.217 197.303C513.659 197.828 514.127 198.315 514.621 198.762C515.116 199.209 515.617 199.689 516.124 200.202C516.591 200.858 516.986 201.494 517.31 202.11C517.633 202.727 517.963 203.376 518.299 204.057C518.57 204.752 518.769 205.426 518.897 206.081C519.024 206.735 519.092 207.435 519.101 208.18L519.158 208.475C519.14 209.429 519.148 210.344 519.182 211.22C519.27 212.019 519.22 212.809 519.032 213.593C518.82 214.245 518.633 214.859 518.473 215.433C518.366 215.929 518.101 216.49 517.68 217.116C517.416 217.506 517.152 217.897 516.889 218.288C516.678 218.601 516.244 218.991 515.588 219.458C515.168 219.743 514.761 220.094 514.367 220.51C513.959 220.861 513.552 221.212 513.145 221.563C513.903 221.619 514.647 221.78 515.378 222.045C516.096 222.245 516.769 222.386 517.396 222.468C518.141 222.459 518.879 222.587 519.61 222.853C520.393 223.04 521.085 223.279 521.685 223.57C521.919 223.728 522.219 223.874 522.585 224.006C522.937 224.074 523.231 224.186 523.465 224.344C524.065 224.635 524.606 224.972 525.088 225.353C525.635 225.722 526.175 226.229 526.707 226.872C526.864 226.978 527.026 227.116 527.195 227.287C527.43 227.445 527.566 227.622 527.604 227.818L529.221 229.847C529.557 230.529 529.802 231.262 529.954 232.048C530.16 232.755 530.339 233.501 530.491 234.286C531.06 235.466 531.336 236.533 531.317 237.488C531.286 238.377 531.262 239.298 531.244 240.253C531.32 240.645 531.318 240.985 531.238 241.272C531.145 241.494 531.112 241.67 531.137 241.801C531.123 242.076 531.068 242.494 530.974 243.056C530.879 243.617 530.752 244.185 530.592 244.76C530.484 245.256 530.338 245.726 530.153 246.169C530.02 246.535 529.888 246.73 529.757 246.756C529.232 247.197 528.791 247.724 528.435 248.337C528.156 249.002 527.774 249.654 527.287 250.292C527.128 250.526 526.793 250.897 526.28 251.404C525.833 251.899 525.288 252.412 524.644 252.945C524.066 253.465 523.443 253.926 522.774 254.327C522.117 254.794 521.488 255.052 520.887 255.102C520.401 255.4 519.864 255.606 519.275 255.72C518.764 255.888 518.345 256.003 518.018 256.067C517.284 256.481 516.439 256.679 515.485 256.661C514.596 256.63 513.706 256.769 512.816 257.078L509.772 257.669C508.818 257.651 507.864 257.633 506.909 257.615C505.968 257.662 505.006 257.781 504.025 257.972C503.463 257.877 502.848 257.861 502.181 257.923C501.58 257.972 500.9 257.968 500.142 257.911C499.711 257.791 499.293 257.737 498.887 257.748C498.548 257.746 498.169 257.718 497.75 257.663L495.362 256.905L494.969 256.981C494.015 256.963 493.14 256.828 492.343 256.575C491.625 256.375 490.849 256.05 490.015 255.601C489.742 255.247 489.529 254.847 489.374 254.402C489.22 253.956 489.006 253.556 488.733 253.202C488.526 252.835 488.371 252.559 488.267 252.376C488.151 252.126 487.956 251.825 487.684 251.47L487.607 251.078C487.557 250.816 487.76 250.64 488.218 250.551C488.415 250.513 488.728 250.554 489.159 250.674C489.577 250.729 490.034 250.81 490.53 250.917C491.092 251.011 491.621 251.112 492.117 251.22C492.666 251.249 493.104 251.232 493.432 251.168C494.046 251.184 494.634 251.24 495.196 251.334C495.81 251.351 496.379 251.308 496.903 251.206C497.334 251.326 497.719 251.387 498.059 251.389C498.452 251.313 498.844 251.236 499.237 251.16C500.426 251.336 501.648 251.337 502.904 251.16C504.148 250.919 505.307 250.591 506.381 250.179C507.063 249.843 507.698 249.617 508.287 249.503C508.929 249.31 509.511 249.163 510.035 249.061C510.756 248.581 511.544 248.089 512.396 247.583C513.236 247.013 513.913 246.304 514.428 245.457C514.888 245.028 515.428 244.312 516.048 243.308C515.997 243.046 516.223 242.289 516.727 241.037C516.859 240.672 516.888 240.293 516.811 239.9C516.735 239.507 516.671 239.18 516.62 238.918L516.029 235.875C515.773 234.906 515.391 234.166 514.884 233.653C514.364 233.075 513.726 232.588 512.97 232.191C512.735 232.033 512.435 231.888 512.07 231.755C511.77 231.609 511.503 231.458 511.268 231.299C510.916 231.232 510.589 231.126 510.289 230.98C509.99 230.835 509.624 230.702 509.193 230.582C508.684 230.41 508.084 230.289 507.391 230.219C506.764 230.138 506.117 230.128 505.45 230.189C504.835 230.173 504.26 230.183 503.724 230.219C503.175 230.19 502.796 230.162 502.587 230.135C502.259 230.198 501.959 230.223 501.684 230.208C501.475 230.181 501.135 230.179 500.664 230.203C500.481 230.306 500.33 230.404 500.212 230.494C499.923 230.754 499.753 230.753 499.702 230.492Z" fill="black"/>
    <path d="M94.4384 133.426L95.6106 135.538C94.9453 134.232 94.4384 133.426 94.4384 133.426Z" fill="white"/>
    <path d="M126.481 95.2444L124.934 96.5064C124.77 96.6371 124.581 96.8317 124.417 96.9623C125.19 96.4364 125.871 95.8499 126.481 95.2444Z" fill="#0D0D0D"/>
    <path d="M111.484 100.41C107.34 99.9782 103.602 98.1474 99.5786 97.1864C91.4132 95.2679 82.0807 97.1025 75.3564 102.04C87.7259 102.476 100.048 102.934 112.417 103.37C115.307 103.458 117.317 102.603 119.213 101.332L124.23 97.1566C120.577 99.6332 115.884 100.877 111.484 100.41Z" fill="#0D0D0D"/>
    <path d="M124.417 96.9623C124.581 96.8317 124.77 96.6371 124.934 96.5064L124.207 97.1152C124.301 97.0705 124.324 97.007 124.417 96.9623Z" fill="#0D0D0D"/>
    <path d="M160.274 25.4798C160.274 25.4798 156.548 18.7713 145.237 13.9544C133.925 9.13747 107.009 16.0624 95.5823 26.5958C84.1568 37.1289 88.5926 48.632 84.8137 52.1634C81.0134 55.6533 60.5416 63.7456 53.6128 80.6717C46.6825 97.598 56.8066 105.496 56.8038 108.902C56.8024 112.308 48.3685 124.818 55.7793 143.387C63.19 161.956 89.3717 153.706 95.4644 149.122C99.8693 145.763 97.3334 138.959 95.6122 135.537L94.4384 133.426C94.4384 133.426 94.9453 134.232 95.6122 135.537L111.247 163.697C111.247 163.697 124.469 168.44 153.705 153.651C182.941 138.863 192.908 123.891 192.908 123.891L174.628 90.97C174.628 90.97 189.094 78.9862 190.678 69.6921C192.285 60.4394 188.603 41.7674 181.138 33.4385C173.51 25.1349 160.274 25.4798 160.274 25.4798Z" fill="white"/>
    <path d="M160.274 25.4798C160.274 25.4798 156.548 18.7713 145.237 13.9544C133.925 9.13747 107.008 16.0626 95.5823 26.5958C93.9398 28.1129 92.648 29.6199 91.5643 31.1847C96.4453 29.6412 101.739 29.0532 106.862 29.4373C116.596 30.2403 125.581 34.491 132.668 40.3287C137.926 44.6821 142.288 50.1959 143.428 56.6185C144.568 63.0413 141.789 70.3919 135.494 73.8668C131.739 68.2731 127.866 62.5779 121.93 58.8106C116.061 55.0626 107.567 53.7206 101.318 57.3834C102.575 63.9079 108.6 68.4714 112.87 73.7144C117.142 78.9572 119.504 87.1541 114.041 91.8041C109.094 95.9983 101.439 94.4651 94.8023 94.0178C84.6931 93.3934 74.2563 96.3309 66.1282 102.043C66.2126 106.35 71.9043 108.716 76.661 108.227C81.4176 107.738 85.8161 105.43 90.5519 104.584C95.2892 103.738 101.104 105.049 102.378 109.155C103.039 111.197 102.6 113.922 104.619 115.001C106.219 115.861 108.369 115.045 110.03 114.2C120.273 109.207 130.562 104.193 140.828 99.2416C143.704 97.8166 146.861 96.3627 150.097 96.6518C152.822 96.8706 155.165 98.3195 157.25 99.8387C162.512 103.667 166.95 108.463 170.171 113.84C170.77 114.812 171.321 115.911 171.103 117.01C170.91 117.941 170.229 118.737 169.525 119.387C165.558 123.218 160.296 125.676 155.314 128.316C144.508 133.997 134.459 140.939 125.5 148.88C124.562 149.748 123.576 150.637 123.079 151.765C122.415 153.339 122.844 155.073 123.509 156.589C124.631 159.144 126.478 161.3 128.703 163.067C135.121 161.628 143.39 158.835 153.611 153.695C182.847 138.907 192.815 123.936 192.815 123.936L174.535 91.0146C174.535 91.0146 189.001 79.0307 190.585 69.7366C192.192 60.4839 188.508 41.8121 181.044 33.4829C173.51 25.1349 160.274 25.4798 160.274 25.4798Z" fill="white"/>
    <path d="M162.253 22.4398C160.337 19.9489 155.714 14.9261 146.75 11.1373C136.459 6.77586 117.603 10.7449 105.07 16.7256C100.206 19.0466 96.2018 21.6381 93.1989 24.433C85.1045 31.9099 84.1122 39.9263 83.4446 45.2215C83.198 47.0153 82.9227 49.5037 82.3599 49.9819C81.7266 50.546 79.8306 51.7126 77.7722 52.9046C69.6272 57.734 56.0304 65.7414 50.3119 79.6277C44.6394 93.4917 49.515 102.061 52.1129 106.74C52.5739 107.568 53.1478 108.604 53.2619 109.021C53.1647 109.486 52.7828 110.716 52.4259 111.672C50.4271 117.34 46.3322 129.142 52.4853 144.487C54.8635 150.476 59.1913 154.541 65.3032 156.601C75.6003 160.015 87.9539 156.373 93.6591 153.65C95.2022 152.914 96.4898 152.143 97.4971 151.401C98.2467 150.832 98.8819 150.164 99.4448 149.475L108.136 165.128C108.481 165.75 109.061 166.26 109.804 166.533C110.384 166.727 123.818 171.318 151.926 157.904C153 157.392 154.123 156.856 155.176 156.301C184.927 141.267 195.221 126.035 195.692 125.391C196.305 124.471 196.337 123.355 195.831 122.444L178.656 91.5102C182.925 87.6921 192.501 78.3034 193.891 70.0447C195.646 59.6738 191.503 40.1737 183.646 31.4559C176.991 24.0504 166.586 22.6773 162.253 22.4398ZM187.741 63.5504C188.166 66.0194 188.129 67.7653 187.348 69.3426C186.662 70.7703 185.349 72.0258 183.216 73.5144C178.884 76.5773 173.675 78.2771 168.4 79.4322C164.292 80.3448 162.631 78.0991 162.753 74.2694C162.82 71.6185 163.933 69.0441 164.815 66.4758C167.982 57.3693 168.151 47.0211 162.804 39.0961C163.966 42.6799 164.848 46.3975 165.379 50.1252C165.712 52.3233 165.883 54.547 165.703 56.7805C165.107 64.6598 160.047 71.6321 154.364 77.4867C153.049 78.8475 151.567 80.7596 149.905 81.8145C148.009 82.9812 145.395 83.4952 143.292 84.394C140.019 85.8511 136.154 88.5857 132.889 85.7961C131.316 84.4518 130.63 82.4738 129.946 80.6004C127.433 73.7324 124.342 66.5646 118.013 62.1985C115.602 60.5204 112.815 59.3358 110.049 58.2984C118.558 64.0336 124.904 72.2675 127.935 81.5599C129.734 87.1446 129.509 92.2804 124.98 96.4843L126.527 95.2222C125.871 95.8499 125.192 96.4363 124.465 96.9399C124.394 97.0259 124.301 97.0706 124.183 97.1791C122.355 98.6802 120.854 100.13 119.19 101.29L117.244 102.9C113.282 106.1 109.09 108.991 103.997 110.793C118.338 106.149 130.129 96.4891 143.967 90.7244C148.524 88.8116 153.43 87.3092 158.369 87.3619C170.88 87.5206 174.531 97.8263 179.198 106.233C182.44 112.072 185.66 117.869 188.902 123.708C185.75 127.621 174.991 139.355 152.094 150.962C151.041 151.517 150.012 152.009 148.983 152.499C148.796 152.588 148.655 152.655 148.469 152.745C143.191 154.216 136.025 155.906 133.21 155.416C128.487 154.58 131.989 147.251 141.616 140.509C151.242 133.769 186.143 121.829 186.143 121.829C186.143 121.829 149.639 130.133 129.831 143.043C118.685 150.352 114.057 155.336 112.124 158.354C112.338 157.991 110.424 155.289 110.239 154.958C108.791 152.35 107.912 151.407 109.843 148.704C111.091 146.904 112.386 145.186 113.935 143.609C116.471 141.037 119.561 139.038 122.628 136.998C117.122 138.054 111.93 140.741 108.057 144.528C107.822 144.744 107.563 145.025 107.191 145.099C106.98 145.147 106.771 145.089 106.562 145.032C103.842 144.182 102.417 141.615 101.197 139.42C100.094 137.432 98.776 136.123 97.3443 134.396C93.9719 130.453 93.9016 124.253 95.4517 119.48C95.8088 118.419 96.2822 117.355 97.1502 116.574C95.7709 117.285 94.8761 118.55 94.0518 119.729C92.5444 121.915 91.222 124.222 90.5747 126.679C89.7097 130.13 90.893 133.86 92.572 136.883C94.3862 140.575 95.5863 145.083 93.3618 146.721C93.0337 146.982 92.2597 147.509 90.764 148.223C84.7308 151.102 74.9753 153.138 67.9559 150.83C63.7492 149.432 60.7178 146.531 58.9798 142.227C53.6042 128.815 57.1266 118.753 59.0315 113.339C59.7209 111.386 60.1979 110.006 60.2307 108.786C60.2197 107.167 59.4138 105.718 58.356 103.813C55.8953 99.4876 52.1936 92.9254 56.845 81.5913C61.7332 69.7252 74.113 62.4033 81.5084 58.0361C84.1769 56.4486 86.0959 55.3234 87.3151 54.2176C89.591 52.1365 89.9391 49.1415 90.3371 45.7038C90.9566 40.7462 91.7252 34.565 98.0837 28.6499C100.547 26.3744 104.035 24.1334 108.198 22.1474C120.779 16.1442 136.758 13.7052 143.819 16.7264C153.876 20.9896 157.327 26.8857 157.35 26.9271C157.924 27.9625 159.085 28.561 160.367 28.5256C160.483 28.5224 172.065 28.2863 178.444 35.4049C185.376 43.2022 186.042 53.9897 187.741 63.5504Z" fill="#0D0D0D"/>
    <path d="M133.724 17.3C127.484 16.8207 121.085 18.8267 115.91 22.1865C115.254 22.6041 114.575 23.0853 114.244 23.7671C113.912 24.4491 113.977 25.3092 114.625 25.7329C119.72 23.7209 125.739 22.6295 130.64 24.7434C132.591 25.5936 134.19 26.8736 135.788 28.154C137.594 29.5968 139.401 31.0395 141.208 32.4821C142.25 33.2943 143.246 34.1286 144.547 34.5552C145.802 35.0041 147.364 35.0449 148.51 34.3405C149.563 33.6808 150.109 32.5303 150.256 31.4121C150.527 29.4494 149.866 27.5125 148.877 25.8369C145.885 20.8741 139.966 17.779 133.724 17.3Z" fill="#0D0D0D"/>
    <path d="M85.5507 134.786C84.9688 134.802 84.4294 135.111 83.9389 135.398C81.0605 137.033 75.9391 139.529 72.6632 138.211C72.3617 138.093 72.1062 137.953 71.8279 137.772C69.5095 136.154 68.7193 132.707 65.0096 133.377C64.5899 133.473 64.1227 133.591 63.7509 133.454C63.379 133.318 63.1255 132.967 62.9423 132.636C62.3457 131.454 60.9412 122.852 58.3401 127.97C57.6072 129.419 57.5684 131.481 57.6271 132.972C57.6717 136.355 58.7884 139.646 60.889 142.363C64.5588 147.055 71.1335 149.733 77.5682 149.175C81.2988 148.863 85.0603 147.435 87.2944 144.639C89.5287 141.845 89.6537 137.7 87.0378 135.438C86.5975 135.072 86.134 134.769 85.5507 134.786Z" fill="#0D0D0D"/>
</svg>
