<svg width="538" height="571" viewBox="0 0 538 571" fill="none" xmlns="http://www.w3.org/2000/svg">
    <path d="M197.688 132.326C196.682 132.754 195.677 133.182 194.641 133.623C190.453 135.428 186.405 137.479 182.342 139.547C182.342 140.143 182.342 140.738 182.342 141.352C181.811 141.605 181.281 141.857 180.734 142.117C161.804 151.948 148.569 171.975 141.891 191.617C135.609 211.783 137.072 231.753 144.429 251.472C142.94 251.77 141.45 252.068 139.916 252.375C139.916 252.97 139.916 253.566 139.916 254.18C139.283 254.329 138.65 254.478 137.998 254.631C132.98 257.249 129.907 262.424 128.181 267.719C127.926 269.686 127.741 271.663 127.617 273.643C127.516 275.152 127.516 275.152 127.412 276.692C127.309 278.814 127.278 280.939 127.278 283.064C126.616 283.303 125.954 283.543 125.272 283.79C113.828 288.715 108.214 299.103 103.809 310.142C98.2331 325.832 103.722 342.177 110.381 356.546C113.742 363.566 117.523 369.548 122.335 375.688C122.775 376.398 123.214 377.108 123.668 377.839C122.655 380.877 121.858 381.506 119.436 383.48C111.431 390.311 105.822 398.18 104.274 408.828C103.371 420.664 105.183 427.816 112.345 437.359C119.842 445.842 132.28 449.984 143.245 450.726C158.11 451.567 170.269 446.904 182.342 438.315C182.938 437.719 183.534 437.123 184.147 436.509C187.955 436.856 191.39 437.935 194.98 439.217C194.675 439.861 194.37 440.504 194.056 441.167C187.576 455.081 187.47 466.04 192.37 480.432C195.827 489.508 201.019 498.172 206.715 506.011C206.092 506.079 205.47 506.146 204.828 506.216C196.973 507.315 191.593 509.871 186.348 515.884C184.757 519.273 184.445 521.266 185.05 524.966C188.853 529.746 193.029 532.351 199.114 533.056C199.803 533.118 200.493 533.181 201.203 533.245C202.347 533.353 202.347 533.353 203.514 533.463C216.415 534.502 229.413 534.262 242.346 534.228C246.272 534.218 250.199 534.224 254.125 534.234C257.202 534.241 260.279 534.239 263.356 534.234C264.802 534.233 266.248 534.234 267.694 534.239C275.125 534.256 282.471 534.05 289.863 533.244C290.473 533.182 291.082 533.12 291.71 533.055C297.164 532.389 302.006 530.807 306.699 527.973C311.17 526.135 315.471 526.44 320.256 526.507C321.322 526.511 322.388 526.515 323.487 526.519C326.403 526.532 329.318 526.557 332.233 526.586C335.297 526.613 338.36 526.623 341.423 526.633C349.875 526.666 358.326 526.726 366.777 526.786C374.512 526.84 382.246 526.889 389.981 526.916C393.024 526.927 396.066 526.944 399.109 526.975C402.511 527.008 405.913 527.024 409.315 527.036C410.306 527.05 411.296 527.064 412.317 527.078C419.944 527.08 428.031 526.568 434.36 521.976C436.286 519.121 437.04 517.596 436.899 514.135C434.171 509.919 431.663 507.976 426.97 506.011C427.796 504.901 428.624 503.792 429.452 502.683C429.947 502.017 430.441 501.352 430.951 500.666C432.422 498.692 432.422 498.692 434.36 496.59C439.1 489.89 439.412 482.404 438.704 474.42C437.027 465.096 430.968 454.805 423.359 449.146C410.961 441.183 395.123 438.668 380.594 439.387C379.796 439.424 378.998 439.462 378.176 439.501C369.155 440.029 360.277 441.455 351.363 442.884C350.419 443.024 349.475 443.164 348.503 443.309C346.665 443.588 344.833 443.903 343.007 444.254C338.341 445.071 338.341 445.071 334.009 443.588C332.385 442.045 331.088 440.458 329.762 438.653C329.29 438.084 328.818 437.515 328.332 436.929C326.258 434.314 325.044 432.689 324.667 429.324C324.765 428.716 324.864 428.109 324.966 427.483C325.897 427.018 326.828 426.552 327.787 426.073C328.772 425.575 328.772 425.575 329.776 425.068C331.561 424.183 333.359 423.324 335.164 422.48C345.407 417.594 353.259 411.32 361.074 403.112C365.38 406.596 365.38 406.596 369.029 410.728C373.512 415.979 380.351 420.779 387.251 422.067C391.645 422.304 394.463 421.844 398.027 419.19C401.694 414.19 402.397 409.168 401.694 403.112C400.968 400.579 400.045 398.316 398.986 395.891C398.391 395.891 397.795 395.891 397.181 395.891C396.883 394.7 396.585 393.509 396.278 392.281C396.846 392.258 397.414 392.234 397.999 392.21C404.272 391.795 409.462 390.756 414.082 386.252C415.939 384.125 417.614 381.946 419.173 379.591C420.945 377.49 422.564 376.671 425.051 375.526C427.583 374.332 429.943 373.162 432.329 371.69C434.224 370.393 434.224 370.393 436.899 370.618C438.423 372.103 439.927 373.608 441.413 375.131C445.528 376.503 449.231 376.85 453.292 375.279C457.247 373.077 459.748 370.65 461.589 366.503C462.316 363.766 462.372 361.205 462.456 358.376C462.589 354.325 462.589 354.325 464.308 350.789C465.392 349.808 466.495 348.848 467.615 347.908C475.23 340.806 479.21 328.326 479.72 318.097C478.801 310.09 477.232 303.787 472.104 297.506C471.694 296.788 471.285 296.07 470.863 295.33C465.802 287.265 457.56 282.724 448.754 279.795C445.922 279.292 443.157 279.37 440.284 279.397C438.574 279.409 438.574 279.409 436.829 279.421C435.958 279.432 435.088 279.442 434.191 279.453C433.949 278.635 433.707 277.817 433.458 276.975C430.909 269.993 425.781 266.21 419.233 263.125C412.577 260.632 406.529 261.038 399.889 263.206C399.87 262.219 399.852 261.233 399.833 260.216C398.915 252.944 393.739 246.162 388.055 241.734C378.328 235.503 368.586 235.382 357.463 237.03C357.59 236.49 357.717 235.951 357.848 235.395C359.109 229.659 359.586 224.222 359.55 218.357C359.544 217.058 359.544 217.058 359.537 215.732C359.3 201.224 355.332 187.519 348.436 174.749C347.84 174.749 347.244 174.749 346.631 174.749C346.414 174.117 346.198 173.486 345.975 172.835C339.837 158.959 325.76 147.386 313.231 139.547C312.227 138.915 311.223 138.283 310.188 137.632C278.404 118.258 230.885 113.884 197.688 132.326Z" fill="black"/>
    <path d="M173.316 156.326C158.142 170.677 151.097 189.244 149.592 209.81C149.276 222.335 151.644 233.835 157.067 245.154C157.663 245.154 158.259 245.154 158.873 245.154C158.984 245.842 159.096 246.531 159.211 247.241C159.775 249.667 159.775 249.667 161.581 252.375C161.732 255.195 161.732 255.195 161.581 257.79C161.013 257.879 160.445 257.967 159.86 258.058C152.62 259.323 146.904 260.816 142.286 266.816C139.278 271.118 137.849 274.114 137.829 279.453C137.814 280.384 137.799 281.315 137.783 282.274C138.152 285.19 138.997 286.249 140.819 288.479C140.819 289.373 140.819 290.267 140.819 291.187C139.925 291.211 139.032 291.234 138.111 291.258C124.586 291.763 124.586 291.763 120.057 295.7C112.05 304.73 110.233 313.681 110.886 325.42C112.226 342.822 121.131 358.611 133.598 370.618C136.536 373.801 138.203 376.109 138.111 380.547C136.139 383.223 134.045 384.754 131.306 386.629C124.056 391.612 118.269 397.227 115.544 405.82C114.662 414.79 115.083 422.935 120.621 430.35C127.45 437.904 137.313 442.362 147.395 443.022C159.549 443.347 170.043 439.663 179.014 431.206C179.791 430.4 179.791 430.4 180.583 429.577C183.105 427.869 184.766 428.044 187.759 428.386C190.268 429.369 190.268 429.369 192.667 430.699C196.93 432.712 199.384 433.623 204.007 431.996C206.099 430.753 208.081 429.433 210.047 427.998C217.003 423.267 223.823 422.81 231.99 423.873C235.631 424.715 239.062 425.972 242.547 427.31C247.138 428.965 249.591 429.791 254.286 428.051C255.494 427.446 256.694 426.823 257.886 426.186C258.519 425.862 259.152 425.538 259.804 425.204C263.802 423.099 267.309 420.734 270.862 417.949C274.319 415.289 274.319 415.289 278.591 414.621C281.686 415.767 284.645 417.092 287.643 418.467C299.494 423.456 315.842 422.692 327.751 418.281C342.026 412.277 342.026 412.277 345.728 406.723C345.728 404.523 345.728 404.523 344.826 402.21C341.019 398.867 337.212 397.622 332.188 397.697C329.771 398.53 327.773 399.364 325.531 400.517C296.615 414.12 257.326 416.044 226.856 406.497C224.646 405.696 222.446 404.868 220.255 404.015C219.668 403.792 219.081 403.568 218.475 403.338C211.422 400.623 204.863 397.42 198.591 393.184C198.044 392.831 197.497 392.478 196.933 392.115C195.2 390.945 195.2 390.945 193.175 388.67C192.722 385.321 192.722 385.321 193.175 382.352C196.84 383.726 199.759 385.152 202.822 387.599C209.993 393.109 217.94 396.202 226.518 398.825C227.598 399.158 227.598 399.158 228.699 399.498C238.912 402.478 249.027 403.424 259.635 403.338C260.735 403.332 261.835 403.326 262.968 403.319C285.398 403.065 311.309 399.636 329.618 385.349C331.227 383.946 331.227 383.946 333.373 384.214C335.965 385.118 338.127 386.293 340.453 387.736C344.573 390.049 348.532 390.859 353.176 391.604C362.174 393.26 367.355 397.11 373.091 404.054C376.556 408.072 381.831 413.639 387.329 414.102C389.11 414.112 390.89 414.034 392.668 413.944C394.592 410.818 394.886 408.559 394.473 404.918C392.549 397.633 387.971 392.839 381.836 388.67C378.686 387.089 375.454 385.73 372.15 384.502C368.649 383.282 368.649 383.282 366.465 380.48C366.365 378.664 366.365 378.664 367.393 376.936C371.497 377.402 374.877 378.603 378.652 380.166C387.223 383.677 395.097 385.762 404.403 384.157C406.208 383.05 406.208 383.05 407.111 381.449C406.857 379.936 406.56 378.43 406.208 376.936C405.38 376.7 404.551 376.463 403.697 376.219C400.614 375.338 397.532 374.452 394.451 373.565C393.119 373.182 391.786 372.8 390.453 372.42C388.534 371.872 386.616 371.319 384.699 370.766C383.809 370.513 383.809 370.513 382.901 370.256C379.981 369.408 377.275 368.49 374.614 367.007C374.912 365.816 375.21 364.625 375.517 363.397C380.108 363.213 383.699 363.753 388.059 365.174C389.232 365.544 390.404 365.915 391.577 366.285C393.39 366.869 395.202 367.457 397.012 368.05C413.9 373.542 413.9 373.542 419.749 370.618C418.581 368.014 417.348 366.22 415.235 364.3C414.397 364.597 413.56 364.895 412.696 365.202C407.51 366.67 401.612 367.25 396.603 365.065C393.975 363.007 393.033 361.119 391.653 358.094C389.567 353.596 387.294 349.47 384.544 345.345C382.59 345.08 382.59 345.08 380.369 345.175C379.631 345.2 378.893 345.224 378.133 345.249C377.568 345.281 377.002 345.312 376.42 345.345C376.718 343.557 377.015 341.77 377.322 339.929C377.836 339.786 378.349 339.643 378.877 339.495C385.104 337.614 390.396 335.362 393.853 329.605C396.287 324.466 397.725 320.416 397.181 314.655C396.222 312.907 396.222 312.907 394.473 311.948C391.176 311.275 389.033 311.475 386.053 313.079C381.958 315.854 378.297 318.972 374.671 322.328C365.133 331.1 356.363 334.571 343.627 335.447C337.88 335.965 333.731 337.423 329.586 341.671C328.049 344.518 327.88 347.364 327.513 350.542C326.961 352.76 326.961 352.76 324.734 353.609C323.917 353.861 323.1 354.112 322.259 354.371C320.752 355.081 319.248 355.795 317.745 356.514C302.791 363.283 287.5 364.668 271.313 364.582C270.665 364.58 270.016 364.578 269.348 364.577C253.841 364.511 239.471 362.697 225.428 355.584C222.963 354.371 222.963 354.371 221.158 354.371C221.158 352.881 221.158 351.392 221.158 349.858C225.856 349.406 228.83 349.897 233.119 351.889C256.055 361.851 285.136 360.233 308.718 353.468C309.342 353.294 309.965 353.12 310.607 352.941C316.622 351.115 319.652 348.407 322.581 343.015C323.179 341.815 323.748 340.6 324.283 339.37C326.168 335.079 328.081 333.132 332.188 330.903C335.382 329.729 337.987 329.132 341.391 328.907C342.952 328.778 342.952 328.778 344.544 328.646C345.534 328.6 346.524 328.553 347.544 328.505C350.741 327.068 350.919 326.44 352.206 323.304C352.779 321.633 353.328 319.953 353.853 318.266C354.12 317.459 354.387 316.653 354.662 315.822C355.736 312.56 356.771 309.286 357.784 306.005C359.815 299.686 362.084 295.071 368.25 291.85C372.589 290.297 376.841 290.407 381.183 291.889C386.081 294.452 387.687 297.783 389.424 302.911C389.601 303.51 389.778 304.109 389.96 304.727C391.058 304.801 392.157 304.876 393.289 304.952C397.013 305.42 399.032 306.499 401.695 309.24C403.664 312.531 403.811 315.388 404.004 319.147C404.403 320.974 404.403 320.974 407.111 322.779C409.403 322.961 411.643 323.066 413.938 323.118C421.284 323.417 427.108 324.977 433.289 329.097C434.992 329.393 436.706 329.631 438.423 329.831C445.382 330.912 449.505 333.677 454.558 338.406C456.828 340.371 457.848 340.884 460.877 341.734C464.558 340.663 464.984 339.87 466.97 336.713C471.34 328.358 472.831 319.597 470.581 310.28C467.273 301.363 460.479 292.67 451.914 288.289C449.059 287.434 446.591 287.337 443.613 287.351C442.607 287.346 441.6 287.342 440.563 287.337C437.841 287.573 436.548 288.13 434.192 289.382C431.858 289.789 431.858 289.789 429.452 289.946C428.647 290.014 427.842 290.081 427.012 290.151C426.098 290.217 426.098 290.217 425.165 290.285C425.13 289.011 425.13 289.011 425.094 287.711C424.573 276.262 424.573 276.262 420.651 272.232C415.571 268.562 410.459 268.798 404.403 269.524C401.3 271.33 401.3 271.33 398.987 273.135C396.182 273.285 396.182 273.285 393.571 273.135C393.547 272.392 393.524 271.65 393.5 270.885C392.729 255.699 392.729 255.699 386.705 250.245C379.151 244.617 373.235 243.123 363.782 244.251C359.704 246.165 357.232 248.659 354.755 252.375C354.525 254.524 354.525 254.524 354.508 257.067C354.493 258.003 354.477 258.939 354.46 259.903C354.446 260.9 354.432 261.897 354.417 262.924C353.999 277.346 352.108 291.487 342.365 302.95C336.533 308.381 330.1 309.798 322.269 309.543C313.404 308.554 306.868 303.605 300.594 297.506C299.289 295.665 299.289 295.665 298.281 293.895C296.081 291.187 296.081 291.187 293.81 290.598C291.54 290.367 289.335 290.254 287.054 290.285C287.054 289.093 287.054 287.902 287.054 286.674C290.037 284.926 292.549 284.577 295.968 284.248C305.656 282.854 315.906 278.08 322.259 270.427C324.765 266.561 326.472 262.874 327.393 258.354C326.772 255.985 326.772 255.985 324.494 254.06C320.701 252.023 318.076 251.815 313.852 251.923C313.17 251.934 312.488 251.945 311.786 251.956C306.453 252.146 302.452 253.157 297.886 255.985C297.138 256.399 296.39 256.813 295.619 257.24C290.851 259.948 286.406 262.903 282.541 266.816C281.912 267.405 281.284 267.994 280.636 268.601C278.075 272.697 278.084 276.796 277.689 281.54C276.261 295.124 273.319 307.788 262.639 317.183C254.498 323.595 245.764 324.485 235.601 323.682C223.411 321.218 214.552 315.127 205.812 306.532C205.179 305.91 204.546 305.289 203.894 304.649C192.472 292.648 187.331 276.816 182.343 261.401C178.47 261.401 174.597 261.401 170.608 261.401C170.608 259.911 170.608 258.422 170.608 256.888C171.365 256.771 171.365 256.771 172.138 256.651C182.463 254.842 192.105 251.034 201.299 246.056C201.299 245.46 201.299 244.865 201.299 244.251C201.923 244.183 202.546 244.116 203.189 244.046C206.531 243.157 208.943 241.426 211.68 239.399C212.229 238.999 212.779 238.598 213.345 238.185C228.718 226.824 242.949 214.145 250.947 196.412C253.181 196.859 253.181 196.859 255.46 197.315C255.069 202.004 253.98 205.119 251.528 209.144C250.947 210.854 250.947 210.854 251.546 212.659C252.863 214.63 254.312 216.21 255.968 217.906C266.758 229.887 273.585 245.793 277.124 261.401C278.316 260.805 279.507 260.209 280.735 259.596C280.913 255.155 280.569 251.119 279.832 246.733C277.023 227.876 278.467 209.282 289.519 193.242C293.687 188.083 297.818 185.095 304.48 184.339C315.344 183.966 322.486 187.289 330.383 194.607C338.542 203.244 344.525 214.128 348.436 225.296C349.628 225.296 350.82 225.296 352.047 225.296C353.123 200.021 345.251 179.95 328.352 161.04C288.347 117.944 216.453 119.09 173.316 156.326Z" fill="#F6F3F0"/>
    <path d="M299.353 192.35C289.671 201.571 285.524 213.858 285.178 227.087C285.201 227.687 285.224 228.288 285.248 228.906C301.78 236.341 326.827 243.34 344.826 237.933C345.931 226.511 336.135 211.69 329.48 203.034C321.758 194.015 311.448 186.975 299.353 192.35Z" fill="#F5F2EF"/>
    <path d="M220.255 268.622C217.328 269.329 214.443 270.149 211.553 270.995C210.104 271.418 210.104 271.418 208.626 271.85C207.623 272.144 206.62 272.437 205.587 272.74C204.57 273.037 203.553 273.335 202.505 273.641C199.996 274.374 197.488 275.108 194.98 275.843C197.425 289.388 208.513 302.156 219.353 310.142C228.667 315.797 237.262 318.518 248.238 317.363C251.527 316.267 254.496 314.951 257.265 312.85C257.712 311.51 257.712 311.51 258.168 310.142C257.023 309.748 257.023 309.748 255.855 309.346C249.504 307.051 244.247 304.735 239.212 300.214C238.677 299.752 238.143 299.29 237.593 298.814C229.06 290.922 223.535 279.654 220.255 268.622Z" fill="#F3F0EE"/>
    <path d="M247.335 218.075C243.545 219.535 241.155 222.363 238.421 225.24C228.18 235.704 216.249 244.9 203.104 251.472C203.104 252.068 203.104 252.663 203.104 253.277C202.458 253.378 201.812 253.48 201.147 253.584C196.931 254.567 193.394 256.701 189.564 258.693C190.159 261.969 190.755 265.246 191.369 268.622C195.995 269.547 198.434 269.049 202.709 267.606C203.35 267.396 203.99 267.186 204.65 266.969C222.753 260.922 238.233 251.715 252.47 239.004C252.937 238.593 253.404 238.181 253.886 237.757C255.637 236.149 257.098 234.624 258.256 232.538C258.109 229.502 256.274 227.936 254.331 225.691C253.601 224.833 252.87 223.976 252.117 223.092C250.564 221.362 249.008 219.687 247.335 218.075Z" fill="#F1EEEC"/>
    <path d="M206.658 434.873C204.007 436.509 204.007 436.509 203.16 438.935C203.142 439.624 203.123 440.313 203.104 441.022C203.738 440.879 204.372 440.736 205.026 440.589C210.592 439.582 216.266 439.15 221.496 441.474C228.745 448.377 231.795 455.507 233.231 465.337C236.423 484.695 242.851 502.816 258.887 515.178C266.536 520.277 274.823 524.231 284.12 524.12C285.009 524.112 285.898 524.104 286.814 524.095C287.489 524.085 288.164 524.074 288.859 524.064C286.181 522.58 283.452 521.66 280.529 520.771C274.142 518.808 268.835 516.569 263.584 512.33C262.844 511.766 262.104 511.203 261.341 510.623C248.583 500.185 243.926 484.558 240.565 469.004C235.033 443.398 235.033 443.398 224.091 436.058C218.309 432.867 212.859 432.697 206.658 434.873Z" fill="#E8E5E4"/>
    <path d="M429.678 492.472C426.371 493.405 423.656 494.617 420.764 496.421C415.455 499.465 409.681 500.61 403.76 501.917C402.261 502.268 400.77 502.653 399.286 503.059C392.097 505.001 385.013 505.91 377.604 506.519C376.66 506.601 376.66 506.601 375.696 506.685C360.636 507.984 345.533 508.518 330.429 509.038C329.495 509.072 328.561 509.105 327.599 509.139C325.835 509.201 324.072 509.259 322.308 509.313C321.521 509.341 320.734 509.368 319.923 509.397C318.895 509.429 318.895 509.429 317.846 509.463C315.923 509.623 314.184 510.003 312.329 510.524C312.329 512.312 312.329 514.099 312.329 515.94C320.983 516.069 329.563 515.73 338.199 515.218C340.334 515.093 342.468 514.974 344.603 514.856C345.975 514.777 347.347 514.698 348.718 514.618C349.349 514.583 349.98 514.548 350.63 514.512C353.888 514.315 356.983 513.916 360.171 513.232C362.351 513.117 364.533 513.026 366.715 512.95C385.757 511.993 404.991 508.401 422.456 500.596C422.456 500 422.456 499.404 422.456 498.79C423.145 498.697 423.834 498.604 424.544 498.508C427.148 497.842 428.109 497.327 429.678 495.18C429.678 494.286 429.678 493.393 429.678 492.472Z" fill="#E1DEDE"/>
    <path d="M415.235 330C415.41 330.492 415.584 330.984 415.764 331.491C418.696 339.983 419.962 346.909 419.459 355.964C419.814 359.546 420.796 360.92 423.359 363.397C426.412 364.215 428.617 364.535 431.709 363.848C434.701 361.284 435.755 357.999 436.258 354.209C436.534 346.957 434.092 341.128 429.678 335.416C425.41 331.373 421.127 329.653 415.235 330Z" fill="#F1EEEB"/>
    <path d="M401.695 328.195C401.229 329.275 400.764 330.354 400.284 331.467C398.24 335.615 395.438 338.108 391.765 340.832C392.974 344.557 394.295 348.204 395.771 351.832C396.142 352.757 396.513 353.682 396.896 354.635C398.009 356.924 398.76 358.286 400.792 359.787C403.585 360.147 405.341 360.354 408.014 359.787C410.92 357.499 412.26 356.074 413.43 352.566C414.262 345.212 412.116 336.736 407.474 330.892C405.607 329.291 404.212 328.195 401.695 328.195Z" fill="#F2EFEC"/>
    <path d="M299.793 168.152C289.886 171.869 280.426 178.891 275.319 188.288C275.093 190.883 275.093 190.883 275.319 192.801C277.404 193.099 279.489 193.397 281.637 193.704C281.999 193.191 282.361 192.678 282.734 192.149C288.249 184.658 295.012 177.911 304.511 176.166C309.133 175.583 313.327 175.707 317.914 176.501C318.454 176.519 318.994 176.536 319.55 176.554C320.146 175.959 320.742 175.363 321.355 174.749C321.299 172.549 321.299 172.549 320.453 170.236C314.783 165.848 306.492 166.548 299.793 168.152Z" fill="black"/>
    <path d="M315.939 428.386C311.972 428.255 308.005 428.174 304.035 428.104C302.911 428.066 301.786 428.028 300.627 427.989C291.319 427.864 291.319 427.864 288.475 430.378C287.054 432.899 287.054 432.899 287.008 435.177C288.122 437.802 289.461 439.495 291.398 441.587C292.018 442.268 292.638 442.95 293.277 443.653C297.909 448.242 297.909 448.242 300.541 448.247C307.232 444.984 312.454 436.581 315.939 430.191C315.939 429.595 315.939 429 315.939 428.386Z" fill="#F0EDEB"/>
    <path d="M260.876 242.446C258.648 243.485 257.222 244.294 255.46 246.056C255.805 250.456 256.931 254.474 258.168 258.693C260.179 265.998 260.465 273.22 260.58 280.768C260.596 281.626 260.612 282.483 260.629 283.367C260.635 284.135 260.64 284.904 260.645 285.695C260.876 287.577 260.876 287.577 262.681 289.382C264.938 289.664 264.938 289.664 267.195 289.382C271.898 282.328 269.026 269.916 267.477 262.021C266.043 255.108 264.023 248.791 260.876 242.446Z" fill="#EEEBEA"/>
    <path d="M318.648 283.064C314.908 283.604 312.165 284.875 308.887 286.731C308.007 287.225 307.126 287.72 306.218 288.229C305.221 288.8 305.221 288.8 304.205 289.382C306.953 295.679 312.977 299.824 319.219 302.329C324.083 303.678 328.574 303.717 333.203 301.68C333.762 301.196 334.321 300.712 334.896 300.214C334.896 299.618 334.896 299.022 334.896 298.408C333.341 297.301 333.341 297.301 331.229 296.039C325.888 292.61 322.148 288.315 318.648 283.064Z" fill="#EEECEA"/>
    <path d="M439.607 337.221C439.803 337.736 439.998 338.252 440.2 338.783C442.848 346.494 443.116 354.1 441.582 362.099C441.413 365.202 441.413 365.202 443.274 367.515C445.926 368.813 445.926 368.813 448.69 368.869C452.168 367.611 453.211 366.679 454.953 363.397C456.212 356.034 453.958 350.311 450.023 344.199C447.096 340.076 444.981 337.221 439.607 337.221Z" fill="#F0EDEA"/>
    <path d="M371.003 297.506C364.102 302.48 361.826 312.111 360.171 320.071C360.171 321.263 360.171 322.454 360.171 323.682C365.353 321.387 369.412 317.364 373.711 313.753C374.926 312.788 374.926 312.788 376.166 311.803C376.901 311.199 377.636 310.595 378.394 309.973C379.059 309.439 379.723 308.905 380.408 308.355C381.836 306.532 381.836 306.532 382.164 303.778C381.836 301.116 381.836 301.116 380.03 298.408C376.746 297.314 374.454 297.149 371.003 297.506Z" fill="#F3F0EE"/>
    <path d="M346.631 246.056C344.546 246.056 342.461 246.056 340.312 246.056C339.099 249.633 339.384 253.214 339.519 256.93C339.54 257.626 339.561 258.322 339.583 259.039C339.652 261.256 339.728 263.472 339.804 265.688C339.853 267.194 339.9 268.699 339.947 270.205C340.064 273.89 340.186 277.574 340.312 281.258C344.628 282.281 344.628 282.281 346.405 281.202C349.534 276.353 348.602 269.336 348.606 263.77C348.617 262.865 348.628 261.96 348.639 261.027C348.65 255.71 348.169 251.151 346.631 246.056Z" fill="#EBE8E7"/>
    <path d="M320.453 437.412C319.857 437.412 319.261 437.412 318.648 437.412C317.406 438.84 317.406 438.84 315.94 440.853C312.041 446.029 307.709 450.721 303.302 455.465C303.6 456.06 303.898 456.656 304.205 457.27C310.308 457.636 313.741 456.453 318.366 452.475C321.368 448.986 323.263 446.407 322.992 441.7C322.258 439.217 322.258 439.217 320.453 437.412Z" fill="#EAE7E6"/>
    <path d="M285.249 237.03C285.376 239.061 285.509 241.092 285.643 243.123C285.717 244.254 285.79 245.385 285.866 246.55C286.084 248.929 286.37 251.003 287.054 253.277C290.989 252.06 294.558 250.525 298.225 248.651C299.181 248.165 300.138 247.679 301.123 247.177C301.842 246.807 302.561 246.437 303.302 246.056C303.144 244.371 303.144 244.371 302.4 242.446C300.33 241.367 300.33 241.367 297.717 240.528C296.821 240.232 295.925 239.937 295.002 239.632C294.166 239.369 293.331 239.106 292.47 238.835C291.409 238.463 290.348 238.091 289.254 237.707C287.054 237.03 287.054 237.03 285.249 237.03Z" fill="#ECE9E8"/>
    <path d="M415.235 364.3C414.034 364.746 414.034 364.746 412.809 365.202C407.731 366.692 402.418 366.247 397.181 366.105C397.181 366.701 397.181 367.296 397.181 367.91C404.109 370.342 410.537 372.437 417.943 371.521C418.539 371.223 419.135 370.925 419.749 370.618C418.581 368.014 417.348 366.22 415.235 364.3Z" fill="#E1DEDC"/>
    <path d="M296.08 459.978C292.208 460.871 288.335 461.765 284.346 462.685C284.643 463.281 284.941 463.877 285.248 464.491C287.479 465.095 289.64 465.586 291.906 466.014C292.525 466.142 293.144 466.271 293.781 466.403C296.78 466.99 298.551 467.278 301.497 466.296C299.709 464.211 297.922 462.126 296.08 459.978Z" fill="white"/>
    <path d="M268.097 428.386C265.118 429.875 262.14 431.364 259.07 432.899C259.07 433.197 259.07 433.495 259.07 433.801C263.288 434.89 267.389 434.789 271.708 434.704C270.739 432.073 270.103 430.391 268.097 428.386Z" fill="white"/>
    <path d="M275.319 424.775C276.221 426.58 277.124 428.386 278.027 430.191C279.516 429.893 281.005 429.595 282.54 429.288C282.54 428.097 282.54 426.905 282.54 425.678C280.095 424.455 278.018 424.717 275.319 424.775Z" fill="#E5E2E3"/>
    <path d="M137.692 133.426L138.864 135.538C138.199 134.232 137.692 133.426 137.692 133.426Z" fill="white"/>
    <path d="M169.735 95.2444L168.188 96.5064C168.024 96.6371 167.835 96.8317 167.671 96.9623C168.443 96.4364 169.124 95.8499 169.735 95.2444Z" fill="black"/>
    <path d="M154.737 100.41C150.593 99.9782 146.856 98.1474 142.832 97.1864C134.667 95.2679 125.334 97.1025 118.61 102.04C130.979 102.476 143.301 102.934 155.671 103.37C158.56 103.458 160.57 102.603 162.467 101.332L167.484 97.1566C163.831 99.6332 159.137 100.877 154.737 100.41Z" fill="black"/>
    <path d="M167.671 96.9623C167.835 96.8317 168.024 96.6371 168.188 96.5064L167.461 97.1152C167.554 97.0705 167.577 97.007 167.671 96.9623Z" fill="black"/>
    <path d="M203.528 25.4798C203.528 25.4798 199.802 18.7713 188.49 13.9544C177.179 9.13747 150.263 16.0624 138.836 26.5958C127.41 37.1289 131.846 48.632 128.067 52.1634C124.267 55.6533 103.795 63.7456 96.8662 80.6717C89.9359 97.598 100.06 105.496 100.057 108.902C100.056 112.308 91.6219 124.818 99.0327 143.387C106.443 161.956 132.625 153.706 138.718 149.122C143.123 145.763 140.587 138.959 138.866 135.537L137.692 133.426C137.692 133.426 138.199 134.232 138.866 135.537L154.5 163.697C154.5 163.697 167.723 168.44 196.958 153.651C226.194 138.863 236.162 123.891 236.162 123.891L217.882 90.97C217.882 90.97 232.347 78.9862 233.932 69.6921C235.538 60.4394 231.856 41.7674 224.391 33.4385C216.763 25.1349 203.528 25.4798 203.528 25.4798Z" fill="white"/>
    <path d="M203.528 25.4798C203.528 25.4798 199.802 18.7713 188.49 13.9544C177.179 9.13747 150.261 16.0626 138.836 26.5958C137.193 28.1129 135.901 29.6199 134.818 31.1847C139.699 29.6412 144.993 29.0532 150.115 29.4373C159.849 30.2403 168.834 34.491 175.921 40.3287C181.179 44.6821 185.541 50.1959 186.681 56.6185C187.822 63.0413 185.042 70.3919 178.748 73.8668C174.992 68.2731 171.119 62.5779 165.183 58.8106C159.315 55.0626 150.821 53.7206 144.572 57.3834C145.828 63.9079 151.853 68.4714 156.123 73.7144C160.395 78.9572 162.758 87.1541 157.294 91.8041C152.347 95.9983 144.693 94.4651 138.056 94.0178C127.947 93.3934 117.51 96.3309 109.382 102.043C109.466 106.35 115.158 108.716 119.914 108.227C124.671 107.738 129.07 105.43 133.805 104.584C138.543 103.738 144.357 105.049 145.632 109.155C146.293 111.197 145.853 113.922 147.872 115.001C149.472 115.861 151.622 115.045 153.283 114.2C163.526 109.207 173.815 104.193 184.081 99.2416C186.957 97.8166 190.114 96.3627 193.35 96.6518C196.076 96.8706 198.419 98.3195 200.503 99.8387C205.765 103.667 210.203 108.463 213.425 113.84C214.023 114.812 214.574 115.911 214.356 117.01C214.163 117.941 213.482 118.737 212.778 119.387C208.812 123.218 203.55 125.676 198.567 128.316C187.761 133.997 177.713 140.939 168.754 148.88C167.815 149.748 166.829 150.637 166.333 151.765C165.668 153.339 166.097 155.073 166.762 156.589C167.885 159.144 169.732 161.3 171.957 163.067C178.375 161.628 186.643 158.835 196.865 153.695C226.101 138.907 236.068 123.936 236.068 123.936L217.788 91.0146C217.788 91.0146 232.254 79.0307 233.838 69.7366C235.445 60.4839 231.761 41.8121 224.298 33.4829C216.764 25.1349 203.528 25.4798 203.528 25.4798Z" fill="white"/>
    <path d="M205.507 22.4398C203.591 19.9489 198.968 14.9261 190.003 11.1373C179.712 6.77586 160.857 10.7449 148.323 16.7256C143.459 19.0466 139.455 21.6381 136.452 24.433C128.358 31.9099 127.366 39.9263 126.698 45.2215C126.451 47.0153 126.176 49.5037 125.613 49.9819C124.98 50.546 123.084 51.7126 121.026 52.9046C112.881 57.734 99.2838 65.7414 93.5653 79.6277C87.8928 93.4917 92.7684 102.061 95.3663 106.74C95.8273 107.568 96.4013 108.604 96.5153 109.021C96.4181 109.486 96.0362 110.716 95.6793 111.672C93.6805 117.34 89.5857 129.142 95.7388 144.487C98.1169 150.476 102.445 154.541 108.557 156.601C118.854 160.015 131.207 156.373 136.912 153.65C138.456 152.914 139.743 152.143 140.751 151.401C141.5 150.832 142.135 150.164 142.698 149.475L151.389 165.128C151.735 165.75 152.314 166.26 153.058 166.533C153.638 166.727 167.072 171.318 195.179 157.904C196.254 157.392 197.377 156.856 198.43 156.301C228.18 141.267 238.475 126.035 238.946 125.391C239.558 124.471 239.591 123.355 239.084 122.444L221.909 91.5102C226.179 87.6921 235.754 78.3034 237.145 70.0447C238.899 59.6738 234.756 40.1737 226.899 31.4559C220.244 24.0504 209.839 22.6773 205.507 22.4398ZM230.995 63.5504C231.419 66.0194 231.382 67.7653 230.602 69.3426C229.915 70.7703 228.602 72.0258 226.47 73.5144C222.137 76.5773 216.928 78.2771 211.653 79.4322C207.545 80.3448 205.885 78.0991 206.006 74.2694C206.073 71.6185 207.186 69.0441 208.068 66.4758C211.235 57.3693 211.405 47.0211 206.058 39.0961C207.22 42.6799 208.102 46.3975 208.632 50.1252C208.966 52.3233 209.136 54.547 208.956 56.7805C208.361 64.6598 203.3 71.6321 197.617 77.4867C196.303 78.8475 194.82 80.7596 193.159 81.8145C191.263 82.9812 188.648 83.4952 186.546 84.394C183.273 85.8511 179.408 88.5857 176.142 85.7961C174.569 84.4518 173.883 82.4738 173.199 80.6004C170.686 73.7324 167.595 66.5646 161.267 62.1985C158.855 60.5204 156.069 59.3358 153.302 58.2984C161.812 64.0336 168.158 72.2675 171.189 81.5599C172.987 87.1446 172.762 92.2804 168.234 96.4843L169.781 95.2222C169.124 95.8499 168.445 96.4363 167.718 96.9399C167.648 97.0259 167.554 97.0706 167.436 97.1791C165.608 98.6802 164.107 100.13 162.444 101.29L160.498 102.9C156.536 106.1 152.343 108.991 147.25 110.793C161.591 106.149 173.383 96.4891 187.221 90.7244C191.778 88.8116 196.683 87.3092 201.623 87.3619C214.133 87.5206 217.784 97.8263 222.452 106.233C225.694 112.072 228.913 117.869 232.155 123.708C229.003 127.621 218.245 139.355 195.348 150.962C194.295 151.517 193.265 152.009 192.237 152.499C192.05 152.588 191.909 152.655 191.722 152.745C186.445 154.216 179.279 155.906 176.464 155.416C171.74 154.58 175.242 147.251 184.87 140.509C194.496 133.769 229.396 121.829 229.396 121.829C229.396 121.829 192.893 130.133 173.085 143.043C161.939 150.352 157.311 155.336 155.378 158.354C155.591 157.991 153.677 155.289 153.493 154.958C152.044 152.35 151.165 151.407 153.096 148.704C154.344 146.904 155.64 145.186 157.189 143.609C159.724 141.037 162.814 139.038 165.882 136.998C160.375 138.054 155.183 140.741 151.31 144.528C151.076 144.744 150.817 145.025 150.444 145.099C150.233 145.147 150.025 145.089 149.815 145.032C147.096 144.182 145.67 141.615 144.451 139.42C143.347 137.432 142.029 136.123 140.598 134.396C137.225 130.453 137.155 124.253 138.705 119.48C139.062 118.419 139.536 117.355 140.404 116.574C139.024 117.285 138.129 118.55 137.305 119.729C135.798 121.915 134.475 124.222 133.828 126.679C132.963 130.13 134.146 133.86 135.825 136.883C137.64 140.575 138.84 145.083 136.615 146.721C136.287 146.982 135.513 147.509 134.017 148.223C127.984 151.102 118.229 153.138 111.209 150.83C107.003 149.432 103.971 146.531 102.233 142.227C96.8576 128.815 100.38 118.753 102.285 113.339C102.974 111.386 103.451 110.006 103.484 108.786C103.473 107.167 102.667 105.718 101.609 103.813C99.1487 99.4876 95.447 92.9254 100.098 81.5913C104.987 69.7252 117.366 62.4033 124.762 58.0361C127.43 56.4486 129.349 55.3234 130.569 54.2176C132.844 52.1365 133.193 49.1415 133.591 45.7038C134.21 40.7462 134.979 34.565 141.337 28.6499C143.8 26.3744 147.289 24.1334 151.451 22.1474C164.032 16.1442 180.011 13.7052 187.072 16.7264C197.129 20.9896 200.581 26.8857 200.604 26.9271C201.177 27.9625 202.339 28.561 203.62 28.5256C203.737 28.5224 215.319 28.2863 221.697 35.4049C228.629 43.2022 229.295 53.9897 230.995 63.5504Z" fill="black"/>
    <path d="M176.978 17.3C170.738 16.8207 164.338 18.8267 159.163 22.1865C158.507 22.6041 157.828 23.0853 157.498 23.7671C157.166 24.4491 157.23 25.3092 157.879 25.7329C162.973 23.7209 168.993 22.6295 173.893 24.7434C175.844 25.5936 177.443 26.8736 179.041 28.154C180.847 29.5968 182.654 31.0395 184.462 32.4821C185.503 33.2943 186.5 34.1286 187.801 34.5552C189.055 35.0041 190.617 35.0449 191.764 34.3405C192.817 33.6808 193.362 32.5303 193.51 31.4121C193.781 29.4494 193.12 27.5125 192.131 25.8369C189.138 20.8741 183.219 17.779 176.978 17.3Z" fill="black"/>
    <path d="M128.804 134.786C128.222 134.802 127.683 135.111 127.192 135.398C124.314 137.033 119.193 139.529 115.917 138.211C115.615 138.093 115.36 137.953 115.081 137.772C112.763 136.154 111.973 132.707 108.263 133.377C107.843 133.473 107.376 133.591 107.004 133.454C106.632 133.318 106.379 132.967 106.196 132.636C105.599 131.454 104.195 122.852 101.594 127.97C100.861 129.419 100.822 131.481 100.88 132.972C100.925 136.355 102.042 139.646 104.142 142.363C107.812 147.055 114.387 149.733 120.822 149.175C124.552 148.863 128.314 147.435 130.548 144.639C132.782 141.845 132.907 137.7 130.291 135.438C129.851 135.072 129.387 134.769 128.804 134.786Z" fill="black"/>
</svg>
