<svg width="556" height="478" viewBox="0 0 556 478" fill="none" xmlns="http://www.w3.org/2000/svg">
    <path d="M549.567 233.093C548.838 227.939 548.076 223.122 547.334 217.948C545.606 205.649 543.77 193.72 542.222 181.754C542.038 180.333 542.997 178.011 544.16 177.29C552.457 172.148 552.631 162.748 544.085 157.279C541.361 157.895 538.879 158.633 536.398 159.376C534.656 159.898 532.916 160.428 530.498 161.023C507.015 163.869 484.211 166.657 461.402 169.412C455.253 170.155 455.247 170.108 454.28 163.725C453.549 158.906 452.444 158.02 447.494 158.375C446.08 158.476 444.675 158.689 443.265 158.847C430.442 160.281 417.619 161.715 404.797 163.148C400.884 163.63 396.971 164.111 392.371 164.72C385.891 165.509 380.087 166.086 374.314 166.883C372.702 167.105 370.757 167.558 369.698 168.63C366.826 171.532 364.31 171.421 360.658 169.74C352.321 165.903 344.67 171.294 346.899 180.001C348.601 186.653 346.919 188.997 341.364 192.287C331.68 198.022 328.534 208.149 329.097 218.845C329.925 234.573 327.195 249.321 319.241 263.292C317.119 263.514 314.476 263.79 312.483 263.998C310.031 258.838 307.754 254.045 305.477 249.251C301.871 247.759 298.36 245.921 294.625 244.905C292.336 244.283 291.901 243.29 292.156 241.371C294.841 221.094 291.62 201.679 283.154 183.182C277.715 171.298 270.558 160.676 259.089 153.525C256.001 151.6 253.22 149.021 250.712 146.353C229.991 124.309 204.393 117.381 175.069 121.479C153.258 124.526 134.711 134.104 119.642 149.911C102.325 168.076 93.6792 189.664 96.3377 215.136C96.482 216.518 96.3564 217.928 96.3564 219.898C94.6342 219.758 93.1533 219.751 91.7137 219.504C77.1056 216.994 64.2275 221.888 58.0932 233.777C55.3483 239.098 54.67 245.654 53.8994 251.757C53.464 255.206 53.0286 256.88 49.0974 256.767C42.8261 256.587 37.0491 258.465 31.8108 262.609C21.1791 273.718 19.9795 281.523 26.8753 294.977C28.1561 297.476 26.7597 298.123 25.1459 299.248C20.8607 302.234 16.2198 304.908 12.5474 308.543C-3.93689 324.856 -1.4151 346.977 18.1617 359.487C21.2609 361.467 24.6747 362.955 28.2042 364.848C31.5405 366.959 34.5311 369.048 37.7148 370.783C40.8466 372.489 44.1567 373.875 47.4247 375.32C48.6925 375.88 50.2697 375.926 51.3469 376.703C57.9163 381.445 64.5313 380.767 70.8328 376.581C76.4864 372.825 81.6384 368.32 87.2418 364.481C90.8577 362.004 94.8134 359.977 98.774 358.075C100.158 357.41 102.04 357.484 103.643 357.669C104.852 357.808 105.961 358.703 107.144 359.19C117.729 363.545 116.39 361.79 113.012 372.179C110.895 378.69 107.34 384.854 103.708 390.728C95.3503 404.242 84.7444 416.723 81.6344 432.724C80.1836 440.188 76.7124 442.86 69.936 443.952C66.4245 444.518 62.8839 446.195 59.853 448.142C55.539 450.914 55.7009 456.508 59.7515 459.713C64.7647 463.68 70.8645 464.071 76.7744 464.114C102.659 464.302 128.547 464.316 154.431 464.092C162.36 464.024 170.333 463.38 178.19 462.301C185.277 461.327 190.913 457.589 194.369 450.317C195.931 446.352 197.534 442.977 198.45 439.425C201.929 425.922 200.761 413.05 192.953 401.075C185.117 389.06 173.212 384.014 159.877 381.419C150.881 379.669 150.676 379.713 153.235 370.8C153.69 369.218 155.745 367.467 157.413 366.967C165.798 364.45 174.283 362.254 182.775 360.114C184.6 359.654 186.899 359.214 188.473 359.911C200.376 365.183 212.653 368.97 225.623 370.428C227.923 370.686 229.13 371.601 228.297 374.426C225.524 383.819 222.837 393.247 220.459 402.747C218.191 411.806 215.572 420.895 214.639 430.125C214.138 435.083 213.137 437.268 208.348 438.547C202.48 440.114 197.484 443.175 197.795 450.526C198.783 454.467 201.668 456.641 205.319 457.249C213.426 458.599 221.58 460.089 229.764 460.479C250.638 461.472 271.557 461.558 292.423 462.661C306.437 463.401 320.278 463.096 333.929 459.825C346.267 456.869 356.362 450.679 361.093 438.233C362.361 434.896 362.214 431.02 362.547 426.763C361.452 422.884 360.817 419.515 359.552 416.402C354.124 403.05 342.566 396.589 330.137 391.803C322.03 388.682 313.318 387.131 304.482 384.901C290.825 384.926 277.564 384.926 263.654 384.926C263.932 380.261 264.323 375.489 264.458 370.71C264.531 368.097 265.693 366.742 267.965 365.516C273.568 362.495 278.922 359.015 284.498 355.939C285.805 355.218 287.842 354.732 289.117 355.23C294.508 357.337 299.739 359.857 305.389 362.167C320.373 365.327 335.023 365.979 349.73 362.623C358.407 360.643 366.503 357.55 373.536 351.83C384.681 342.764 385.562 330.233 375.497 320.095C369.841 314.398 362.845 310.984 355.294 308.686C352.139 307.725 351.044 306.441 351.719 302.88C352.472 298.909 353.36 294.186 351.922 290.736C348.687 282.973 351.097 277.187 355.949 271.527C356.225 271.206 356.339 270.678 356.669 270.483C358.461 269.423 360.196 268.131 362.139 267.491C365.72 266.312 369.47 265.651 373.079 264.544C375.827 263.701 378.391 261.932 381.167 261.566C390.149 260.38 395.895 254.885 397.171 246.014C397.355 244.737 398.781 243.094 400.022 242.599C411.595 237.979 413.869 233.984 411.545 222.359C416.741 220.477 422.162 219.199 426.881 216.631C432.793 213.413 433.052 207.74 430.366 201.363C436.072 200.836 441.122 200.282 446.186 199.918C457.241 199.123 457.488 199.63 456.077 188.643C455.718 185.846 456.653 184.666 459.385 184.574C460.758 184.528 462.122 184.249 463.758 184.041C464.01 185.549 464.317 186.77 464.404 188.007C465.013 196.66 465.567 205.316 466.156 213.971C467.574 234.829 468.979 255.688 470.441 276.543C470.82 281.963 471.812 282.655 477.193 281.427C481.213 280.51 485.189 279.404 489.2 278.448C503.161 275.121 517.128 271.823 531.093 268.514C534.6 267.617 538.108 266.719 541.968 265.798C544.332 265.147 546.304 264.282 548.362 263.94C552.577 263.241 553.996 261.268 553.148 256.877C551.65 249.118 550.709 241.251 549.567 233.093ZM359.823 353.178C359.55 353.26 359.274 353.331 359.005 353.424C334.702 361.824 311.152 361.788 288.708 347.501C287.323 346.619 284.553 346.873 282.908 347.635C277.669 350.062 272.818 353.356 267.524 355.634C253.489 361.671 238.88 364.596 223.491 362.965C212.674 361.818 202.769 358.481 193.623 352.51C191.679 351.241 188.073 350.424 186.276 351.373C177.236 356.147 167.616 358.092 157.601 358.678C141.447 359.625 125.497 358.71 110.105 353.113C106.62 351.846 97.1277 350.955 93.6276 351.565C93.4356 351.598 93.183 351.284 92.8312 351.045C93.5935 348.512 94.1954 345.873 95.1746 343.382C97.8704 336.525 96.7377 329.91 93.8947 323.506C92.5863 320.558 90.6526 317.874 88.8798 315.15C84.8071 308.892 86.5653 300.666 92.8711 296.562C95.0053 295.173 98.6406 294 96.2275 290.787C95.4913 289.807 91.5547 291.198 89.0958 291.58C88.7453 291.635 88.4655 292.128 88.1479 292.413C79.0284 300.585 78.0469 310.252 85.18 320.511C88.5767 325.396 91.195 330.757 90.2135 336.839C88.2212 349.187 82.5747 359.68 72.74 367.592C69.9149 369.864 66.6914 371.82 63.3582 373.23C60.3241 374.514 57.0627 373.763 54.755 371.178C52.5758 368.737 52.5659 365.879 53.6482 362.802C55.5154 357.494 59.2786 354.372 64.5106 352.917C67.5172 352.08 68.2434 350.312 68.4128 347.295C68.5956 344.041 69.9723 340.863 70.7151 337.626C71.051 336.163 71.1132 334.636 71.2995 333.138C69.5104 333.403 66.7935 333.043 66.1133 334.054C64.3565 336.664 63.1567 339.795 62.3845 342.88C61.6874 345.666 60.8897 347.749 58.0141 349.096C51.4412 352.173 48.1219 357.757 47.106 364.818C46.9328 366.021 46.7631 367.225 46.5903 368.438C41.1024 367.436 38.1589 362.815 39.6549 357.738C41.2431 352.348 45.11 349.042 49.9361 346.42C51.3954 345.627 53.2992 342.852 52.8876 341.875C50.4125 335.996 53.418 332.483 57.2793 328.884C58.2152 328.011 58.1889 326.106 58.605 324.676C56.9223 324.618 54.7763 323.879 53.6542 324.644C51.3748 326.197 48.1599 328.423 47.9552 330.617C47.1147 339.628 41.0621 345.171 35.8768 351.443C34.4318 353.19 33.6984 355.526 32.5356 357.793C27.5779 351.967 28.4901 344.686 34.6416 340.982C38.8639 338.439 41.3542 335.813 41.1046 330.32C40.8148 323.943 47.0571 317.591 53.3997 316.379C58.2423 315.453 58.9681 314.658 56.7863 310.173C50.1443 296.52 57.9111 276.354 69.4894 268.397C71.3554 267.115 73.2286 265.76 74.77 264.128C75.4367 263.422 75.799 261.573 75.3394 260.885C74.8206 260.109 73.0496 259.509 72.1288 259.8C70.2771 260.385 68.45 261.401 66.9313 262.632C52.7468 274.132 45.5572 288.478 49.2595 307.091C49.7697 309.656 49.1404 310.915 46.7249 312.485C43.2552 314.739 38.9058 317.686 37.8567 321.209C35.3877 329.499 31.2726 336.19 25.3754 342.396C21.9186 346.034 20.2947 346.974 16.7516 343.303C8.19958 334.442 8.85895 318.336 18.7514 310.99C23.895 307.17 30.1656 304.88 35.8807 301.812C37.6597 300.857 39.2863 299.618 40.9827 298.509C39.7341 296.922 38.5163 295.308 37.2165 293.764C36.8684 293.351 36.2415 293.185 35.7913 292.842C30.0052 288.435 27.7476 278.843 31.064 272.809C34.8646 265.894 43.9797 261.53 51.7312 262.914C61.7456 264.703 61.6094 264.724 60.0866 254.813C58.2809 243.059 63.5607 226.624 82.1051 225.246C88.8707 224.743 94.6178 226.857 99.8042 231.128C100.967 232.086 102.849 232.171 104.4 232.658C104.75 231.122 105.45 229.57 105.377 228.054C105.226 224.943 104.424 221.86 104.303 218.75C103.361 194.497 111.487 173.514 126.632 154.717C153.639 121.196 205.641 118.406 236.087 141.147C238.813 143.183 241.268 145.581 244.674 148.525C235.5 149.943 228.903 152.989 224.208 159.539C214.743 172.741 212.811 187.739 213.821 203.337C214.489 213.637 216.043 212.113 204.849 213.789C203.781 213.948 202.155 212.543 201.317 211.456C200.505 210.403 200.409 208.812 199.941 207.478C194.654 192.395 187.551 178.471 174.711 168.254C159.659 156.277 142.223 157.575 131.258 172.472C126.832 178.486 123.242 185.837 121.659 193.1C114.565 225.657 121.335 255.445 142.115 281.656C147.657 288.648 154.879 293.869 163.847 295.919C177.525 299.045 190.139 292.348 197.395 278.535C203.59 266.742 205.66 254.079 205.269 240.998C205.121 236.027 206.504 232.821 210.765 230.063C221.911 222.849 233.998 218.737 247.201 218.568C252.186 218.505 257.362 219.486 262.136 220.991C266.371 222.326 267.412 225.528 264.71 229.035C261.756 232.87 258.102 236.518 254.014 239.059C242.169 246.421 228.974 249.468 215.062 249.771C213.656 249.801 212.284 251.348 210.896 252.191C212.295 253.272 213.587 255.047 215.115 255.282C217.875 255.705 220.817 255.473 223.608 255.033C228.105 254.324 231.22 256.105 233.938 259.481C236.245 262.346 238.663 265.199 241.423 267.609C249.761 274.889 259.165 279.204 270.374 275.34C279.516 272.189 284.491 264.708 288.033 256.221C289.214 253.39 290.532 250.559 293.918 251.353C296.865 252.044 300.532 253.32 302.041 255.572C303.934 258.393 304.388 262.439 304.675 266.019C305.139 271.801 306.058 272.709 311.415 270.951C328.211 265.44 345.934 277.621 346.21 295.264C346.274 299.352 344.622 303.538 343.37 307.557C341.831 312.5 342.03 313.027 347.248 313.876C355.356 315.196 362.98 317.737 369.299 323.228C378.063 330.842 377.886 340.687 368.76 347.838C366.212 349.835 363.222 351.267 359.823 353.178ZM474.378 242.139C473.069 222.594 471.759 203.049 470.425 183.149C491.747 180.662 512.59 178.232 533.731 175.767C534.083 177.469 534.456 178.953 534.692 180.458C538.525 204.889 542.259 229.336 546.251 253.74C546.817 257.196 545.733 258.091 542.67 258.82C527.599 262.403 512.588 266.239 497.546 269.943C490.706 271.627 483.841 273.212 476.601 274.934C475.869 263.882 475.175 253.407 474.378 242.139ZM342.951 198.57C347.469 194.359 352.91 192.588 358.647 194.708C365.739 197.329 370.576 202.896 371.42 210.387C371.891 214.566 370.698 219.502 368.682 223.253C365.881 228.466 359.69 228.03 356.058 223.286C353.355 219.756 353.833 215.919 354.193 211.896C354.318 210.493 352.969 208.957 352.293 207.481C351.004 208.585 348.8 209.547 348.601 210.821C348.068 214.242 347.39 218.201 348.604 221.206C350.556 226.036 349.541 229.326 346.564 233.171C339.226 242.649 339.18 254.927 348.936 262.824C349.863 263.574 350.009 265.287 350.518 266.553C348.915 266.98 346.956 268.2 345.782 267.673C343.123 266.479 340.928 264.297 338.406 262.743C332.603 259.168 331.054 254.115 332.712 247.724C335.083 238.581 335.731 229.362 335.059 219.874C334.509 212.118 336.177 204.563 342.951 198.57ZM428.884 166.84C432.682 166.332 436.472 165.752 440.279 165.33C449.167 164.345 449.074 164.389 448.97 173.447C448.938 176.212 447.93 177.168 445.311 177.4C419.276 179.706 393.249 182.095 367.217 184.426C365.969 184.538 364.693 184.324 363.43 184.261C363.161 183.756 362.892 183.25 362.623 182.745C365.287 180.426 367.875 178.009 370.648 175.829C372.151 174.647 373.89 173.225 375.659 173.004C393.126 170.828 410.622 168.881 428.884 166.84ZM319.777 452.154C304.057 452.949 288.283 454.909 272.631 454.198C258.147 453.539 243.774 450.133 229.401 447.65C227.096 447.252 223.325 446.701 224.171 442.897C225.014 439.104 228.195 440.987 230.556 441.202C230.976 441.241 231.391 441.365 231.8 441.481C250.953 446.885 270.546 448.797 290.345 448.128C309.505 447.48 328.597 446.07 345.949 436.419C347.194 435.726 349.342 436.656 351.07 436.832C350.41 438.46 350.22 440.73 349.015 441.614C340.551 447.818 330.488 449.849 319.777 452.154ZM388.589 202.694C385.991 203.908 375.996 202.052 374.046 199.886C371.515 197.075 369.087 194.172 366.254 190.89C369.287 190.526 372.025 190.13 374.777 189.877C397.531 187.789 420.288 185.749 443.04 183.643C449.707 183.026 449.939 183.144 450.253 189.92C450.303 191.001 450.159 192.091 450.09 193.494C442.643 194.116 435.459 194.823 428.26 195.263C425.323 195.443 422.344 195.132 419.397 194.888C414.482 194.482 409.553 193.4 404.674 193.61C398.276 193.886 392.417 196.039 388.589 202.694ZM119.021 454.112C115.15 453.225 111.192 452.593 107.457 451.313C106.159 450.868 105.411 448.819 104.413 447.502C105.966 446.849 107.481 445.803 109.082 445.65C110.705 445.495 112.408 446.244 114.082 446.56C129.911 449.548 145.826 451.446 161.946 449.636C168.276 448.926 174.538 447.588 180.873 446.944C182.365 446.793 184.025 448.29 185.607 449.028C184.536 450.312 183.634 451.818 182.337 452.804C181.393 453.522 179.942 453.628 178.691 453.877C159.07 457.791 139.42 457.185 119.021 454.112ZM394.944 219.019C396.847 219.542 398.883 219.791 400.624 220.644C403.943 222.27 406.539 224.746 406.445 228.789C406.357 232.578 403.657 234.597 400.513 235.817C393.852 238.402 387.206 237.889 380.665 235.177C377.399 233.823 375 231.615 375.091 227.929C375.185 224.117 376.982 220.719 380.884 219.945C385.227 219.085 389.766 219.216 394.944 219.019ZM423.024 212.212C415.316 216.544 403.461 215.797 396.804 210.56C393.375 207.862 393.602 204.396 397.367 201.948C403.731 197.81 417.505 198.781 423.219 203.769C426.673 206.785 426.72 208.201 423.024 212.212ZM189.228 213.046C190.383 217.864 191.839 222.64 192.52 227.524C192.738 229.095 190.912 230.951 190.022 232.677C188.773 231.415 187.448 230.216 186.317 228.856C185.917 228.374 186.064 227.474 185.838 226.807C182.804 217.846 180.102 208.749 176.55 199.997C174.715 195.477 171.201 191.662 168.801 187.331C168.153 186.162 168.804 184.272 168.858 182.713C170.392 182.924 172.137 182.753 173.401 183.452C174.677 184.157 175.756 185.584 176.439 186.938C180.702 195.387 184.83 203.903 189.228 213.046ZM276.774 211.701C274.341 204.614 272.425 197.29 269.322 190.51C266.453 184.238 262.17 178.626 258.839 172.542C258.069 171.136 258.643 168.994 258.599 167.191C260.335 167.688 262.095 168.117 263.791 168.726C264.231 168.884 264.46 169.609 264.8 170.063C273.943 182.296 280.262 195.83 283.264 210.822C283.805 213.526 285.393 217.518 281.214 218.352C277.106 219.172 277.791 214.83 276.774 211.701ZM371.705 254.563C368.197 251.867 364.414 249.452 361.277 246.376C359.171 244.311 360.398 241.982 362.739 240.348C366.322 237.848 369.955 238.495 373.675 239.917C377.768 241.481 381.925 242.884 385.973 244.556C387.631 245.24 390.459 246.659 390.348 247.369C390.059 249.227 388.773 251.258 387.294 252.539C382.886 256.357 377.632 255.944 371.705 254.563ZM141.267 385.595C146.166 385.078 151.06 384.285 155.965 384.218C157.377 384.199 159.876 386.149 160.025 387.414C160.337 390.068 157.867 390.714 155.573 390.566C145.48 389.918 136.633 393.16 128.518 398.931C126.647 400.262 124.08 401.655 122.741 398.855C122.185 397.691 123.507 394.544 124.838 393.755C129.897 390.754 135.308 388.348 141.267 385.595ZM466.147 174.932C477.844 173.434 489.538 171.91 501.24 170.447C510.406 169.302 519.576 168.171 528.761 167.186C530.465 167.003 532.247 167.545 533.994 167.753C533.942 168.209 533.891 168.666 533.84 169.122C533.188 169.316 532.549 169.606 531.884 169.689C507.655 172.679 483.425 175.664 459.187 178.577C458.051 178.714 456.836 178.189 455.657 177.972C455.662 177.453 455.667 176.934 455.672 176.415C458.911 175.95 462.15 175.484 466.147 174.932ZM124.389 371.876C123.524 371.252 122.659 370.628 121.718 369.949C127.158 365.233 142.628 367.325 146.4 373.554C138.873 376.296 131.938 374.51 124.389 371.876ZM238.976 378.779C237.602 378.159 236.228 377.538 234.742 376.867C239.726 371.385 252.071 370.924 257.725 376.025C252.158 380.524 246.018 380.295 238.976 378.779ZM355.264 182.597C354.345 181.204 352.888 179.881 352.691 178.392C352.556 177.361 354.031 175.278 355.013 175.126C356.73 174.86 358.621 175.717 361.176 176.261C358.776 178.924 357.268 180.598 355.264 182.597ZM540.401 167.34C540.693 166.083 540.985 164.826 541.277 163.569C541.799 163.517 542.322 163.466 542.844 163.414C543.304 165.186 543.911 166.939 544.131 168.74C544.196 169.266 543.159 169.927 542.627 170.526C541.899 169.672 541.171 168.817 540.401 167.34Z" fill="black"/>
    <path d="M360.129 353.068C363.222 351.267 366.212 349.835 368.76 347.838C377.886 340.687 378.063 330.842 369.299 323.228C362.98 317.737 355.355 315.196 347.248 313.876C342.03 313.027 341.83 312.5 343.37 307.557C344.622 303.538 346.274 299.352 346.21 295.264C345.934 277.621 328.211 265.44 311.415 270.951C306.058 272.709 305.138 271.801 304.675 266.019C304.388 262.439 303.934 258.393 302.041 255.572C300.532 253.32 296.865 252.044 293.918 251.353C290.532 250.559 289.214 253.39 288.032 256.221C284.49 264.708 279.516 272.189 270.374 275.34C259.165 279.204 249.761 274.889 241.423 267.609C238.663 265.199 236.245 262.346 233.938 259.481C231.22 256.105 228.105 254.324 223.607 255.033C220.817 255.473 217.875 255.705 215.115 255.282C213.587 255.047 212.295 253.272 210.896 252.191C212.284 251.348 213.656 249.801 215.062 249.771C228.974 249.468 242.169 246.421 254.014 239.059C258.102 236.518 261.756 232.869 264.71 229.035C267.412 225.528 266.371 222.326 262.136 220.991C257.362 219.486 252.186 218.505 247.201 218.568C233.998 218.737 221.911 222.849 210.765 230.063C206.504 232.821 205.121 236.027 205.269 240.998C205.66 254.079 203.59 266.742 197.395 278.535C190.139 292.348 177.525 299.045 163.846 295.919C154.879 293.869 147.657 288.648 142.115 281.656C121.335 255.445 114.564 225.657 121.659 193.1C123.241 185.837 126.831 178.486 131.258 172.472C142.223 157.575 159.659 156.277 174.71 168.254C187.551 178.471 194.654 192.395 199.941 207.478C200.409 208.812 200.505 210.403 201.317 211.456C202.155 212.543 203.781 213.948 204.849 213.789C216.042 212.113 214.489 213.637 213.821 203.337C212.811 187.739 214.743 172.741 224.208 159.539C228.903 152.989 235.5 149.943 244.674 148.525C241.268 145.581 238.813 143.183 236.087 141.147C205.641 118.406 153.639 121.196 126.632 154.717C111.487 173.514 103.361 194.497 104.303 218.75C104.424 221.86 105.225 224.943 105.376 228.054C105.45 229.57 104.75 231.122 104.4 232.658C102.849 232.171 100.967 232.086 99.8041 231.128C94.6177 226.857 88.8706 224.743 82.105 225.246C63.5606 226.624 58.2808 243.059 60.0865 254.813C61.6093 264.724 61.7455 264.703 51.7311 262.914C43.9796 261.53 34.8645 265.893 31.0638 272.809C27.7474 278.843 30.0052 288.435 35.7911 292.842C36.2414 293.185 36.8683 293.351 37.2164 293.764C38.5162 295.308 39.734 296.922 40.9825 298.509C39.2862 299.618 37.6596 300.857 35.8806 301.812C30.1656 304.88 23.8948 307.17 18.7513 310.99C8.85883 318.336 8.19946 334.442 16.7515 343.303C20.2946 346.974 21.9185 346.034 25.3753 342.396C31.2726 336.19 35.3876 329.499 37.8566 321.209C38.9057 317.686 43.2551 314.739 46.7249 312.485C49.1403 310.915 49.7696 309.656 49.2594 307.091C45.5571 288.478 52.7467 274.131 66.9312 262.632C68.4499 261.401 70.2769 260.385 72.1287 259.8C73.0495 259.509 74.8205 260.109 75.3393 260.885C75.7989 261.573 75.4366 263.422 74.7698 264.128C73.2285 265.76 71.3553 267.115 69.4893 268.397C57.911 276.354 50.1442 296.52 56.7861 310.173C58.968 314.658 58.2422 315.453 53.3996 316.378C47.057 317.591 40.8147 323.943 41.1045 330.32C41.3541 335.813 38.8638 338.439 34.6415 340.982C28.49 344.686 27.5778 351.967 32.5356 357.793C33.6984 355.526 34.4317 353.19 35.8767 351.443C41.062 345.171 47.1146 339.628 47.9551 330.617C48.1597 328.423 51.3747 326.196 53.6541 324.644C54.7762 323.879 56.9222 324.618 58.6049 324.676C58.1888 326.106 58.2151 328.011 57.2792 328.884C53.4179 332.483 50.4124 335.996 52.8875 341.875C53.2991 342.852 51.3953 345.627 49.936 346.42C45.1099 349.042 41.243 352.348 39.6548 357.738C38.1588 362.815 41.1022 367.436 46.5902 368.438C46.763 367.225 46.9327 366.021 47.1059 364.818C48.1219 357.757 51.4411 352.173 58.014 349.096C60.8896 347.749 61.6873 345.666 62.3844 342.88C63.1566 339.795 64.3564 336.664 66.1132 334.054C66.7934 333.043 69.5103 333.403 71.2994 333.138C71.113 334.636 71.0508 336.163 70.715 337.626C69.9722 340.863 68.5955 344.041 68.4128 347.295C68.2433 350.312 67.5171 352.08 64.5105 352.917C59.2785 354.372 55.5153 357.494 53.6481 362.802C52.5658 365.879 52.5757 368.737 54.7549 371.178C57.0626 373.763 60.324 374.514 63.3581 373.23C66.6913 371.82 69.9148 369.864 72.7399 367.592C82.5746 359.68 88.2211 349.187 90.2134 336.839C91.1949 330.757 88.5766 325.396 85.1799 320.511C78.0468 310.252 79.0283 300.585 88.1478 292.413C88.4654 292.128 88.7452 291.635 89.0956 291.58C91.5546 291.198 95.4912 289.807 96.2274 290.787C98.6404 294 95.0052 295.173 92.871 296.562C86.5652 300.666 84.8069 308.892 88.8797 315.15C90.6525 317.874 92.5862 320.558 93.8946 323.506C96.7376 329.91 97.8703 336.524 95.1745 343.382C94.1953 345.873 93.5934 348.512 92.8311 351.045C93.1829 351.284 93.4355 351.598 93.6275 351.565C97.1275 350.955 106.62 351.846 110.105 353.113C125.497 358.71 141.447 359.625 157.601 358.678C167.616 358.092 177.236 356.147 186.276 351.373C188.073 350.424 191.679 351.24 193.623 352.51C202.768 358.481 212.674 361.818 223.491 362.965C238.88 364.596 253.489 361.671 267.524 355.634C272.818 353.356 277.669 350.062 282.908 347.635C284.553 346.873 287.323 346.619 288.708 347.501C311.152 361.788 334.701 361.824 359.005 353.424C359.274 353.331 359.55 353.26 360.129 353.068Z" fill="#F7F3F0"/>
    <path d="M474.43 242.535C475.175 253.407 475.869 263.882 476.601 274.933C483.841 273.212 490.706 271.627 497.546 269.943C512.588 266.239 527.599 262.403 542.67 258.82C545.733 258.091 546.817 257.196 546.251 253.74C542.259 229.336 538.525 204.889 534.692 180.458C534.456 178.953 534.083 177.469 533.731 175.767C512.59 178.232 491.747 180.662 470.425 183.149C471.759 203.049 473.069 222.594 474.43 242.535Z" fill="#F4F0ED"/>
    <path d="M342.703 198.752C336.178 204.563 334.51 212.118 335.059 219.874C335.731 229.362 335.084 238.581 332.712 247.724C331.054 254.115 332.604 259.168 338.406 262.743C340.929 264.297 343.123 266.479 345.782 267.673C346.957 268.2 348.916 266.98 350.518 266.553C350.01 265.287 349.863 263.574 348.937 262.824C339.18 254.927 339.226 242.649 346.564 233.171C349.541 229.326 350.556 226.036 348.605 221.206C347.39 218.201 348.068 214.242 348.601 210.821C348.8 209.547 351.004 208.585 352.294 207.481C352.969 208.957 354.319 210.493 354.193 211.896C353.833 215.919 353.355 219.756 356.058 223.286C359.691 228.03 365.881 228.466 368.683 223.253C370.698 219.502 371.891 214.566 371.421 210.387C370.577 202.896 365.739 197.329 358.648 194.708C352.911 192.588 347.469 194.359 342.703 198.752Z" fill="#F2EEEA"/>
    <path d="M428.497 166.855C410.623 168.881 393.127 170.828 375.659 173.004C373.89 173.225 372.151 174.646 370.648 175.828C367.875 178.009 365.288 180.426 362.623 182.744C362.892 183.25 363.161 183.756 363.43 184.261C364.693 184.324 365.969 184.538 367.217 184.426C393.249 182.095 419.277 179.705 445.311 177.4C447.93 177.168 448.938 176.212 448.97 173.446C449.074 164.388 449.167 164.345 440.279 165.33C436.472 165.751 432.682 166.332 428.497 166.855Z" fill="#F1EDE9"/>
    <path d="M320.131 452.053C330.488 449.849 340.552 447.818 349.015 441.614C350.221 440.73 350.411 438.46 351.071 436.832C349.343 436.656 347.195 435.726 345.949 436.419C328.597 446.07 309.505 447.48 290.345 448.128C270.546 448.797 250.953 446.885 231.801 441.481C231.392 441.365 230.976 441.24 230.556 441.202C228.196 440.987 225.014 439.104 224.171 442.897C223.326 446.701 227.097 447.252 229.401 447.65C243.774 450.133 258.147 453.539 272.632 454.198C288.284 454.909 304.057 452.949 320.131 452.053Z" fill="#EBE7E6"/>
    <path d="M388.773 202.422C392.417 196.039 398.276 193.885 404.674 193.61C409.553 193.4 414.482 194.482 419.397 194.888C422.344 195.131 425.323 195.443 428.26 195.263C435.459 194.823 442.643 194.115 450.09 193.494C450.159 192.091 450.303 191.001 450.253 189.92C449.939 183.144 449.707 183.026 443.04 183.643C420.288 185.749 397.531 187.789 374.778 189.877C372.026 190.13 369.287 190.526 366.254 190.89C369.087 194.172 371.515 197.075 374.046 199.886C375.996 202.052 385.991 203.908 388.773 202.422Z" fill="#F1ECE8"/>
    <path d="M119.39 454.16C139.42 457.185 159.07 457.791 178.691 453.877C179.942 453.628 181.393 453.522 182.337 452.804C183.634 451.818 184.536 450.312 185.607 449.028C184.025 448.29 182.365 446.793 180.873 446.944C174.538 447.588 168.276 448.925 161.946 449.636C145.826 451.446 129.911 449.548 114.082 446.56C112.408 446.244 110.705 445.495 109.082 445.65C107.481 445.803 105.966 446.848 104.413 447.502C105.411 448.819 106.159 450.868 107.457 451.313C111.192 452.593 115.15 453.225 119.39 454.16Z" fill="#EEEAE9"/>
    <path d="M394.582 218.967C389.766 219.216 385.227 219.085 380.884 219.945C376.982 220.719 375.185 224.117 375.091 227.929C375 231.615 377.399 233.823 380.665 235.177C387.206 237.889 393.852 238.402 400.513 235.817C403.657 234.597 406.357 232.578 406.445 228.789C406.539 224.747 403.943 222.27 400.624 220.644C398.883 219.791 396.847 219.542 394.582 218.967Z" fill="#F2EEEA"/>
    <path d="M423.256 211.999C426.721 208.201 426.673 206.785 423.219 203.769C417.506 198.781 403.731 197.81 397.368 201.948C393.602 204.396 393.375 207.862 396.804 210.56C403.461 215.797 415.316 216.544 423.256 211.999Z" fill="#F0ECE8"/>
    <path d="M189.116 212.721C184.83 203.903 180.702 195.386 176.439 186.938C175.756 185.584 174.677 184.157 173.401 183.452C172.137 182.753 170.392 182.924 168.858 182.713C168.804 184.272 168.153 186.162 168.801 187.331C171.201 191.662 174.715 195.476 176.55 199.997C180.102 208.749 182.804 217.846 185.838 226.806C186.064 227.474 185.917 228.374 186.317 228.856C187.448 230.216 188.773 231.414 190.022 232.677C190.912 230.951 192.738 229.095 192.52 227.523C191.839 222.639 190.383 217.864 189.116 212.721Z" fill="#EAE7E5"/>
    <path d="M276.83 212.045C277.792 214.83 277.106 219.172 281.214 218.352C285.393 217.518 283.805 213.526 283.264 210.822C280.263 195.83 273.943 182.296 264.8 170.063C264.461 169.609 264.231 168.884 263.792 168.726C262.096 168.117 260.335 167.688 258.599 167.191C258.643 168.994 258.069 171.136 258.839 172.542C262.17 178.626 266.453 184.238 269.323 190.51C272.425 197.29 274.341 204.614 276.83 212.045Z" fill="#EEEAE9"/>
    <path d="M372.034 254.669C377.633 255.944 382.887 256.357 387.294 252.539C388.773 251.258 390.059 249.227 390.348 247.369C390.459 246.659 387.631 245.24 385.973 244.556C381.926 242.884 377.768 241.481 373.675 239.917C369.955 238.495 366.322 237.848 362.739 240.348C360.398 241.982 359.172 244.311 361.278 246.376C364.414 249.452 368.198 251.867 372.034 254.669Z" fill="#F2EEEA"/>
    <path d="M140.928 385.657C135.309 388.348 129.897 390.754 124.839 393.755C123.507 394.544 122.185 397.69 122.742 398.855C124.08 401.655 126.647 400.262 128.518 398.931C136.633 393.16 145.481 389.918 155.573 390.566C157.868 390.713 160.337 390.068 160.025 387.414C159.876 386.149 157.377 384.199 155.965 384.218C151.061 384.285 146.166 385.078 140.928 385.657Z" fill="#EBE7E6"/>
    <path d="M465.768 174.975C462.15 175.484 458.911 175.95 455.672 176.415C455.667 176.934 455.662 177.453 455.657 177.972C456.836 178.189 458.051 178.714 459.187 178.577C483.425 175.664 507.655 172.679 531.884 169.689C532.549 169.606 533.188 169.316 533.839 169.122C533.891 168.666 533.942 168.209 533.994 167.753C532.247 167.545 530.465 167.003 528.761 167.185C519.576 168.171 510.406 169.302 501.24 170.447C489.538 171.91 477.844 173.434 465.768 174.975Z" fill="#E2DEDB"/>
    <path d="M124.71 371.973C131.938 374.51 138.873 376.296 146.4 373.554C142.628 367.325 127.158 365.233 121.718 369.948C122.659 370.628 123.524 371.252 124.71 371.973Z" fill="#ECE8E6"/>
    <path d="M239.324 378.85C246.018 380.295 252.158 380.524 257.725 376.025C252.071 370.924 239.727 371.385 234.742 376.866C236.228 377.538 237.602 378.159 239.324 378.85Z" fill="#EAE7E5"/>
    <path d="M355.511 182.434C357.268 180.597 358.776 178.924 361.176 176.26C358.621 175.717 356.73 174.859 355.013 175.125C354.031 175.277 352.556 177.361 352.691 178.392C352.888 179.881 354.345 181.204 355.511 182.434Z" fill="#E0DAD4"/>
    <path d="M540.422 167.651C541.171 168.817 541.899 169.671 542.627 170.526C543.159 169.927 544.196 169.266 544.131 168.74C543.911 166.939 543.304 165.186 542.845 163.414C542.322 163.465 541.799 163.517 541.277 163.569C540.985 164.826 540.693 166.083 540.422 167.651Z" fill="#D2CECC"/>
    <path d="M495.028 141.878C495.933 140.073 496.57 138.42 497.207 136.766C495.272 136.76 492.867 136.002 491.48 136.87C483.21 142.044 475.1 147.488 467.143 153.132C465.997 153.945 465.962 156.326 465.413 157.981C467.187 157.983 469.392 158.673 470.665 157.876C478.811 152.776 486.752 147.349 495.028 141.878Z" fill="black"/>
    <path d="M467.99 130.205C465.227 128.336 463.668 130.07 462.476 131.819C459.115 136.749 455.791 141.72 452.831 146.892C452.2 147.994 453.172 150.013 453.406 151.61C454.835 151.129 456.863 151.087 457.591 150.092C461.197 145.168 464.567 140.058 467.76 134.854C468.456 133.72 468.086 131.932 467.99 130.205Z" fill="black"/>
    <path d="M514.541 253.862C514.043 254.094 513.663 254.236 513.401 254.287C513.139 254.338 512.655 254.466 511.948 254.671L511.359 254.786C511.228 254.811 511.058 254.81 510.849 254.783C510.718 254.809 510.587 254.834 510.456 254.86C510.26 254.898 509.959 254.922 509.553 254.933C509.226 254.997 508.88 254.962 508.515 254.829C508.242 254.475 508.035 254.108 507.893 253.728C507.829 253.401 507.759 253.041 507.683 252.648C507.505 251.732 507.274 250.894 506.991 250.134C506.694 249.309 506.476 248.536 506.336 247.816L504.142 236.527C503.768 235.649 503.491 234.752 503.313 233.836C503.188 232.842 503.055 231.985 502.915 231.265C502.481 229.38 502.019 227.704 501.531 226.237C501.107 224.757 500.834 223.35 500.71 222.016C500.543 221.505 500.434 221.119 500.383 220.857C500.332 220.595 500.288 220.196 500.252 219.66C500.165 218.862 499.973 218.05 499.677 217.225C499.446 216.387 499.254 215.575 499.102 214.79L497.041 204.188C496.648 204.265 496.379 204.453 496.234 204.753C496.154 205.04 496.016 205.203 495.819 205.241C495.134 206.257 494.581 206.908 494.161 207.193C493.86 207.387 493.577 207.68 493.313 208.071C493.102 208.383 492.846 208.637 492.544 208.832C492.348 208.87 492.211 208.862 492.133 208.81C492.042 208.692 491.879 208.553 491.645 208.395C491.241 208.066 490.87 207.731 490.532 207.389C490.259 207.035 489.876 206.634 489.382 206.186C489.225 206.081 488.952 205.896 488.561 205.633C488.235 205.357 488.093 205.147 488.133 205.003C488.331 204.625 488.509 204.319 488.667 204.084C488.891 203.837 489.147 203.583 489.436 203.323C490.727 201.578 491.94 199.781 493.074 197.93C493.365 197.33 493.662 196.763 493.966 196.229C494.269 195.694 494.534 195.134 494.759 194.546L495.708 193.14C495.905 193.101 496.101 193.063 496.297 193.025C496.546 192.909 496.841 192.851 497.181 192.853C498.188 192.793 499.176 192.635 500.145 192.379C501.101 192.057 502.142 191.821 503.267 191.67L503.954 191.537C504.294 191.539 504.496 191.703 504.559 192.03C504.623 192.358 504.673 192.789 504.709 193.326C504.824 193.914 504.932 194.471 505.034 194.994C505.135 195.518 505.191 196.152 505.2 196.898C505.302 197.421 505.371 197.951 505.407 198.487C505.443 199.023 505.5 199.488 505.576 199.881L507.026 207.341C507.006 208.635 507.156 209.93 507.476 211.227C507.861 212.51 508.044 213.629 508.026 214.583C508.103 214.976 508.146 215.375 508.157 215.78C508.233 216.173 508.303 216.533 508.367 216.86C508.481 217.449 508.583 217.972 508.672 218.431C508.827 218.876 508.955 219.36 509.057 219.884C509.184 220.538 509.22 221.075 509.166 221.493C509.176 221.898 509.239 222.395 509.354 222.984L511.91 236.138C511.892 237.092 511.999 237.989 512.229 238.827C512.46 239.665 512.566 240.561 512.548 241.515C512.625 241.908 512.734 242.294 512.875 242.674C513.07 242.976 513.173 243.329 513.183 243.735C513.232 244.336 513.295 244.834 513.371 245.226C513.448 245.619 513.524 246.012 513.6 246.404C513.677 246.797 513.708 247.13 513.693 247.405C513.666 247.614 513.69 247.915 513.767 248.307C513.972 249.015 514.106 249.702 514.167 250.369C514.229 251.036 514.33 251.729 514.47 252.449C514.546 252.842 514.57 253.313 514.541 253.862Z" fill="black"/>
    <path d="M94.9069 131.781L96.0647 133.867C95.4076 132.577 94.9069 131.781 94.9069 131.781Z" fill="white"/>
    <path d="M126.555 94.0703L125.027 95.3167C124.865 95.4458 124.678 95.638 124.516 95.767C125.279 95.2475 125.952 94.6683 126.555 94.0703Z" fill="black"/>
    <path d="M111.742 99.1724C107.649 98.7456 103.958 96.9374 99.9837 95.9883C91.919 94.0935 82.7016 95.9055 76.0602 100.782C88.2772 101.212 100.447 101.665 112.664 102.095C115.518 102.183 117.503 101.339 119.376 100.083L124.332 95.9589C120.724 98.4049 116.088 99.6338 111.742 99.1724Z" fill="black"/>
    <path d="M124.516 95.767C124.678 95.638 124.865 95.4458 125.027 95.3167L124.309 95.918C124.401 95.8738 124.424 95.8111 124.516 95.767Z" fill="black"/>
    <path d="M159.931 25.1657C159.931 25.1657 156.251 18.5399 145.079 13.7824C133.907 9.02482 107.323 15.8643 96.0367 26.2679C84.7521 36.6712 89.1332 48.0325 85.4009 51.5204C81.6475 54.9672 61.428 62.9598 54.5846 79.6771C47.7398 96.3948 57.739 104.195 57.7362 107.559C57.7349 110.923 49.405 123.28 56.7244 141.62C64.0437 159.96 89.9027 151.811 95.9203 147.284C100.271 143.966 97.7662 137.246 96.0662 133.867L94.9069 131.781C94.9069 131.781 95.4076 132.577 96.0662 133.867L111.508 161.679C111.508 161.679 124.568 166.364 153.443 151.757C182.318 137.151 192.163 122.364 192.163 122.364L174.108 89.8486C174.108 89.8486 188.396 78.0125 189.96 68.833C191.547 59.6944 187.911 41.2525 180.537 33.0263C173.004 24.825 159.931 25.1657 159.931 25.1657Z" fill="white"/>
    <path d="M159.931 25.1657C159.931 25.1657 156.251 18.5399 145.079 13.7824C133.907 9.02482 107.321 15.8646 96.0367 26.2679C94.4144 27.7663 93.1386 29.2548 92.0683 30.8002C96.8891 29.2758 102.118 28.695 107.177 29.0744C116.791 29.8675 125.665 34.0658 132.665 39.8315C137.858 44.1312 142.166 49.5771 143.293 55.9205C144.419 62.2641 141.673 69.5241 135.457 72.9561C131.747 67.4315 127.922 61.8064 122.059 58.0856C116.263 54.3838 107.874 53.0583 101.702 56.676C102.943 63.12 108.893 67.6273 113.111 72.8057C117.331 77.9839 119.664 86.0797 114.267 90.6723C109.382 94.8149 101.821 93.3005 95.2663 92.8588C85.2818 92.2421 74.9736 95.1433 66.9457 100.785C67.0291 105.039 72.6507 107.375 77.3486 106.893C82.0466 106.41 86.3909 104.13 91.0683 103.295C95.7473 102.459 101.49 103.754 102.749 107.81C103.402 109.827 102.968 112.517 104.962 113.583C106.542 114.432 108.665 113.626 110.306 112.792C120.423 107.861 130.585 102.908 140.724 98.0181C143.565 96.6108 146.683 95.1748 149.879 95.4602C152.571 95.6764 154.885 97.1074 156.944 98.6079C162.141 102.389 166.525 107.126 169.706 112.437C170.297 113.396 170.841 114.482 170.626 115.568C170.436 116.487 169.763 117.273 169.068 117.916C165.15 121.699 159.953 124.127 155.032 126.734C144.359 132.345 134.434 139.202 125.586 147.045C124.659 147.902 123.685 148.78 123.195 149.894C122.539 151.449 122.962 153.161 123.619 154.658C124.727 157.182 126.552 159.311 128.749 161.057C135.088 159.636 143.255 156.877 153.35 151.801C182.226 137.195 192.071 122.408 192.071 122.408L174.016 89.8926C174.016 89.8926 188.303 78.0564 189.868 68.8769C191.455 59.7382 187.817 41.2966 180.445 33.0702C173.004 24.825 159.931 25.1657 159.931 25.1657Z" fill="white"/>
    <path d="M161.886 22.1632C159.993 19.703 155.427 14.7421 146.573 11C136.409 6.69232 117.786 10.6124 105.407 16.5194C100.603 18.8118 96.6486 21.3714 93.6827 24.1318C85.6881 31.5165 84.708 39.4341 84.0487 44.664C83.8051 46.4357 83.5332 48.8935 82.9774 49.3657C82.3518 49.9228 80.4792 51.0751 78.4462 52.2525C70.4016 57.0222 56.9724 64.9309 51.3244 78.646C45.7218 92.3392 50.5374 100.802 53.1032 105.424C53.5585 106.242 54.1254 107.265 54.2381 107.677C54.142 108.136 53.7648 109.351 53.4124 110.295C51.4382 115.894 47.3938 127.55 53.4711 142.706C55.8199 148.621 60.0944 152.636 66.1309 154.67C76.3011 158.043 88.5024 154.446 94.1372 151.756C95.6613 151.029 96.9331 150.268 97.928 149.534C98.6683 148.973 99.2956 148.313 99.8516 147.632L108.436 163.092C108.777 163.706 109.349 164.21 110.083 164.48C110.656 164.671 123.925 169.206 151.686 155.958C152.747 155.452 153.856 154.922 154.896 154.374C184.28 139.525 194.447 124.481 194.913 123.845C195.518 122.936 195.55 121.834 195.049 120.935L178.086 90.3821C182.303 86.6111 191.76 77.3381 193.134 69.1812C194.867 58.9381 190.775 39.6784 183.015 31.0681C176.442 23.7539 166.165 22.3978 161.886 22.1632ZM187.06 62.7669C187.479 65.2055 187.443 66.9299 186.672 68.4878C185.993 69.8979 184.697 71.1379 182.59 72.6082C178.311 75.6333 173.167 77.3121 167.957 78.453C163.899 79.3543 162.259 77.1363 162.379 73.3538C162.446 70.7357 163.545 68.1929 164.416 65.6563C167.544 56.6621 167.711 46.4415 162.43 38.6141C163.578 42.1537 164.449 45.8256 164.973 49.5072C165.302 51.6783 165.471 53.8746 165.293 56.0806C164.705 63.8627 159.707 70.7491 154.094 76.5315C152.795 77.8755 151.331 79.764 149.69 80.8059C147.817 81.9582 145.235 82.4659 143.159 83.3536C139.926 84.7927 136.109 87.4937 132.883 84.7384C131.329 83.4107 130.652 81.4571 129.976 79.6068C127.495 72.8234 124.441 65.744 118.191 61.4317C115.809 59.7743 113.057 58.6044 110.325 57.5797C118.729 63.2442 124.997 71.3766 127.991 80.5545C129.767 86.0703 129.545 91.1428 125.072 95.2948L126.6 94.0483C125.952 94.6683 125.281 95.2474 124.563 95.7449C124.494 95.8298 124.401 95.874 124.285 95.9811C122.479 97.4637 120.996 98.8957 119.354 100.042L117.432 101.631C113.519 104.792 109.377 107.647 104.348 109.427C118.512 104.841 130.158 95.2996 143.825 89.606C148.326 87.7168 153.171 86.2329 158.05 86.2849C170.406 86.4417 174.012 96.6203 178.622 104.923C181.824 110.69 185.004 116.416 188.206 122.183C185.093 126.048 174.467 137.638 151.852 149.101C150.812 149.649 149.795 150.135 148.78 150.619C148.595 150.707 148.455 150.773 148.271 150.862C143.059 152.314 131.674 160.972 112.485 160.972C110.886 155.642 122.08 149.779 122.08 149.779C125.811 147.114 144.467 138.586 144.467 138.586C144.467 138.586 127.41 141.838 116.216 149.779C114.084 151.623 113.018 151.911 110.886 154.576C111.097 154.217 110.695 153.374 110.513 153.047C109.082 150.472 108.214 149.541 110.121 146.871C111.354 145.093 112.633 143.397 114.164 141.838C116.668 139.298 119.72 137.324 122.749 135.309C117.311 136.352 112.183 139.006 108.358 142.746C108.126 142.96 107.87 143.237 107.502 143.31C107.294 143.358 107.088 143.3 106.881 143.244C104.195 142.404 102.787 139.869 101.582 137.701C100.492 135.738 99.1911 134.445 97.777 132.74C94.4462 128.845 94.3767 122.722 95.9077 118.007C96.2604 116.959 96.728 115.908 97.5853 115.137C96.223 115.839 95.3392 117.089 94.525 118.253C93.0363 120.412 91.7302 122.691 91.0909 125.117C90.2366 128.525 91.4052 132.21 93.0636 135.196C94.8553 138.842 96.0407 143.294 93.8436 144.912C93.5196 145.171 92.7551 145.691 91.2778 146.396C85.319 149.239 75.6838 151.25 68.7509 148.97C64.596 147.59 61.6021 144.724 59.8854 140.473C54.5761 127.227 58.0551 117.289 59.9366 111.942C60.6174 110.013 61.0886 108.65 61.1209 107.445C61.1101 105.846 60.3141 104.415 59.2693 102.534C56.839 98.2611 53.1829 91.7798 57.777 80.5855C62.6049 68.8656 74.8321 61.634 82.1364 57.3206C84.772 55.7527 86.6673 54.6413 87.8715 53.5492C90.1193 51.4937 90.4631 48.5357 90.8562 45.1403C91.4681 40.2439 92.2272 34.1389 98.5073 28.2967C100.94 26.0492 104.386 23.8359 108.496 21.8744C120.923 15.9452 136.704 13.5362 143.678 16.5202C153.611 20.7308 157.02 26.5542 157.043 26.5951C157.61 27.6178 158.757 28.2089 160.023 28.174C160.138 28.1708 171.577 27.9376 177.877 34.9684C184.723 42.6696 185.381 53.3241 187.06 62.7669Z" fill="black"/>
    <path d="M133.708 17.0867C127.545 16.6133 121.225 18.5946 116.114 21.9129C115.466 22.3255 114.795 22.8007 114.469 23.4741C114.141 24.1477 114.204 24.9972 114.845 25.4156C119.877 23.4285 125.822 22.3505 130.662 24.4384C132.589 25.2781 134.168 26.5423 135.747 27.8069C137.53 29.2319 139.315 30.6569 141.1 32.0816C142.129 32.8839 143.113 33.7079 144.398 34.1293C145.637 34.5726 147.18 34.6129 148.312 33.9172C149.352 33.2656 149.891 32.1293 150.037 31.0249C150.305 29.0863 149.652 27.1733 148.675 25.5184C145.719 20.6167 139.873 17.5599 133.708 17.0867Z" fill="black"/>
    <path d="M86.1288 133.124C85.5541 133.14 85.0213 133.445 84.5368 133.729C81.694 135.344 76.6357 137.809 73.4001 136.508C73.1024 136.391 72.8501 136.253 72.5751 136.074C70.2853 134.476 69.5049 131.071 65.841 131.733C65.4264 131.828 64.9649 131.944 64.5977 131.809C64.2304 131.674 63.9801 131.328 63.7991 131.001C63.2098 129.833 61.8227 121.338 59.2536 126.392C58.5298 127.824 58.4915 129.86 58.5494 131.333C58.5935 134.674 59.6964 137.925 61.7711 140.608C65.3956 145.243 71.8893 147.887 78.2447 147.336C81.9293 147.028 85.6445 145.617 87.851 142.856C90.0577 140.096 90.1812 136.002 87.5976 133.769C87.1627 133.407 86.7049 133.108 86.1288 133.124Z" fill="black"/>
</svg>
