<svg width="432" height="292" viewBox="0 0 432 292" fill="none" xmlns="http://www.w3.org/2000/svg">
<path d="M206.085 102.456C206.68 102.457 206.68 102.457 207.287 102.458C225.301 102.539 241.766 109.75 254.786 122.343C261.823 129.724 266.548 138.783 268.844 148.735C268.938 149.094 269.033 149.453 269.13 149.823C269.967 153.182 270.076 156.393 270.049 159.847C270.053 160.379 270.057 160.911 270.061 161.459C270.053 164.406 269.791 167.061 269.082 169.919C268.789 171.198 268.736 172.394 268.777 173.704C268.81 174.76 268.81 174.76 268.844 175.838C269.377 176.075 269.377 176.075 269.921 176.317C272.978 177.753 275.093 178.867 276.877 181.801C277.384 183.411 277.685 185.013 277.948 186.68C278.124 187.584 278.302 188.487 278.484 189.39C279.04 189.41 279.596 189.43 280.17 189.451C286.76 189.741 291.985 190.192 296.692 195.353C299.851 199.451 299.757 203.86 299.37 208.904C298.524 212.434 296.746 215.25 294.59 218.115C293.871 219.474 294.123 219.943 294.55 221.372C294.892 221.396 295.234 221.42 295.587 221.445C297.172 221.562 298.756 221.687 300.34 221.812C301.148 221.869 301.148 221.869 301.971 221.928C310.662 222.635 319.238 225.732 325.58 231.978C330.307 237.633 330.916 243.524 330.431 250.643C329.026 259.537 322.716 266.459 315.76 271.57C307.073 277.62 297.826 279.977 287.387 280.05C286.719 280.058 286.719 280.058 286.037 280.065C282.355 280.046 278.837 279.622 275.638 277.611C275.298 277.407 274.958 277.203 274.607 276.993C272.859 275.376 272.134 273.786 271.932 271.386C271.899 269.641 271.917 267.905 271.957 266.16C271.964 265.554 271.971 264.948 271.979 264.324C271.997 262.835 272.024 261.347 272.057 259.858C271.173 259.679 270.29 259.501 269.379 259.316C268.578 261.75 268.189 264.048 267.907 266.6C266.19 279.271 258.713 289.416 249.029 297.261C240.659 303.379 231.319 305.095 221.18 304.308C219.037 303.845 217.235 303.143 215.289 302.139C214.916 301.983 214.542 301.826 214.157 301.665C208.242 299.061 204.261 293.943 201.748 288.061C200.335 284.252 199.684 281.082 199.819 276.993C199.836 276.208 199.853 275.424 199.868 274.64C199.895 273.417 199.926 272.195 199.971 270.972C200.156 265.826 199.971 262.31 196.545 258.232C194.605 254.662 194.431 250.848 194.938 246.849C195.594 244.858 196.485 243.181 197.616 241.428C197.981 240.858 198.345 240.288 198.721 239.7C201.773 236.246 206.375 234.066 210.882 233.728C211.407 233.708 211.931 233.688 212.471 233.668C213.328 233.634 213.328 233.634 214.202 233.599C214.793 233.578 215.384 233.556 215.992 233.534C216.593 233.511 217.194 233.487 217.813 233.463C219.292 233.406 220.772 233.351 222.251 233.297C222.075 232.582 221.898 231.866 221.716 231.129C218.214 230.321 214.789 229.863 211.204 229.636C209.934 229.503 209.934 229.503 209.398 228.961C209.083 225.929 209.322 223.838 211.084 221.317C214.308 217.971 218.166 216.837 222.686 216.764C227.075 216.878 230.336 217.629 233.498 220.83C236.306 224.786 236.664 229.094 236.175 233.839C234.802 238.896 232.481 242.982 228.029 245.75C224.774 247.547 221.554 248.877 217.856 249.402C216.886 249.463 216.886 249.463 216.36 250.101C216.339 251.004 216.337 251.908 216.36 252.811C219.25 252.928 221.691 252.928 224.393 251.727C224.747 251.37 225.1 251.012 225.465 250.643C226.309 250.238 227.155 249.835 228.008 249.447C233.35 246.981 236.768 243.807 239.018 238.199C240.5 233.767 240.891 227.81 238.92 223.472C238.545 222.77 238.166 222.07 237.782 221.372C237.408 220.293 237.043 219.212 236.711 218.119C237.587 217.036 238.011 216.526 239.416 216.377C242.773 216.793 245.028 217.551 247.242 220.317C248.847 222.604 249.982 224.472 250.1 227.334C250.126 227.682 250.152 228.03 250.179 228.389C250.466 234.613 248.448 240.41 244.445 245.121C242.269 247.234 239.85 248.165 237.006 249.093C235.763 249.517 234.652 250.019 233.498 250.643C233.475 251.546 233.476 252.45 233.498 253.354C233.674 253.532 233.851 253.711 234.033 253.896C237.852 253.629 240.914 252.929 243.673 250.101C244.44 249.544 245.21 248.991 245.983 248.441C250.538 244.856 252.879 239.522 253.848 233.839C254.08 230.048 253.987 226.249 253.848 222.456C256.721 222.249 256.721 222.249 258.237 223.172C261.341 226.109 263.888 228.661 264.091 233.157C263.839 239.533 261.505 244.664 257.162 249.288C254.653 251.625 252.087 253.459 249.029 254.98C248.525 255.231 248.021 255.481 247.501 255.74C242.375 258.006 237.421 258.331 231.891 258.774C231.891 264.141 231.891 269.507 231.891 275.036C232.775 275.215 233.658 275.394 234.569 275.578C235.213 274.817 235.847 274.048 236.477 273.274C236.831 272.847 237.185 272.419 237.55 271.979C238.44 270.779 238.44 270.779 238.217 269.518C237.807 268.468 237.807 268.468 236.945 267.515C235.922 265.984 236.017 264.92 236.175 263.111C237.212 262.061 239.042 262.084 240.426 261.823C250.353 259.862 256.69 256.128 262.953 247.933C263.272 247.516 263.592 247.099 263.921 246.669C267.409 241.783 268.609 236.01 267.773 230.045C266.268 225.082 263.692 222.166 259.204 219.745C257.646 219.023 256.442 218.684 254.738 218.598C251.539 218.432 250.063 217.922 247.752 215.68C244.665 212.782 241.248 213.079 237.253 213.131C235.682 213.132 235.682 213.132 234.569 213.783C230.843 213.906 230.843 213.906 229.079 213.516C222.682 212.32 216.103 212.918 210.536 216.391C208.013 218.205 206.638 219.996 205.649 222.998C205.68 223.548 205.712 224.098 205.744 224.664C205.825 226.838 205.752 228.502 205.114 230.587C203.355 232.05 201.58 232.938 199.541 233.926C195.154 236.069 192.767 240.129 191.108 244.625C189.674 249.935 190.809 254.845 192.796 259.858C193.13 260.412 193.13 260.412 193.47 260.977C195.729 264.845 195.793 268.396 195.565 272.778C195.507 273.929 195.476 275.079 195.448 276.231C195.236 281.782 195.236 281.782 193.942 283.09C190.753 284.814 187.139 284.742 183.696 283.824C181.682 283.1 179.838 282.351 178.014 281.215C176.118 280.096 174.545 280.026 172.446 280.457C170.661 281.191 168.943 282.025 167.211 282.879C161.619 285.566 155.474 286.572 149.365 285.314C147.808 284.518 147.142 283.566 146.204 282.083C145.827 280.65 145.547 279.337 145.334 277.882C145.202 277.103 145.07 276.323 144.938 275.544C144.749 274.359 144.56 273.173 144.373 271.987C143.017 264.595 138.323 258.54 132.614 253.929C125.358 249.209 116.292 247.926 107.957 249.63C103.268 250.693 99.0609 252.283 95.2602 255.359C94.256 256.064 94.256 256.064 92.8167 255.928C91.5783 255.522 91.5783 255.522 91.0428 254.98C90.9278 251.255 92.0741 248.186 94.256 245.223C95.225 244.309 96.1996 243.498 97.2789 242.722C98.2544 241.887 98.2544 241.887 98.0048 239.802C95.0754 239.923 93.5199 240.584 91.3817 242.622C87.6381 246.792 85.8858 251.72 86.0262 257.332C86.3428 259.654 87.2303 261.962 88.9006 263.653C90.8973 263.89 91.8464 263.831 93.5468 262.7C94.0128 262.276 94.4788 261.853 94.9589 261.417C101.08 256.091 106.179 253.185 114.372 253.116C114.841 253.111 115.309 253.105 115.791 253.1C118.768 253.14 121.314 253.631 124.133 254.599C125.25 254.958 126.301 255.161 127.46 255.319C131.146 256.2 134.58 259.957 136.564 263.111C136.664 264.872 136.664 264.872 136.564 266.363C134.584 265.601 132.745 264.69 130.874 263.687C123.496 259.984 115.391 259.015 107.41 261.383C105.446 262.06 103.829 262.764 102.289 264.195C102.11 265.618 102.11 265.618 102.289 266.905C104.51 267.142 105.936 266.76 107.91 265.825C111.02 264.53 113.79 264.45 117.117 264.534C117.915 264.535 117.915 264.535 118.729 264.536C121.677 264.571 124.133 264.876 126.924 265.821C127.384 265.894 127.844 265.966 128.318 266.041C132.988 267.212 136.697 271.674 139.242 275.578C140.014 277.142 139.828 278.515 139.811 280.253C139.806 280.898 139.801 281.542 139.796 282.206C139.787 282.95 139.787 282.95 139.777 283.709C139.247 283.24 138.717 282.77 138.171 282.286C130.283 275.472 123.093 272.073 112.465 272.868C107.424 273.518 103.37 275.006 99.0759 277.746C99.0759 278.641 99.0759 279.535 99.0759 280.457C101.342 281.13 102.395 280.879 104.465 279.779C112.062 276.064 118.359 276.149 126.389 278.289C129.727 279.466 132.238 281.47 134.69 284.014C135.955 286.949 135.94 289.778 135.493 292.924C134.489 294.72 134.489 294.72 132.815 295.635C126.957 296.924 121.03 293.287 115.964 290.712C114.27 290.091 113.186 289.958 111.393 290.214C110.185 291.036 109.165 291.828 108.08 292.789C105.097 295.281 102.297 296.75 98.5404 297.803C98.0102 297.982 97.48 298.161 96.9337 298.345C85.2611 299.148 73.9536 298.105 64.663 290.28C59.1519 285.03 56.0684 278.052 55.5754 270.456C55.2692 256.973 60.6772 244.243 69.621 234.381C70.1007 233.917 70.5805 233.453 71.0749 232.975C72.5116 231.444 72.6913 230.491 72.8342 228.419C66.5336 229.828 62.9697 236.137 59.659 241.388C57.816 244.45 56.3759 247.702 54.9437 250.976C54.0901 252.811 54.0901 252.811 53.0191 253.896C49.2483 254.265 49.2483 254.265 47.4628 252.981C44.9866 249.414 45.1109 245.64 45.5214 241.428C46.7432 236.395 49.2349 232.368 52.4835 228.419C52.7686 228.068 53.0537 227.718 53.3475 227.358C58.9931 221.076 66.9323 218.187 75.0684 217.416C79.2074 217.232 82.4547 218.149 86.2249 219.748C87.9011 220.312 88.3614 220.251 89.9717 219.745C89.9548 219.275 89.9548 219.275 89.9377 218.795C89.5739 207.083 89.5739 207.083 92.1138 202.399C92.4452 201.763 92.4452 201.763 92.7833 201.114C95.9323 195.745 101.033 192.34 106.875 190.61C110.885 190.193 114.043 190.662 117.82 192.1C117.997 192.279 118.173 192.458 118.356 192.642C119.694 192.733 119.694 192.733 121.033 192.642C121.69 192.097 121.69 192.097 121.64 190.995C121.639 190.532 121.637 190.07 121.636 189.593C121.637 189.139 121.639 188.685 121.64 188.217C121.592 186.628 121.592 186.628 121.303 184.867C119.145 169.02 123.788 152.66 133.05 139.859C133.853 138.833 134.668 137.817 135.493 136.81C135.731 136.515 135.97 136.22 136.216 135.916C140.724 130.349 145.406 125.528 151.024 121.09C151.556 120.665 152.088 120.24 152.637 119.802C160.725 113.548 170.175 108.781 179.943 105.912C180.3 105.806 180.656 105.7 181.023 105.591C189.27 103.197 197.537 102.43 206.085 102.456Z" fill="#F6F3EF"/>
<path d="M205.047 98.6959C205.734 98.6928 206.421 98.6897 207.129 98.6865C220.883 98.7932 234.988 102.817 246.351 110.791C247.188 111.377 247.188 111.377 248.043 111.974C260.804 121.324 270.386 133.951 273.663 149.819C273.762 150.282 273.86 150.744 273.962 151.221C274.563 154.38 274.809 157.445 274.806 160.659C274.807 161.218 274.807 161.218 274.809 161.79C274.81 163.331 274.809 164.871 274.777 166.412C274.496 170.871 274.496 170.871 276.192 174.735C277.29 175.413 278.362 175.902 279.554 176.381C281.922 178.519 283.36 180.947 284.374 183.969C284.374 184.685 284.374 185.401 284.374 186.138C285.037 186.171 285.7 186.205 286.383 186.239C291.794 186.86 297.274 189.478 300.805 193.725C303.813 197.974 305.652 202.566 305.261 207.82C306.144 207.641 307.028 207.463 307.938 207.278C308.433 203.294 308.433 203.294 307.217 199.624C306.562 198.946 305.902 198.274 305.238 197.606C301.606 193.556 300.549 188.746 300.669 183.448C300.843 180.32 301.422 177.906 303.118 175.296C303.345 174.933 303.573 174.57 303.807 174.195C309.67 165.599 319.502 161.021 329.394 159.102C337.253 157.752 345.664 157.919 353.46 159.577C353.854 159.649 354.248 159.722 354.654 159.797C366.416 162.017 377.547 167.22 384.768 177.232C387.849 182.155 389.063 186.824 388.27 192.643C386.173 200.627 380.955 205.225 374.346 209.447C374.814 209.658 375.282 209.869 375.764 210.086C393.921 218.391 413.224 231.708 421.089 251.171C421.216 251.533 421.343 251.896 421.474 252.27C421.664 252.741 421.854 253.212 422.049 253.697C422.704 256.108 422.721 258.352 422.712 260.841C422.721 261.303 422.73 261.764 422.738 262.24C422.743 267.815 420.86 273.073 417.242 277.315C409.235 285.228 395.274 283.896 384.865 283.851C383.274 283.845 381.684 283.851 380.094 283.858C371.913 283.864 363.795 283.717 356.137 280.457C355.771 280.302 355.406 280.147 355.029 279.987C354.129 279.508 354.129 279.508 352.924 278.289C352.532 276.764 352.475 275.464 352.924 273.952C354.521 271.844 356.16 271.289 358.648 270.598C360.77 270.153 360.77 270.153 362.564 269.074C362.06 268.675 361.556 268.276 361.037 267.865C360.363 267.33 359.689 266.796 359.016 266.262C358.685 266 358.355 265.738 358.014 265.469C352.457 261.058 352.457 261.058 350.514 258.944C347.26 255.897 342.802 256.298 338.632 256.405C335.868 256.573 333.917 257.187 332.038 259.316C330.854 260.699 330.12 261.817 329.896 263.653C330.417 265.129 331.116 266.39 331.889 267.746C332.987 269.877 332.997 271.034 332.573 273.41C330.17 278.204 324.447 280.002 319.724 281.592C316.019 282.781 312.333 283.753 308.474 284.251C307.778 284.345 307.082 284.439 306.365 284.535C298.726 285.452 291.055 285.543 283.371 285.645C274.365 285.786 267.834 286.836 260.532 292.488C259.398 293.323 258.335 293.968 257.061 294.551C257.404 295.166 257.746 295.781 258.099 296.414C258.292 296.76 258.484 297.106 258.683 297.462C259.149 298.334 259.149 298.334 259.739 298.887C260.007 300.073 260.007 300.073 259.739 301.598C256.24 306.478 248.637 307.338 243.122 308.29C229.973 310.205 210.222 312.046 198.152 305.392C196.679 304.071 196.679 304.071 196.009 302.682C195.942 301.327 195.942 301.327 196.545 299.971C197.552 298.893 198.549 298.135 199.758 297.261C200.112 297.261 200.465 297.261 200.829 297.261C200.016 294.931 200.016 294.931 198.687 292.925C197.91 292.902 197.131 292.919 196.355 292.952C195.862 292.973 195.37 292.993 194.862 293.015C194.324 293.041 193.786 293.067 193.231 293.094C192.67 293.119 192.108 293.144 191.529 293.17C188.473 293.319 185.445 293.547 182.406 293.894C168.781 295.42 154.44 295.252 140.848 293.467C140.848 294.003 140.848 294.54 140.848 295.093C141.169 295.238 141.489 295.383 141.819 295.533C143.049 296.209 143.809 296.627 144.597 297.803C144.528 299.489 144.37 300.619 143.392 302.004C140.164 304.338 135.997 304.454 132.179 304.918C131.781 304.966 131.383 305.015 130.974 305.064C121.527 306.158 112.05 306.127 102.557 306.103C102.181 306.103 101.805 306.102 101.418 306.101C93.24 306.085 85.0662 305.97 76.8924 305.693C75.9858 305.663 75.9858 305.663 75.061 305.633C61.4691 305.118 61.4691 305.118 57.4454 301.422C56.2614 299.835 56.0916 298.674 56.2321 296.719C57.2879 295.04 58.599 293.781 59.9809 292.382C59.5636 291.841 59.5636 291.841 59.1378 291.288C53.7796 284.12 51.3242 276.941 50.8766 267.99C50.2802 267.956 49.6837 267.922 49.0692 267.888C46.1855 267.533 43.6839 266.287 41.2368 264.737C40.4761 263.197 40.5328 262.106 40.7013 260.401C41.7054 259.113 41.7054 259.113 42.8435 258.232C43.1969 258.232 43.5504 258.232 43.9145 258.232C43.5666 257.28 43.5666 257.28 43.2116 256.308C40.1899 247.789 39.8964 241.656 43.7137 233.264C45.4566 229.897 47.679 227.283 50.3411 224.624C50.8941 224.056 50.8941 224.056 51.4582 223.477C58.9052 216.275 67.735 213.399 77.8986 213.601C80.3884 213.72 82.7432 214.239 85.1515 214.867C85.1267 214.467 85.1018 214.066 85.0762 213.654C84.8337 206.754 87.2314 200.993 91.5592 195.69C95.2319 191.717 100.61 187.521 106.174 187.139C107.536 187.115 108.893 187.127 110.255 187.154C110.726 187.159 111.197 187.164 111.682 187.169C112.835 187.182 113.989 187.201 115.142 187.222C115.131 186.849 115.12 186.476 115.108 186.092C114.899 178.047 115.054 170.583 117.284 162.829C117.39 162.45 117.497 162.072 117.606 161.682C120.239 152.602 124.738 143.58 130.673 136.268C131.099 135.728 131.525 135.189 131.964 134.633C147.422 115.371 168.912 102.036 193.539 99.0982C197.367 98.7458 201.206 98.7103 205.047 98.6959ZM166.554 111.333C166.179 111.517 165.803 111.7 165.417 111.89C159.94 114.596 155.155 117.661 150.488 121.632C150.17 121.9 149.851 122.168 149.523 122.445C134.956 134.738 123.352 150.615 121.281 170.202C120.792 175.717 120.765 181.2 121.569 186.68C121.613 187.65 121.638 188.622 121.636 189.593C121.637 190.056 121.638 190.519 121.64 190.995C121.569 192.1 121.569 192.1 121.033 192.643C118.638 192.92 117.237 192.121 115.142 191.016C110.314 189.602 105.673 190.6 101.306 192.901C95.5945 196.369 92.1374 200.686 90.2108 207.195C89.9402 208.515 89.911 209.716 89.9191 211.064C89.9208 211.571 89.9226 212.077 89.9244 212.599C89.9288 213.124 89.9333 213.649 89.938 214.19C89.9404 214.723 89.9428 215.256 89.9453 215.805C89.9516 217.119 89.9604 218.432 89.9714 219.746C87.7004 220.459 86.5752 219.896 84.3817 218.967C80.6203 217.493 77.3704 217.219 73.3695 217.577C72.8538 217.61 72.3381 217.643 71.8068 217.677C63.2401 218.625 56.2711 223.858 50.8139 230.299C46.6625 235.853 44.5846 242.048 45.5212 249.017C46.0623 250.729 46.6654 251.839 47.6634 253.354C49.4306 254.248 51.1297 254.375 53.0188 253.896C54.2354 252.418 54.8913 251.276 55.6965 249.559C58.3117 244.038 60.9141 239.125 64.8008 234.382C65.4263 233.596 65.4263 233.596 66.0644 232.796C69.1684 229.069 69.1684 229.069 71.3717 228.544C71.8542 228.503 72.3368 228.461 72.834 228.419C72.3947 230.839 71.9213 232.226 70.1228 233.907C61.7123 241.855 56.2399 254.602 55.5878 266.116C55.4727 275.173 57.7513 282.882 64.0393 289.534C73.0489 298.021 83.8031 298.862 95.585 298.438C101.594 298.026 105.887 294.694 110.362 290.898C111.809 289.938 113.025 290.087 114.694 290.331C117.391 291.086 119.848 292.374 122.345 293.634C125.852 295.325 128.933 296.223 132.815 295.635C134.631 294.836 134.631 294.836 135.493 292.925C135.936 289.803 135.952 286.97 134.723 284.048C130.862 280.045 127.583 278.178 122.104 277.205C121.281 277.056 121.281 277.056 120.441 276.904C114.198 275.932 108.609 277.577 103.078 280.516C101.512 281.087 100.651 280.925 99.0757 280.457C99.0757 279.563 99.0757 278.668 99.0757 277.747C107.381 273.157 115.857 271.108 125.296 273.863C130.437 275.856 134.673 278.668 138.399 282.795C138.816 283.247 138.816 283.247 139.242 283.709C139.418 283.709 139.595 283.709 139.777 283.709C140.126 279.479 140.196 276.301 137.549 272.866C133.677 268.614 130.036 265.776 124.246 265.279C123.893 265.1 123.539 264.921 123.175 264.737C121.215 264.576 119.25 264.586 117.284 264.568C116.478 264.544 116.478 264.544 115.655 264.52C112.265 264.491 109.713 264.961 106.637 266.424C105.155 267.053 103.875 267.074 102.289 266.905C102.289 266.011 102.289 265.117 102.289 264.195C108.545 260.203 115.517 259.299 122.782 260.621C127.036 261.628 130.881 263.27 134.518 265.747C135.453 266.459 135.453 266.459 136.564 266.363C136.859 264.653 136.826 263.52 135.88 262.044C132.971 258.572 129.933 255.447 125.317 254.98C124.501 254.722 123.687 254.452 122.876 254.175C116.175 252.111 108.79 252.607 102.456 255.566C99.614 257.232 97.2153 259.258 94.7913 261.485C92.3399 263.606 92.3399 263.606 90.4735 263.992C88.9003 263.653 88.9003 263.653 87.6619 262.128C85.8208 258.608 85.7009 255.134 86.5699 251.266C87.9449 247.043 90.2054 243.254 93.7872 240.581C95.3689 239.781 96.2652 239.595 98.0046 239.802C97.9711 240.954 97.9711 240.954 97.4691 242.512C96.6929 243.207 96.6929 243.207 95.7285 243.935C93.2056 245.968 91.972 248.641 91.0425 251.728C90.8607 253.433 90.8607 253.433 91.0425 254.98C91.396 255.338 91.7494 255.695 92.1136 256.064C94.5227 255.915 96.1418 254.746 98.1385 253.455C105.655 248.883 114.337 247.884 122.807 249.966C125.792 250.764 128.604 251.648 131.208 253.354C131.55 253.575 131.892 253.795 132.244 254.023C138.765 258.603 142.885 264.813 144.463 272.665C144.791 274.537 145.093 276.411 145.39 278.289C146.013 281.978 146.013 281.978 148.346 284.794C154.739 287.567 162.068 285.075 168.161 282.625C168.96 282.222 169.754 281.807 170.537 281.372C172.737 280.317 174.374 279.898 176.73 280.457C178.436 281.207 180.061 282.04 181.692 282.945C184.739 284.536 187.809 284.543 191.189 284.251C193.243 283.439 193.243 283.439 194.938 282.083C196.362 269.968 196.362 269.968 192.668 258.76C190.46 254.988 190.154 250.603 190.654 246.307C191.852 241.802 194.018 237.886 197.616 234.924C198.585 234.39 199.572 233.911 200.567 233.429C202.276 232.594 203.63 231.816 205.114 230.587C205.7 228.569 205.719 226.908 205.668 224.811C205.642 222.289 206.229 220.612 207.791 218.662C212.222 214.401 217.097 213.142 223.054 213.173C223.454 213.171 223.854 213.169 224.266 213.167C226.354 213.171 228.239 213.319 230.284 213.783C233.042 213.996 233.042 213.996 235.64 213.241C240.51 212.777 244.422 213.062 248.493 215.951C248.846 216.354 249.2 216.756 249.564 217.171C251.111 218.541 252.565 218.353 254.568 218.484C256.892 218.774 258.771 219.706 260.81 220.83C261.147 221 261.484 221.171 261.831 221.347C265.085 223.282 266.607 226.515 267.772 230.045C268.639 235.553 267.484 241.168 264.547 245.875C263.353 247.516 262.106 249.084 260.81 250.643C260.494 251.058 260.178 251.472 259.852 251.899C257.56 254.797 254.947 256.537 251.706 258.232C251.314 258.438 250.922 258.645 250.518 258.857C246.159 260.975 241.475 261.926 236.711 262.569C236.015 263.161 236.015 263.161 236.008 264.602C236.212 266.746 237.001 267.44 238.317 269.074C238.134 270.939 237.263 272.097 236.142 273.546C235.702 274.12 235.702 274.12 235.253 274.706C235.027 274.994 234.801 275.282 234.569 275.578C233.685 275.4 232.801 275.221 231.891 275.036C231.891 269.67 231.891 264.303 231.891 258.774C233.426 258.651 234.962 258.528 236.543 258.402C241.049 257.962 244.937 257.017 249.028 254.98C249.499 254.746 249.97 254.512 250.455 254.271C256.76 250.783 261.073 245.56 263.488 238.718C264.228 235.238 264.566 231.655 263.074 228.338C261.574 226.047 259.512 223.696 257.061 222.456C255.991 222.434 254.919 222.433 253.848 222.456C253.859 222.764 253.871 223.072 253.882 223.389C254.145 231.721 253.889 239.488 248.493 246.307C247.317 247.383 246.122 248.332 244.823 249.25C243.629 250.082 243.629 250.082 242.604 251.232C240.584 253.184 237.838 253.801 235.104 254.031C234.033 253.896 234.033 253.896 233.497 253.354C233.476 252.451 233.475 251.547 233.497 250.643C234.094 250.431 234.69 250.219 235.305 250C240.764 247.887 244.956 245.832 247.692 240.359C249.935 235.138 251.052 229.666 249.463 224.072C248.083 220.665 245.919 218.285 242.579 216.83C241.068 216.345 239.882 216.236 238.317 216.493C237.311 217.239 237.311 217.239 236.711 218.12C237.373 220.305 237.373 220.305 238.33 222.369C240.672 226.749 240.58 231.874 239.552 236.656C237.867 241.799 234.875 245.685 230.284 248.475C228.733 249.233 227.175 249.936 225.584 250.601C224.312 251.074 224.312 251.074 223.858 252.27C221.426 253.039 218.88 252.862 216.36 252.812C216.36 251.917 216.36 251.023 216.36 250.101C217.908 249.231 219.199 248.855 220.946 248.611C225.607 247.706 229.736 245.395 232.692 241.602C235.868 236.642 237.06 231.785 235.901 225.956C234.939 222.596 233.378 220.295 230.552 218.221C226.442 216.245 220.917 216.29 216.642 217.609C213.638 219 211.321 220.47 209.77 223.487C209.142 225.406 209.189 226.953 209.398 228.961C210.21 229.783 211.005 229.656 212.136 229.755C212.584 229.797 213.032 229.839 213.493 229.883C214.438 229.968 215.384 230.051 216.33 230.133C217.004 230.197 217.004 230.197 217.693 230.263C218.104 230.299 218.516 230.336 218.94 230.373C220.202 230.604 221.137 231.039 222.251 231.671C222.251 232.208 222.251 232.744 222.251 233.297C221.879 233.308 221.506 233.319 221.122 233.33C219.423 233.382 217.724 233.441 216.025 233.501C215.146 233.526 215.146 233.526 214.249 233.551C210.116 233.702 210.116 233.702 206.185 234.924C205.699 235.137 205.214 235.35 204.714 235.569C200.287 237.852 198.017 240.555 195.507 244.816C194.238 249.35 194.519 253.691 196.35 258.008C197.079 259.437 197.079 259.437 198.495 260.826C200.73 263.936 199.947 268.157 199.792 271.818C199.4 281.409 200.838 289.543 207.459 296.941C212.837 302.28 219.292 304.508 226.736 304.443C227.215 304.448 227.694 304.452 228.188 304.456C239.029 304.424 247.931 298.92 255.555 291.468C264.21 282.641 267.369 271.908 268.843 259.859C269.73 259.651 270.624 259.472 271.521 259.316C272.057 259.859 272.057 259.859 272.092 261.063C272.079 261.584 272.066 262.106 272.053 262.643C272.044 263.214 272.035 263.784 272.025 264.372C272.002 265.576 271.974 266.78 271.942 267.984C271.856 272.292 271.856 272.292 273.663 276.12C274.571 277.019 274.571 277.019 275.638 277.611C276.138 277.926 276.138 277.926 276.649 278.246C280.128 279.812 283.5 280.111 287.253 280.084C287.717 280.081 288.181 280.078 288.659 280.075C296.251 279.934 302.806 278.71 309.545 275.036C310.031 274.804 310.517 274.571 311.018 274.331C319.876 269.913 326.708 262.394 330.063 253.015C331.402 246.618 330.781 240.197 327.419 234.619C324.389 230.342 320.887 227.75 316.239 225.505C315.864 225.324 315.49 225.143 315.104 224.957C310.343 222.777 305.578 222.249 300.407 221.846C299.559 221.776 299.559 221.776 298.693 221.704C297.312 221.591 295.931 221.48 294.55 221.372C294.237 220.364 294.237 220.364 294.014 219.204C294.725 217.978 294.725 217.978 295.755 216.663C299.719 211.161 299.906 205.974 299.135 199.283C297.548 195.942 294.888 192.526 291.47 190.982C288.499 190.115 285.674 189.797 282.6 189.627C282.204 189.604 281.807 189.58 281.398 189.556C280.427 189.499 279.455 189.444 278.483 189.39C278.405 188.742 278.405 188.742 278.324 188.082C277.754 183.995 277.069 181.355 274.032 178.447C272.351 177.3 270.729 176.587 268.843 175.839C268.765 173.323 268.772 171.166 269.371 168.722C272.174 156.499 268.707 143.135 262.484 132.575C254.272 119.697 242.777 111.101 228.611 105.98C228.203 105.831 227.794 105.683 227.374 105.53C220.401 103.141 213.646 102.374 206.352 102.456C205.756 102.46 205.756 102.46 205.147 102.464C191.56 102.565 178.796 105.246 166.554 111.333Z" fill="#1D1C1C"/>
<path d="M167.893 140.57C175.625 145.066 179.86 152.369 182.604 160.758C185.59 171.954 185.845 184.166 182.621 195.353C183.101 195.571 183.101 195.571 183.592 195.793C184.804 196.459 185.575 196.92 186.37 198.063C186.202 199.52 186.202 199.52 185.834 200.773C184.993 201.184 184.993 201.184 183.692 201.316C182.397 200.617 181.226 199.899 180.01 199.08C171.903 193.897 162.602 191.388 153.032 193.049C149.871 193.785 147.303 194.946 144.832 197.081C143.697 199.327 143.958 201.09 144.597 203.484C147.532 209.548 154.041 213.061 160.094 215.241C166.363 217.299 172.505 217.564 179.04 216.697C181.014 216.493 181.014 216.493 182.621 217.577C182.521 218.865 182.521 218.865 182.085 220.288C179.433 221.78 176.357 221.729 173.393 221.933C169.42 222.291 166.955 223.896 163.743 226.251C158.355 229.862 153.077 230.684 146.739 230.045C139.8 228.462 134.813 222.878 131.06 217.059C126.705 208.933 125.625 199.798 125.652 190.711C125.653 190.33 125.653 189.949 125.654 189.556C125.679 183.326 126.134 177.47 127.995 171.502C128.127 171.076 128.26 170.65 128.396 170.211C131.329 161.037 135.061 153.326 141.92 146.567C142.296 146.188 142.672 145.808 143.06 145.417C149.699 139.105 159.493 136.578 167.893 140.57Z" fill="#1D1C1C"/>
<path d="M231.891 138.978C240.428 145.646 245.891 155.226 247.422 166.081C247.534 168.359 247.544 170.636 247.55 172.917C247.556 173.994 247.572 175.072 247.589 176.149C247.607 180.657 247.053 184.532 245.815 188.848C245.439 190.47 245.093 192.097 244.744 193.726C245.344 194.099 245.944 194.471 246.562 194.855C247.351 195.348 248.139 195.841 248.928 196.335C249.521 196.702 249.521 196.702 250.126 197.077C250.507 197.316 250.889 197.556 251.282 197.802C251.632 198.021 251.983 198.24 252.344 198.465C253.348 199.171 254.149 199.809 254.919 200.773C255.02 202.772 255.02 202.772 254.919 204.568C251.828 204.896 250.176 203.856 247.656 202.264C243.925 200.018 240.421 198.539 236.175 197.521C235.747 197.417 235.319 197.314 234.878 197.207C226.638 195.843 218.507 197.791 211.54 202.399C206.886 205.957 202.593 210.486 199.39 215.409C198.152 217.035 198.152 217.035 196.645 217.543C196.066 217.56 196.066 217.56 195.474 217.577C194.403 215.951 194.403 215.951 194.47 214.426C194.938 212.699 194.938 212.699 196.076 211.038C197.217 209.581 197.217 209.581 196.984 208.174C196.477 206.512 195.735 205.284 194.805 203.822C188.156 192.603 187.088 177.618 190.167 165.062C191.919 158.731 194.581 152.773 198.687 147.651C199.05 147.189 199.413 146.727 199.788 146.251C202.591 142.884 205.553 140.491 209.398 138.436C209.836 138.2 210.273 137.965 210.724 137.722C217.135 134.839 225.99 135.091 231.891 138.978Z" fill="#1E1D1D"/>
<path d="M164.948 144.94C168.62 145.468 170.731 147.709 172.925 150.626C177.581 157.722 180.066 165.713 180.479 174.212C180.507 174.76 180.535 175.308 180.564 175.872C180.71 181.402 179.832 186.672 178.872 192.1C178.549 191.997 178.227 191.895 177.894 191.789C176.441 191.331 174.978 190.905 173.517 190.474C172.9 190.279 172.284 190.084 171.648 189.883C162.947 187.355 153.553 186.939 145.323 191.209C142.713 192.801 140.676 194.498 139.777 197.521C138.968 202.19 140.612 205.639 143.179 209.431C146.549 213.766 151.572 216.065 156.413 218.322C157.185 218.688 157.185 218.688 157.972 219.061C159.225 219.654 160.479 220.244 161.735 220.829C161.038 222.946 160.309 223.153 158.387 224.184C154.361 226.119 150.678 226.555 146.369 225.282C140.409 222.648 136.529 217.445 133.886 211.614C133.684 211.193 133.482 210.772 133.273 210.338C129.561 201.937 129.93 192.964 130.137 183.969C130.733 184.344 130.733 184.344 131.34 184.726C135.467 187.274 138.211 187.859 142.903 186.917C147.686 185.595 151.084 182.844 154.773 179.633C155.136 179.326 155.5 179.019 155.875 178.703C160.677 174.292 163.476 168.468 165.517 162.354C165.677 161.878 165.837 161.401 166.002 160.91C167.267 156.867 167.541 153.513 166.32 149.379C166.177 148.883 166.034 148.388 165.887 147.877C165.585 146.895 165.269 145.917 164.948 144.94Z" fill="#F4F1ED"/>
<path d="M226 142.23C230.507 142.767 233.477 146.203 236.175 149.616C239.732 154.573 241.234 160.204 242.602 166.081C242.759 166.715 242.759 166.715 242.92 167.362C244.179 175.633 243.238 184.977 239.924 192.642C236.376 192.71 236.376 192.71 234.569 192.1C223.502 191.459 214.271 194.401 205.649 201.316C204.496 202.357 203.47 203.402 202.436 204.568C199.485 203.371 198.445 200.828 197.081 198.063C195.554 194.306 194.669 190.728 194.403 186.68C194.695 186.758 194.987 186.836 195.288 186.917C200.465 188.207 203.99 188.277 208.796 185.646C218.335 179.177 223.964 168.43 226.249 157.277C226.99 152.322 226.606 147.178 226 142.23Z" fill="#F5F2EE"/>
<path d="M360.957 211.073C361.134 211.967 361.311 212.862 361.493 213.783C361.19 213.999 360.887 214.215 360.574 214.437C360.182 214.725 359.789 215.012 359.384 215.308C358.993 215.591 358.601 215.874 358.198 216.165C356.979 217.237 356.727 218.127 356.564 219.735C356.44 225.629 358.812 228.946 362.564 233.297C363.008 233.819 363.452 234.341 363.909 234.879C373.524 245.971 386.473 254.853 400.588 258.774C401.278 258.974 401.278 258.974 401.983 259.177C406.005 260.122 410.126 259.921 414.229 259.819C414.726 259.81 415.222 259.8 415.733 259.791C416.181 259.778 416.629 259.766 417.09 259.753C418.261 259.859 418.261 259.859 419.867 260.943C419.733 261.959 419.733 261.959 419.332 263.111C415.08 265.819 407.433 264.662 402.726 263.74C400.175 263.144 397.701 262.362 395.232 261.485C394.815 261.337 394.397 261.188 393.967 261.036C384.719 257.637 376.333 252.379 368.99 245.765C368.531 245.358 368.071 244.952 367.597 244.533C366.26 243.334 364.944 242.116 363.635 240.886C363.273 240.555 362.91 240.224 362.537 239.883C360.25 237.703 358.351 235.317 356.505 232.755C356.28 232.447 356.055 232.138 355.822 231.82C352.816 227.524 351.765 223.384 352.388 218.12C353.59 213.948 356.355 210.518 360.957 211.073Z" fill="#F0EDE9"/>
<path d="M310.081 171.502C311.127 171.877 311.127 171.877 312.223 172.586C312.516 173.787 312.516 173.787 312.624 175.263C313.413 180.435 316.591 183.887 320.524 187.086C333.464 196.204 350.106 196.888 365.242 194.269C370.519 193.248 376.989 191.732 380.816 187.662C381.844 186.68 381.844 186.68 383.986 186.68C384.421 187.832 384.421 187.832 384.521 189.39C380.324 195.382 372.623 197.388 365.777 198.605C350.993 200.997 332.448 200.734 319.787 191.558C318.868 190.841 317.953 190.119 317.043 189.39C316.729 189.162 316.416 188.935 316.093 188.7C312.581 186.048 309.762 181.684 308.474 177.465C308.282 175.816 308.139 174.219 308.474 172.586C309.004 172.228 309.534 171.871 310.081 171.502Z" fill="#F1ECE6"/>
<path d="M216.36 141.688C216.896 142.23 216.896 142.23 217.164 143.399C216.736 145.858 214.974 146.906 213.147 148.464C206.875 154.132 204.096 160.264 201.684 168.311C200.625 171.708 200.625 171.708 199.758 172.586C198.486 172.755 198.486 172.755 197.081 172.586C195.983 171.455 195.486 170.811 195.438 169.206C197.642 158.071 202.671 148.577 211.812 141.752C213.541 140.967 214.558 141.197 216.36 141.688Z" fill="#F0ECE7"/>
<path d="M153.166 146.567C153.701 147.109 153.701 147.109 153.888 148.356C153.63 150.38 152.816 150.836 151.258 152.089C145.38 157.2 142.559 163.866 140.037 171.125C139.335 172.894 139.025 173.603 137.635 174.754C136.042 174.608 135.571 174.291 134.422 173.128C133.492 167.078 137.842 159.447 141.283 154.664C148.579 145.301 148.579 145.301 153.166 146.567Z" fill="#F2EEE9"/>
<path d="M316.047 211.644C319.955 214.092 323.071 217.515 325.611 221.372C325.749 222.833 325.659 224.237 325.611 225.708C323.49 225.708 322.62 225.447 320.735 224.599C319.944 224.247 319.944 224.247 319.138 223.887C318.59 223.639 318.042 223.39 317.478 223.134C316.94 222.893 316.403 222.653 315.849 222.405C314.787 221.93 313.726 221.451 312.665 220.971C311.686 220.529 310.704 220.093 309.719 219.664C309.288 219.476 308.857 219.288 308.413 219.094C308.035 218.931 307.658 218.768 307.268 218.6C306.332 218.12 306.332 218.12 305.261 217.035C305.066 215.723 305.066 215.723 305.261 214.325C306.141 213.368 306.141 213.368 307.302 212.563C307.681 212.292 308.06 212.021 308.451 211.742C311.049 210.153 313.331 210.29 316.047 211.644Z" fill="#F3EFEB"/>
<path d="M335.251 231.671C338.547 234.266 340.192 238.516 340.774 242.604C340.861 245.353 340.212 248.001 339.535 250.643C338.598 251.05 338.598 251.05 337.393 251.185C335.638 249.99 335.273 249.1 334.728 247.023C334.604 246.266 334.488 245.508 334.381 244.748C333.85 241.298 333.283 238.08 331.435 235.059C330.431 233.297 330.431 233.297 330.431 232.213C332.116 231.708 333.512 231.336 335.251 231.671Z" fill="#F0ECE7"/>
<path d="M206.085 102.456C206.68 102.457 206.68 102.457 207.287 102.458C223.76 102.532 238.352 108.527 251.171 118.922C250.641 119.101 250.11 119.279 249.564 119.464C248.616 118.839 248.616 118.839 247.522 117.871C242.721 113.912 237.069 110.994 231.356 108.622C230.822 108.395 230.288 108.167 229.739 107.932C215.858 102.433 200.711 102.394 186.37 105.912C185.516 106.105 184.663 106.297 183.809 106.488C176.925 108.108 169.992 110.592 163.833 114.144C162.806 114.585 162.806 114.585 161.199 114.043C175.871 106.741 189.66 102.406 206.085 102.456Z" fill="#E1C17E"/>
<path d="M335.251 214.325C337.018 214.504 338.786 214.682 340.606 214.867C340.464 215.215 340.322 215.564 340.175 215.923C339.353 218.049 338.608 220.199 337.862 222.354C337.713 222.781 337.565 223.209 337.412 223.649C337.048 224.696 336.685 225.744 336.322 226.792C335.085 226.792 333.848 226.792 332.573 226.792C332.87 222.441 333.996 218.478 335.251 214.325Z" fill="white"/>
<path d="M114.707 251.998C115.194 251.999 115.682 251.999 116.183 251.999C120.532 252.096 124.068 253.109 127.995 254.98C127.819 255.337 127.642 255.695 127.46 256.064C127.143 255.953 126.826 255.842 126.5 255.727C126.076 255.581 125.653 255.435 125.217 255.285C124.801 255.14 124.385 254.995 123.956 254.846C116.949 252.67 108.987 253.084 102.36 256.172C100.088 257.494 98.1784 258.997 96.3982 260.942C96.0448 260.763 95.6913 260.585 95.3271 260.4C100.988 254.936 106.777 251.945 114.707 251.998Z" fill="#6F6D97"/>
<path d="M127.46 265.279C127.283 265.637 127.106 265.995 126.924 266.363C126.431 266.189 125.937 266.014 125.428 265.834C122.685 265.045 119.951 265.08 117.117 265.076C116.591 265.063 116.066 265.049 115.524 265.036C112.189 265.022 109.67 265.535 106.643 266.967C105.158 267.592 103.877 267.617 102.289 267.447C102.289 266.911 102.289 266.374 102.289 265.821C103.051 265.888 103.051 265.888 103.829 265.957C105.611 265.971 106.7 265.544 108.28 264.737C113.841 262.308 121.982 262.828 127.46 265.279Z" fill="#5E5D8A"/>
<path d="M117.82 192.1C118.085 192.368 118.085 192.368 118.356 192.642C120.301 192.746 120.301 192.746 122.104 192.1C121.751 192.816 121.397 193.531 121.033 194.268C119.367 194.413 118.535 194.378 117.084 193.489C115.307 192.419 113.99 192.271 111.929 192.1C111.519 192.065 111.109 192.03 110.686 191.994C107.493 191.842 105.194 192.473 102.306 193.847C101.947 193.986 101.588 194.125 101.218 194.268C100.865 194.089 100.511 193.91 100.147 193.726C100.982 193.282 101.819 192.842 102.657 192.405C103.123 192.16 103.589 191.914 104.069 191.662C108.706 189.572 113.224 190.35 117.82 192.1Z" fill="#DABC7D"/>
<path d="M73.3696 217.577C78.1546 217.215 81.7488 217.853 86.1725 219.748C87.9214 220.318 88.7775 220.291 90.5071 219.746C90.3303 220.282 90.1536 220.819 89.9715 221.372C87.0846 221.518 84.9753 221.063 82.2731 220.05C79.282 218.968 76.5476 218.289 73.3696 218.119C73.3696 217.941 73.3696 217.762 73.3696 217.577Z" fill="#E2C380"/>
<path d="M56.2323 224.624C56.5858 224.624 56.9392 224.624 57.3034 224.624C56.4806 226.619 55.2782 227.87 53.7554 229.367C53.0989 230.017 53.0989 230.017 52.4291 230.68C52.0936 231.007 51.7581 231.334 51.4124 231.671C51.0589 231.492 50.7055 231.313 50.3413 231.129C51.1219 230.248 51.903 229.367 52.6843 228.486C53.1192 227.996 53.5542 227.505 54.0023 227C54.7278 226.191 55.4692 225.396 56.2323 224.624Z" fill="#EFE0C2"/>
<path d="M113.536 264.195C115.154 264.166 116.771 264.144 118.389 264.127C118.843 264.118 119.297 264.109 119.764 264.1C122.551 264.078 124.822 264.359 127.46 265.279C127.283 265.637 127.106 265.995 126.924 266.363C126.41 266.191 125.896 266.02 125.366 265.842C122.966 265.148 120.604 265.038 118.121 264.94C117.457 264.909 117.457 264.909 116.779 264.877C115.698 264.826 114.617 264.781 113.536 264.737C113.536 264.558 113.536 264.379 113.536 264.195Z" fill="#8481A4"/>
<path d="M215.825 251.186C216.355 251.454 216.355 251.454 216.896 251.728C217.865 251.78 218.837 251.798 219.808 251.795C220.326 251.797 220.845 251.798 221.379 251.8C222.846 251.788 222.846 251.788 224.393 251.186C224.57 251.543 224.747 251.901 224.929 252.27C221.991 253.282 219.455 253.482 216.36 253.354C216.184 252.638 216.007 251.923 215.825 251.186Z" fill="#706E94"/>
<path d="M96.3983 243.054C96.7518 243.233 97.1052 243.412 97.4694 243.596C96.2323 245.027 94.9952 246.458 93.7206 247.933C93.5439 247.575 93.3671 247.217 93.1851 246.849C94.2454 245.596 95.3058 244.344 96.3983 243.054Z" fill="#ECD9B2"/>
<path d="M278.64 110.331L277.68 112.078C278.224 110.998 278.64 110.331 278.64 110.331Z" fill="white"/>
<path d="M252.398 78.7588L253.665 79.8023C253.799 79.9104 253.953 80.0714 254.088 80.1793C253.455 79.7445 252.898 79.2595 252.398 78.7588Z" fill="black"/>
<path d="M264.68 83.0305C268.074 82.6732 271.135 81.1593 274.43 80.3646C281.117 78.7782 288.76 80.2953 294.267 84.3779C284.137 84.7384 274.046 85.1173 263.915 85.4778C261.549 85.5507 259.903 84.8441 258.35 83.7925L254.241 80.34C257.233 82.3879 261.077 83.4168 264.68 83.0305Z" fill="black"/>
<path d="M254.088 80.1793C253.953 80.0714 253.799 79.9104 253.665 79.8023L254.26 80.3058C254.183 80.2688 254.164 80.2163 254.088 80.1793Z" fill="black"/>
<path d="M224.723 21.0695C224.723 21.0695 227.774 15.5223 237.038 11.5391C246.301 7.55589 268.345 13.2822 277.703 21.9924C287.06 30.7023 283.427 40.2144 286.522 43.1346C289.634 46.0204 306.4 52.712 312.074 66.7084C317.75 80.705 309.459 87.2359 309.461 90.0524C309.462 92.8686 316.369 103.214 310.3 118.569C304.231 133.924 282.789 127.101 277.799 123.311C274.192 120.533 276.269 114.907 277.678 112.078L278.64 110.331C278.64 110.331 278.224 110.998 277.678 112.078L264.874 135.363C264.874 135.363 254.045 139.285 230.103 127.056C206.16 114.827 197.996 102.447 197.996 102.447L212.967 75.2243C212.967 75.2243 201.12 65.3147 199.823 57.6293C198.507 49.9781 201.522 34.538 207.636 27.6507C213.883 20.7844 224.723 21.0695 224.723 21.0695Z" fill="white"/>
<path d="M224.723 21.0695C224.723 21.0695 227.774 15.5223 237.038 11.5391C246.301 7.55589 268.346 13.2824 277.703 21.9924C279.048 23.2469 280.106 24.4931 280.993 25.787C276.996 24.5107 272.66 24.0244 268.465 24.3421C260.493 25.0061 253.135 28.521 247.331 33.3483C243.025 36.9482 239.453 41.5076 238.519 46.8186C237.585 52.1296 239.862 58.208 245.016 61.0814C248.092 56.4559 251.264 51.7464 256.125 48.6312C260.931 45.532 267.888 44.4222 273.005 47.4511C271.976 52.8462 267.042 56.6198 263.545 60.9554C260.046 65.2907 258.112 72.0688 262.586 75.914C266.637 79.3822 272.906 78.1144 278.342 77.7445C286.621 77.2282 295.168 79.6572 301.824 84.3805C301.755 87.9424 297.094 89.8983 293.199 89.494C289.303 89.0897 285.701 87.1812 281.822 86.4819C277.943 85.7823 273.181 86.8664 272.137 90.262C271.596 91.9505 271.956 94.2031 270.302 95.0957C268.992 95.8067 267.231 95.1318 265.871 94.4331C257.482 90.3048 249.056 86.1582 240.649 82.0641C238.293 80.8858 235.708 79.6835 233.057 79.9225C230.826 80.1035 228.907 81.3016 227.2 82.5579C222.89 85.7231 219.255 89.6896 216.617 94.136C216.127 94.9393 215.676 95.8482 215.854 96.7571C216.012 97.5265 216.57 98.1852 217.147 98.7228C220.395 101.891 224.704 103.923 228.785 106.106C237.635 110.804 245.864 116.544 253.201 123.111C253.97 123.828 254.777 124.564 255.184 125.497C255.728 126.798 255.377 128.232 254.832 129.485C253.913 131.598 252.4 133.381 250.578 134.842C245.322 133.652 238.55 131.343 230.179 127.093C206.236 114.864 198.073 102.484 198.073 102.484L213.044 75.2611C213.044 75.2611 201.197 65.3515 199.899 57.666C198.583 50.0149 201.6 34.5749 207.713 27.6875C213.883 20.7844 224.723 21.0695 224.723 21.0695Z" fill="white"/>
<path d="M223.102 18.5558C224.671 16.496 228.457 12.3426 235.799 9.20955C244.226 5.60304 259.668 8.88506 269.933 13.8306C273.916 15.7498 277.195 17.8928 279.655 20.2039C286.284 26.3867 287.096 33.0156 287.643 37.3942C287.845 38.8775 288.07 40.9352 288.531 41.3306C289.05 41.7971 290.603 42.7618 292.289 43.7475C298.959 47.7409 310.094 54.3624 314.777 65.8451C319.423 77.3095 315.43 84.3952 313.302 88.2647C312.925 88.9494 312.455 89.8057 312.361 90.1506C312.441 90.5354 312.754 91.5524 313.046 92.3429C314.683 97.0302 318.037 106.789 312.997 119.479C311.05 124.431 307.506 127.792 302.5 129.495C294.067 132.319 283.95 129.307 279.278 127.055C278.014 126.447 276.959 125.809 276.135 125.195C275.521 124.725 275.001 124.172 274.539 123.602L267.422 136.546C267.139 137.06 266.664 137.482 266.056 137.708C265.581 137.868 254.578 141.665 231.559 130.573C230.68 130.149 229.76 129.706 228.897 129.247C204.533 116.815 196.102 104.22 195.716 103.688C195.215 102.927 195.188 102.004 195.603 101.251L209.669 75.671C206.172 72.5137 198.33 64.75 197.191 57.9208C195.755 49.345 199.148 33.2201 205.582 26.0113C211.032 19.8876 219.554 18.7522 223.102 18.5558ZM202.228 52.5506C201.88 54.5923 201.911 56.036 202.55 57.3403C203.112 58.5209 204.187 59.559 205.934 60.79C209.482 63.3227 213.748 64.7283 218.068 65.6835C221.432 66.4381 222.792 64.5811 222.693 61.4143C222.638 59.2223 221.726 57.0934 221.004 54.9697C218.41 47.4394 218.272 38.8824 222.65 32.329C221.699 35.2925 220.977 38.3667 220.542 41.4491C220.269 43.2668 220.129 45.1056 220.277 46.9525C220.764 53.468 224.909 59.2335 229.563 64.0748C230.639 65.2 231.853 66.7811 233.214 67.6535C234.767 68.6182 236.908 69.0432 238.63 69.7864C241.31 70.9913 244.476 73.2526 247.15 70.9459C248.439 69.8342 249 68.1986 249.56 66.6495C251.618 60.9702 254.15 55.0431 259.333 51.4327C261.308 50.045 263.59 49.0656 265.855 48.2077C258.886 52.9502 253.689 59.7589 251.207 67.4429C249.734 72.0609 249.918 76.3079 253.627 79.7841L252.36 78.7404C252.898 79.2595 253.454 79.7444 254.049 80.1608C254.107 80.2319 254.183 80.2689 254.28 80.3586C255.777 81.5999 257.007 82.7989 258.369 83.7583L259.962 85.0892C263.207 87.7354 266.641 90.126 270.812 91.6158C259.067 87.7762 249.41 79.788 238.077 75.0212C234.345 73.4394 230.328 72.1971 226.283 72.2407C216.037 72.3719 213.047 80.8938 209.224 87.8451C206.569 92.6734 203.933 97.4674 201.278 102.296C203.859 105.532 212.67 115.235 231.422 124.833C232.284 125.291 233.127 125.698 233.969 126.104C234.122 126.177 234.238 126.232 234.391 126.307C238.713 127.523 244.581 128.92 246.887 128.516C250.755 127.824 247.887 121.764 240.003 116.189C232.119 110.615 203.537 100.742 203.537 100.742C203.537 100.742 233.432 107.609 249.654 118.284C258.782 124.328 262.572 128.449 264.155 130.945C263.981 130.644 265.548 128.41 265.699 128.136C266.885 125.98 267.605 125.2 266.024 122.965C265.002 121.477 263.941 120.056 262.672 118.752C260.596 116.625 258.065 114.972 255.553 113.285C260.062 114.159 264.315 116.381 267.486 119.512C267.679 119.691 267.891 119.923 268.196 119.984C268.369 120.024 268.539 119.976 268.711 119.929C270.938 119.226 272.105 117.103 273.104 115.288C274.008 113.644 275.087 112.562 276.26 111.134C279.022 107.873 279.079 102.747 277.81 98.7996C277.517 97.9222 277.13 97.0423 276.419 96.3966C277.548 96.9843 278.281 98.0305 278.956 99.0054C280.191 100.813 281.274 102.721 281.804 104.752C282.512 107.606 281.543 110.691 280.168 113.19C278.682 116.243 277.699 119.971 279.521 121.325C279.79 121.542 280.424 121.977 281.649 122.567C286.59 124.948 294.579 126.631 300.328 124.723C303.773 123.567 306.255 121.168 307.679 117.609C312.081 106.519 309.196 98.1982 307.636 93.7216C307.072 92.1066 306.681 90.9656 306.654 89.9565C306.663 88.6181 307.323 87.4198 308.19 85.8446C310.205 82.2675 313.236 76.8411 309.427 67.4689C305.424 57.6566 295.285 51.6021 289.229 47.9908C287.043 46.678 285.472 45.7476 284.473 44.8332C282.609 43.1123 282.324 40.6357 281.998 37.793C281.491 33.6935 280.862 28.5822 275.654 23.6909C273.637 21.8093 270.78 19.9562 267.371 18.3139C257.068 13.3498 243.982 11.333 238.199 13.8313C229.963 17.3565 227.136 22.2321 227.117 22.2663C226.647 23.1226 225.696 23.6175 224.647 23.5882C224.551 23.5856 215.066 23.3903 209.842 29.2767C204.165 35.7244 203.62 44.6448 202.228 52.5506Z" fill="black"/>
<path d="M246.466 14.3056C251.576 13.9092 256.817 15.568 261.055 18.3463C261.592 18.6916 262.149 19.0895 262.419 19.6533C262.691 20.2173 262.638 20.9285 262.107 21.2788C257.935 19.6151 253.005 18.7126 248.992 20.4606C247.394 21.1637 246.085 22.2221 244.776 23.2809C243.297 24.474 241.817 25.667 240.337 26.8598C239.484 27.5315 238.668 28.2214 237.602 28.5742C236.575 28.9453 235.296 28.979 234.357 28.3966C233.494 27.8511 233.048 26.8997 232.927 25.9751C232.705 24.352 233.246 22.7504 234.056 21.3649C236.507 17.261 241.354 14.7017 246.466 14.3056Z" fill="black"/>
<path d="M285.918 111.456C286.395 111.469 286.837 111.725 287.238 111.962C289.595 113.314 293.79 115.379 296.473 114.289C296.719 114.191 296.929 114.075 297.157 113.925C299.055 112.588 299.702 109.737 302.741 110.291C303.084 110.371 303.467 110.468 303.771 110.355C304.076 110.242 304.284 109.952 304.434 109.678C304.922 108.701 306.072 101.588 308.203 105.82C308.803 107.019 308.835 108.723 308.787 109.956C308.75 112.754 307.835 115.475 306.115 117.722C303.11 121.602 297.725 123.816 292.456 123.355C289.4 123.097 286.32 121.916 284.49 119.604C282.66 117.293 282.558 113.865 284.7 111.996C285.061 111.693 285.44 111.443 285.918 111.456Z" fill="black"/>
</svg>
