<svg width="98" height="97" viewBox="0 0 98 97" fill="none" xmlns="http://www.w3.org/2000/svg">
<rect x="1.13949" y="0.34432" width="95.7208" height="95.7208" rx="47.8604" fill="white"/>
<rect x="1.13949" y="0.34432" width="95.7208" height="95.7208" rx="47.8604" stroke="black" stroke-width="0.688639"/>
<path fill-rule="evenodd" clip-rule="evenodd" d="M43.9564 55.2681C51.6839 55.2681 58.2886 56.439 58.2886 61.1166C58.2886 65.7941 51.7279 66.9986 43.9564 66.9986C36.2269 66.9986 29.6243 65.8381 29.6243 61.1585C29.6243 56.4788 36.1829 55.2681 43.9564 55.2681Z" stroke="#53545C" stroke-width="3.1421" stroke-linecap="round" stroke-linejoin="round"/>
<path fill-rule="evenodd" clip-rule="evenodd" d="M43.9565 48.592C38.8831 48.592 34.769 44.48 34.769 39.4066C34.769 34.3332 38.8831 30.2212 43.9565 30.2212C49.0279 30.2212 53.1419 34.3332 53.1419 39.4066C53.1608 44.4612 49.0761 48.5731 44.0215 48.592H43.9565Z" stroke="#53545C" stroke-width="3.1421" stroke-linecap="round" stroke-linejoin="round"/>
<path d="M58.3926 46.2077C61.7462 45.7363 64.329 42.8582 64.3353 39.3746C64.3353 35.9414 61.8321 33.0925 58.5497 32.5542" stroke="#53545C" stroke-width="3.1421" stroke-linecap="round" stroke-linejoin="round"/>
<path d="M62.8171 54.2737C66.0661 54.7576 68.3347 55.8971 68.3347 58.2432C68.3347 59.8582 67.2663 60.9056 65.5403 61.5613" stroke="#53545C" stroke-width="3.1421" stroke-linecap="round" stroke-linejoin="round"/>
</svg>
