<svg width="142" height="143" viewBox="0 0 142 143" fill="none" xmlns="http://www.w3.org/2000/svg">
    <g clip-path="url(#clip0_1430_6708)">
        <path d="M71.2498 104.626C77.1347 104.626 81.9053 99.855 81.9053 93.9701C81.9053 88.0852 77.1347 83.3146 71.2498 83.3146C65.3649 83.3146 60.5942 88.0852 60.5942 93.9701C60.5942 99.855 65.3649 104.626 71.2498 104.626Z" fill="black"/>
        <path d="M76.2254 38.374H66.7513C63.6159 38.374 61.0713 40.9415 61.0713 44.054V74.3399C61.0713 77.4524 63.6388 80.0199 66.7513 80.0199H76.2254C79.3379 80.0199 81.9054 77.4524 81.9054 74.3399V44.054C81.9054 40.9415 79.3382 38.374 76.2254 38.374Z" fill="black"/>
        <path d="M70.9998 0.5C31.7626 0.5 0 32.2626 0 71.4998C0 110.737 31.7626 142.5 70.9998 142.5C110.237 142.5 142 110.737 142 71.4998C142 32.2626 110.237 0.5 70.9998 0.5ZM71.0682 122.188C43.1 122.188 20.4026 99.5135 20.4026 71.5224C20.4026 43.5314 43.0771 20.8568 71.0682 20.8568C99.0592 20.8568 121.734 43.5314 121.734 71.5224C121.734 99.5138 99.0366 122.188 71.0682 122.188Z" fill="black"/>
    </g>
    <defs>
        <clipPath id="clip0_1430_6708">
            <rect width="142" height="142" fill="white" transform="translate(0 0.5)"/>
        </clipPath>
    </defs>
</svg>
