<svg width="104" height="103" viewBox="0 0 104 103" fill="none" xmlns="http://www.w3.org/2000/svg">
<rect x="1.27179" y="0.365535" width="101.619" height="101.619" rx="50.8094" fill="white"/>
<rect x="1.27179" y="0.365535" width="101.619" height="101.619" rx="50.8094" stroke="black" stroke-width="0.731071"/>
<g clip-path="url(#clip0_1271_2939)">
<path d="M58.1961 65.661C58.8632 63.4374 60.1974 61.4361 61.9763 59.8794C65.3118 57.0998 67.4244 52.8749 67.4244 48.2052C67.4244 39.5328 60.1975 32.4171 51.3027 32.8618C43.4086 33.1954 36.9599 39.8664 36.7376 47.7604C36.6264 52.6525 38.7389 56.9887 42.1856 59.8794C44.0757 61.436 45.4099 63.4373 46.077 65.661H58.1961Z" fill="#FFD15C"/>
<path d="M50.6354 65.8832H51.6361L47.1887 49.3168C47.2999 49.3168 47.411 49.3168 47.5223 49.3168C48.0781 49.3168 48.6341 49.0945 49.0788 48.6497C49.3011 48.4274 49.5236 48.3162 49.8571 48.3162C50.1907 48.3162 50.413 48.4274 50.6354 48.6497C51.4138 49.5392 52.748 49.5392 53.5262 48.6497C53.7485 48.4274 53.971 48.3162 54.3045 48.3162C54.5268 48.3162 54.8604 48.4274 55.0828 48.6497C55.5276 49.0945 55.9723 49.3168 56.6394 49.3168C56.7506 49.3168 56.8617 49.3168 56.9729 49.3168L52.6367 65.8832H53.6374L58.1959 48.5385C58.1959 48.3162 58.1959 48.0938 57.9736 47.9826C57.7512 47.8714 57.5288 47.9826 57.4177 48.0939C57.1953 48.3162 56.9729 48.4274 56.7506 48.4274C56.417 48.4274 56.1947 48.3162 55.8611 48.0939C55.4164 47.6491 54.9717 47.4268 54.4157 47.4268C53.8597 47.4268 53.4151 47.6491 52.9703 48.0939C52.5255 48.5386 51.8584 48.5386 51.4138 48.0939C51.0802 47.6491 50.5243 47.4268 49.9683 47.4268C49.4125 47.4268 48.8565 47.6491 48.5229 48.0939C48.3006 48.3162 47.967 48.4274 47.6335 48.4274C47.4111 48.4274 47.0776 48.3162 46.9664 48.0939C46.8552 47.9826 46.6328 47.8715 46.4105 47.9826C46.1882 48.0939 46.0769 48.3162 46.1882 48.5385L50.6354 65.8832Z" fill="white"/>
<path d="M48.6348 75.8896C49.1908 77.2239 50.525 78.2245 52.0815 78.2245C53.638 78.2245 54.9722 77.2239 55.5282 75.8896H48.6348Z" fill="#344A5E"/>
<path d="M56.1949 76.0009H48.0785C46.9666 76.0009 46.0771 75.1114 46.0771 73.9996V65.5496H58.1962V73.9996C58.1962 75.1113 57.3067 76.0009 56.1949 76.0009Z" fill="#344A5E"/>
<path d="M58.0848 69.7746H46.077C45.4099 69.7746 44.854 69.2187 44.854 68.5516C44.854 67.8845 45.4099 67.3286 46.077 67.3286H58.0848C58.7519 67.3286 59.3078 67.8845 59.3078 68.5516C59.3078 69.2187 58.7519 69.7746 58.0848 69.7746Z" fill="#415A6B"/>
<path d="M58.0848 73.6659H46.077C45.4099 73.6659 44.854 73.1101 44.854 72.443C44.854 71.7759 45.4099 71.22 46.077 71.22H58.0848C58.7519 71.22 59.3078 71.7759 59.3078 72.443C59.3078 73.11 58.7519 73.6659 58.0848 73.6659Z" fill="#415A6B"/>
<path d="M52.0811 24.8564C51.5252 24.8564 50.9692 25.3012 50.9692 25.9683V29.7486C50.9692 30.3045 51.414 30.8605 52.0811 30.8605C52.7482 30.8605 53.193 30.4157 53.193 29.7486V25.9683C53.193 25.3012 52.637 24.8564 52.0811 24.8564Z" fill="#FFD15C"/>
<path d="M37.1821 31.6388C36.7373 31.194 36.0702 31.194 35.6255 31.6388C35.1809 32.0835 35.1808 32.7506 35.6255 33.1953L38.2939 35.8637C38.7387 36.3085 39.4058 36.3085 39.8505 35.8637C40.2951 35.4189 40.2952 34.7518 39.8505 34.3072L37.1821 31.6388Z" fill="#FFD15C"/>
<path d="M33.7359 46.9822H29.9556C29.3997 46.9822 28.8438 47.4269 28.8438 48.094C28.8438 48.6499 29.2885 49.2059 29.9556 49.2059H33.7359C34.2918 49.2059 34.8478 48.7612 34.8478 48.094C34.8478 47.5381 34.2918 46.9822 33.7359 46.9822Z" fill="#FFD15C"/>
<path d="M38.294 60.324L35.6256 62.9924C35.1808 63.4372 35.1808 64.1043 35.6256 64.549C36.0703 64.9936 36.7374 64.9937 37.1821 64.549L39.8505 61.8806C40.2953 61.4358 40.2953 60.7687 39.8505 60.324C39.4057 59.8794 38.7387 59.8792 38.294 60.324Z" fill="#FFD15C"/>
<path d="M65.8678 60.3241C65.423 59.8793 64.7559 59.8793 64.3111 60.3241C63.8663 60.7688 63.8663 61.4359 64.3111 61.8806L66.9795 64.549C67.4243 64.9938 68.0914 64.9938 68.5361 64.549C68.9807 64.1042 68.9808 63.4371 68.5361 62.9925L65.8678 60.3241Z" fill="#FFD15C"/>
<path d="M74.2066 46.9822H70.4263C69.8704 46.9822 69.3145 47.4269 69.3145 48.094C69.3145 48.6499 69.7592 49.2059 70.4263 49.2059H74.2066C74.7625 49.2059 75.3185 48.7612 75.3185 48.094C75.3184 47.5381 74.8737 46.9822 74.2066 46.9822Z" fill="#FFD15C"/>
<path d="M66.9795 31.6387L64.3111 34.3071C63.8663 34.7519 63.8663 35.419 64.3111 35.8637C64.7559 36.3084 65.423 36.3084 65.8677 35.8637L68.5361 33.1952C68.9808 32.7505 68.9808 32.0834 68.5361 31.6387C68.0913 31.194 67.4243 31.1939 66.9795 31.6387Z" fill="#FFD15C"/>
</g>
<defs>
<clipPath id="clip0_1271_2939">
<rect width="53.3681" height="53.3681" fill="white" transform="translate(25.397 24.8564)"/>
</clipPath>
</defs>
</svg>
