<svg width="48" height="64" viewBox="0 0 48 64" fill="none" xmlns="http://www.w3.org/2000/svg">
<path d="M19.0409 0.4286C18.0645 0.724468 16.1708 1.43455 14.8393 2.02629C13.5079 2.61803 11.4367 3.38728 10.2531 3.71274C6.58415 4.80745 4.80884 6.19803 3.80283 8.89044C3.27024 10.281 3.359 12.8255 4.06913 15.3995C5.45979 20.4885 9.42464 32.1457 10.6082 34.6606C11.2887 36.1103 11.9693 37.6193 12.1172 38.0039C12.3243 38.5069 12.5314 38.6252 12.9161 38.4773C16.4371 36.9683 18.5971 36.4358 21.8518 36.3174C25.9054 36.1695 27.4736 36.495 31.8527 38.4477L34.8412 39.7495L35.8768 38.2406C36.646 37.1163 37.1786 35.7553 37.8592 33.1516C38.3622 31.1989 39.0427 29.0982 39.3386 28.4769C40.0783 27.0272 42.3862 23.4767 43.7769 21.6128C45.2563 19.6305 47.0316 15.8433 47.2091 14.2752C47.4459 12.2337 45.9072 8.83126 43.8952 7.02647C40.2558 3.68315 31.3497 0.754055 22.7395 0.043972C21.3488 -0.0743752 20.3132 0.043972 19.0409 0.4286ZM18.2716 2.79555C17.4431 4.57076 17.1768 6.90812 17.4727 10.4585C17.7982 14.3048 19.0409 23.2696 19.6327 25.8437C20.1653 28.0627 20.1949 28.5065 19.7806 28.0923C19.3072 27.6189 17.4727 20.0151 16.9401 16.2871C16.3188 11.7899 16.23 6.0501 16.7922 4.45241C17.236 3.15059 18.2124 1.64166 18.5971 1.64166C18.7154 1.64166 18.5971 2.14464 18.2716 2.79555ZM10.4307 6.46432C11.9988 11.8787 12.4131 14.1273 12.8273 19.4234C13.064 22.5004 13.3599 25.3703 13.4487 25.7845C13.5966 26.3171 13.5374 26.5242 13.3303 26.3763C12.8569 26.0804 12.1764 22.5891 11.3479 15.9913C10.9337 12.7367 10.3419 9.09755 10.0164 7.91407C9.69094 6.7306 9.42464 5.51754 9.42464 5.16249C9.42464 4.15654 9.95724 4.83704 10.4307 6.46432ZM6.37703 11.4349C7.20551 13.0622 7.70851 15.0149 8.80328 21.021C9.57259 25.1928 10.2531 28.2994 10.7857 29.9563C10.9337 30.4001 10.9041 30.4297 10.6378 30.045C10.0164 29.187 8.53699 24.1868 7.50139 19.6009C6.25867 13.8906 5.75567 12.2042 4.98637 10.9023C4.6609 10.3402 4.3946 9.74846 4.3946 9.57093C4.3946 8.92002 5.75567 10.1923 6.37703 11.4349Z" fill="#F2F2F2"/>
<path d="M16.9523 43.1021L16.9564 43.1003C17.8299 42.7238 18.5895 42.4996 19.2124 42.4588C19.8346 42.4183 20.3818 42.5595 20.7323 42.9893C20.8784 43.1599 20.9898 43.3332 21.0396 43.5018C21.0895 43.6696 21.0967 43.9308 20.8711 44.0966C20.6877 44.2312 20.4614 44.2084 20.3094 44.1713C20.1381 44.1295 19.9488 44.0423 19.7523 43.9198C19.5322 43.7855 19.3965 43.7443 19.1747 43.7724C18.9086 43.8063 18.5231 43.9405 17.8209 44.2395L17.8164 44.2412C16.9177 44.6094 16.2442 44.8226 15.7148 44.8181C15.4376 44.816 15.1898 44.7548 14.9683 44.6209C14.75 44.489 14.5807 44.3008 14.4368 44.081L14.435 44.0779L14.4329 44.0748C14.3028 43.8668 14.2229 43.6585 14.207 43.4647C14.1914 43.2779 14.2354 43.0439 14.4326 42.8989C14.6357 42.7498 14.8756 42.7847 15.0496 42.8675C15.2261 42.9512 15.3909 43.1031 15.5372 43.301L15.5397 43.3042C15.6414 43.445 15.6905 43.5042 15.729 43.535C15.729 43.535 15.7297 43.5357 15.7303 43.536C15.7438 43.5471 15.749 43.5512 15.7829 43.5495C15.8428 43.5467 15.9491 43.5229 16.1508 43.4457C16.3474 43.3706 16.6028 43.2585 16.9523 43.1021Z" fill="#F2F2F2"/>
<path d="M4.95492 44.9725L4.95769 44.9711C6.33847 44.2956 7.20502 43.8945 7.76979 43.7326C8.05218 43.6516 8.30896 43.6146 8.53736 43.6675C8.79034 43.726 8.95402 43.8803 9.06926 44.0585L9.07134 44.0617C9.21738 44.2928 9.24609 44.553 9.15854 44.8157C9.07722 45.059 8.90315 45.2887 8.67717 45.5102C8.22521 45.9545 7.45834 46.4687 6.37724 47.0909C5.79343 47.4266 5.26465 47.7671 4.88571 48.046C4.70645 48.1778 4.56733 48.2913 4.4732 48.3799C4.48012 48.3862 4.48739 48.3927 4.49535 48.3993C4.62408 48.5121 4.81926 48.6599 5.06946 48.8322C5.56779 49.1751 6.25958 49.5977 7.01953 50.007L7.0223 50.0084C8.36433 50.7458 9.28969 51.3452 9.75619 51.8279C9.97801 52.0577 10.1777 52.3421 10.1504 52.6591C10.1196 53.0152 9.83163 53.2145 9.55997 53.3245L9.55306 53.3277L9.54613 53.3301C9.41705 53.3761 9.27032 53.3706 9.15612 53.3591C9.02877 53.346 8.881 53.3176 8.72078 53.2792C8.39928 53.202 7.99612 53.0761 7.54624 52.9176C6.6444 52.6006 5.52558 52.1449 4.43652 51.6597C3.34746 51.1746 2.27986 50.6572 1.4815 50.2157C1.08352 49.9956 0.743686 49.7897 0.499366 49.6125C0.378244 49.5246 0.26958 49.4361 0.187563 49.3492C0.146382 49.3059 0.104168 49.2547 0.0706002 49.1969C0.0387625 49.1423 0 49.0564 0 48.9506C0 48.7793 0.0629797 48.6159 0.14119 48.4747C0.221476 48.3298 0.333254 48.181 0.464757 48.0322C0.728111 47.7335 1.0984 47.4041 1.54067 47.0639C2.42659 46.3826 3.63711 45.6313 4.95492 44.9725ZM4.36384 48.5C4.36384 48.5 4.36593 48.4972 4.368 48.4927C4.36489 48.4976 4.36384 48.5 4.36384 48.5Z" fill="#F2F2F2"/>
<path d="M39.58 46.6129L39.5769 46.6118L39.5738 46.6104C38.3917 46.1526 37.5615 45.7692 37.07 45.4145C36.8264 45.2387 36.6247 45.0415 36.526 44.8086C36.415 44.547 36.453 44.2874 36.5949 44.0622C36.7749 43.7753 37.106 43.676 37.4033 43.6466C37.7151 43.6154 38.0899 43.6507 38.4893 43.7258C39.2928 43.8774 40.2753 44.2075 41.2231 44.6165C42.1717 45.0259 43.105 45.5232 43.8075 46.019C44.1578 46.2661 44.4619 46.5212 44.6827 46.7731C44.8938 47.0143 45.0752 47.3053 45.0752 47.6191C45.0752 47.7659 45.015 47.8988 44.9551 48.0001C44.8918 48.1081 44.8039 48.2209 44.7007 48.3368C44.4934 48.569 44.1937 48.8462 43.8113 49.1646C43.0448 49.8037 41.9101 50.6391 40.4282 51.6613C39.8489 52.0623 39.3714 52.3765 38.981 52.6077C38.5955 52.8354 38.274 52.9949 38.012 53.0704C37.7625 53.1423 37.4538 53.1686 37.2234 52.952C37.0175 52.7586 36.9856 52.4651 36.9856 52.2347C36.9856 52.0485 37.0614 51.8686 37.1538 51.7115C37.25 51.5485 37.385 51.3754 37.5497 51.1952C37.8791 50.8342 38.355 50.4138 38.9544 49.9494L38.9564 49.9477C40.1421 49.0438 40.8646 48.4569 41.2761 48.0531C41.483 47.8496 41.5914 47.7112 41.6426 47.6178C41.6509 47.6029 41.6571 47.5901 41.6616 47.5794C41.6453 47.5676 41.6253 47.5537 41.6017 47.5382C41.4927 47.4662 41.3329 47.3759 41.1297 47.2735C40.7255 47.0696 40.1756 46.8309 39.58 46.6129ZM41.6748 47.5337C41.6748 47.5337 41.6744 47.5354 41.6748 47.5382C41.6751 47.5351 41.6748 47.5337 41.6748 47.5337ZM41.7222 47.6295C41.7222 47.6295 41.7208 47.6278 41.7173 47.6243C41.7201 47.6278 41.7222 47.6295 41.7222 47.6295Z" fill="#F2F2F2"/>
<path d="M15.9716 46.5067L15.9723 46.5057C16.3212 46.1877 16.6222 45.9635 16.9527 45.8468C17.2933 45.7271 17.6258 45.7351 18.0086 45.7987L18.0148 45.7998L18.021 45.8012C18.7145 45.943 19.2537 46.2005 19.606 46.678C19.9524 47.1473 20.0728 47.7698 20.0728 48.5366C20.0728 50.3461 19.0322 51.423 17.8092 51.4821C16.5935 51.541 15.4224 50.5804 15.1823 48.7906C15.1093 48.2629 15.0791 47.8601 15.2058 47.495C15.3335 47.1262 15.6041 46.8448 15.9716 46.5067ZM17.8975 48.4311L17.8933 48.4204L17.8895 48.4093C17.8598 48.3197 17.8089 48.2345 17.7584 48.1771C17.7552 48.1736 17.7521 48.1702 17.749 48.1671C17.7483 48.1681 17.7473 48.1691 17.7463 48.1702C17.7123 48.2089 17.6746 48.2778 17.6514 48.3716C17.6013 48.575 17.6476 48.7494 17.7227 48.8245C17.7802 48.882 17.8137 48.8816 17.8169 48.8816C17.8224 48.8816 17.8407 48.8799 17.867 48.8533C17.9207 48.7979 17.9854 48.6456 17.8975 48.4311ZM17.7781 48.1425C17.7798 48.1425 17.7805 48.1421 17.7805 48.1418C17.7805 48.1418 17.7798 48.1421 17.7781 48.1425Z" fill="#F2F2F2"/>
<path d="M27.7963 46.4012L27.797 46.4009C28.2874 46.0144 28.6992 45.7524 29.174 45.7137C29.644 45.6756 30.1077 45.8621 30.6835 46.1573C31.8892 46.7691 32.2107 48.1058 31.9546 49.2243C31.6989 50.3409 30.8285 51.3974 29.4906 51.3974C28.784 51.3974 28.1943 51.1576 27.7641 50.6603C27.3457 50.1762 27.1094 49.4848 27.0166 48.6367C26.9443 48.0723 26.9142 47.6529 27.0371 47.2989C27.1661 46.9272 27.444 46.6802 27.7963 46.4012ZM29.0152 48.8322L29.0241 48.8353L29.0331 48.8391C29.1882 48.9042 29.3498 48.8664 29.4508 48.7851C29.5 48.7453 29.5225 48.7052 29.5301 48.6768C29.5356 48.6564 29.5367 48.6322 29.5197 48.5976C29.465 48.518 29.4232 48.4806 29.3989 48.4647C29.3813 48.4533 29.3768 48.455 29.3757 48.4553C29.3674 48.4564 29.3325 48.463 29.266 48.5111C29.2 48.5592 29.1169 48.6377 29.0169 48.7581C28.9992 48.7789 28.984 48.7979 28.9705 48.8156C28.9844 48.8208 28.9992 48.8263 29.0152 48.8322ZM28.847 48.7574H28.8473H28.847Z" fill="#F2F2F2"/>
<path d="M25.2426 53.6265L25.2443 53.6245L25.2464 53.6224C25.6246 53.2282 26.0423 52.9417 26.3977 52.8292C26.568 52.7756 26.7867 52.742 26.9847 52.8303C27.2252 52.9369 27.3217 53.1653 27.3217 53.3885C27.3217 53.5525 27.2504 53.6982 27.1816 53.8058C27.1082 53.9203 27.0099 54.0335 26.9016 54.1407C26.6846 54.3563 26.3953 54.5799 26.0887 54.7802C25.7811 54.9816 25.4443 55.1675 25.128 55.3041C24.8221 55.4363 24.4965 55.5395 24.2238 55.5395C23.9604 55.5395 23.6504 55.4325 23.3642 55.3003C23.0669 55.163 22.7506 54.9764 22.4613 54.7744C22.173 54.5733 21.9007 54.3494 21.6965 54.1331C21.5944 54.0252 21.502 53.9117 21.4335 53.7975C21.3684 53.6895 21.3037 53.5469 21.3037 53.3885C21.3037 53.3213 21.3086 53.2452 21.3283 53.1698C21.348 53.0947 21.3881 52.9981 21.4743 52.9196C21.6674 52.7438 21.9072 52.8009 22.0291 52.8448C22.1689 52.895 22.3284 52.9881 22.5039 53.1054C22.6838 53.2258 22.9018 53.3867 23.1628 53.5881L23.1641 53.5888C23.4126 53.7822 23.6905 53.9556 23.931 54.0795C24.0511 54.1414 24.1573 54.1882 24.2421 54.219C24.3231 54.248 24.3629 54.2542 24.3705 54.2553C24.375 54.2542 24.4024 54.2497 24.457 54.2262C24.52 54.1992 24.5993 54.1563 24.6889 54.0975C24.8685 53.9802 25.0689 53.8134 25.2426 53.6265Z" fill="#F2F2F2"/>
<path d="M17.1809 56.6271L17.1816 56.6267C18.4104 56.0423 19.4143 55.7343 20.285 55.7426C21.1782 55.7509 21.8967 56.0911 22.5428 56.7209L22.5459 56.724C22.904 57.0821 23.1632 57.3905 23.2951 57.715C23.4356 58.0618 23.4169 58.3881 23.3166 58.7431C22.6981 61.2945 19.868 62.9361 16.5611 62.9361C14.9768 62.9361 13.7164 62.6884 12.7433 62.1198C11.7594 61.545 11.1068 60.6644 10.7005 59.4771L10.6998 59.4747C10.5403 58.9964 10.4185 58.2947 10.3652 57.7178C10.3385 57.4292 10.3278 57.1555 10.3413 56.9461C10.3482 56.8451 10.3617 56.7357 10.3935 56.6416C10.4088 56.5956 10.4368 56.5281 10.4901 56.4669C10.5489 56.3987 10.651 56.3267 10.7912 56.3267C10.8448 56.3267 10.8884 56.3402 10.8915 56.3412H10.8919C10.9047 56.3451 10.9157 56.3489 10.923 56.3516C10.9375 56.3568 10.9528 56.3631 10.9663 56.3686C10.994 56.3804 11.03 56.3966 11.0715 56.4153C11.1552 56.4537 11.2712 56.5084 11.4106 56.5755C11.6902 56.7094 12.0692 56.8953 12.4845 57.1029L12.4869 57.1039C13.3181 57.5271 13.8137 57.6946 14.4106 57.641C15.0377 57.5846 15.8111 57.2821 17.1809 56.6271Z" fill="#F2F2F2"/>
<path d="M35.9642 60.8563L35.9621 60.8594C35.0444 62.2359 33.1019 63.0252 30.8217 63.0252C28.3456 63.0252 26.4378 62.2567 25.0283 60.6289C24.3012 59.8084 23.9192 58.9568 23.9898 58.1447C24.0617 57.3173 24.5933 56.6318 25.4719 56.1359C26.5437 55.5147 27.8421 55.7002 29.8586 56.5307L29.8604 56.5314C31.5097 57.2211 32.3043 57.5339 32.9071 57.5976C33.4663 57.6564 33.8646 57.5014 34.7606 57.0982C35.2091 56.8889 35.6292 56.7089 35.9473 56.584C36.1054 56.5217 36.2431 56.4715 36.3476 56.438C36.3989 56.4217 36.4497 56.4072 36.4944 56.3975C36.5162 56.393 36.5456 56.3874 36.5774 56.3854C36.5774 56.3854 36.5785 56.385 36.5792 56.385C36.5958 56.3836 36.684 56.3767 36.7757 56.4227L36.8366 56.4532L36.8816 56.5044C36.9598 56.5937 36.982 56.6996 36.9906 56.7494C37.0014 56.8124 37.0045 56.8792 37.0041 56.9428C37.0034 57.0712 36.9889 57.228 36.9657 57.3979C36.9193 57.7398 36.8335 58.1723 36.7283 58.6135C36.6231 59.0554 36.4964 59.5133 36.3674 59.9067C36.2417 60.2887 36.1023 60.6441 35.9642 60.8563Z" fill="#F2F2F2"/>
</svg>
