<svg width="16" height="16" viewBox="0 0 82 85" fill="none" xmlns="http://www.w3.org/2000/svg">
<path d="M36.7625 4.24142C39.4108 2.71249 42.6733 2.71249 45.3215 4.24142L72.0351 19.6644C74.6831 21.1934 76.3147 24.0189 76.3147 27.0768V57.9229C76.3147 60.9808 74.6831 63.8062 72.0351 65.3353L45.3215 80.7581C42.6733 82.2872 39.4108 82.2872 36.7625 80.7581L10.049 65.3353C7.40088 63.8062 5.76953 60.9808 5.76953 57.9229V27.0768C5.76953 24.0189 7.40088 21.1934 10.049 19.6644L36.7625 4.24142Z" stroke="white" stroke-width="5.90278"/>
<path d="M26.5799 28.6289L18.9062 33.056V51.3546L26.5799 55.4865V28.6289Z" fill="white"/>
<path d="M40.1562 45.451V16.5273L62.8819 28.628V34.826L46.6493 27.1523V39.5482H62.8819V55.4857L40.1562 68.4718V60.2079L56.3889 51.3537V45.451H40.1562Z" fill="white"/>
</svg>
